<?xml version="1.0" encoding="utf-8"?>
<!-- Generator: Adobe Illustrator 27.3.1, SVG Export Plug-In . SVG Version: 6.00 Build 0)  -->
<svg version="1.1" id="Warstwa_1" xmlns="http://www.w3.org/2000/svg" xmlns:xlink="http://www.w3.org/1999/xlink" x="0px" y="0px"
	 viewBox="0 0 899 1509" style="enable-background:new 0 0 899 1509;" xml:space="preserve">
<g transform="translate(0.000000,1509.000000) scale(0.100000,-0.100000)">
	<path d="M1618,15063.1c-10.7-14.5-27.8-34.1-38.5-43.4c-19.3-18.6-135.9-53.7-175.4-53.7c-24.6,0-34.2,23.8-13.9,36.2
		c17.1,10.3,12.8,43.4-6.4,50.6c-49.2,18.6-121.9-11.4-121.9-49.6c0-27.9,17.1-37.2,71.7-37.2c32.1,0,36.4-2.1,24.6-15.5
		c-7.5-8.3-19.3-15.5-25.7-15.5c-47.1,0-100.6-28.9-166.9-88.8c-40.6-37.2-86.6-71.3-102.7-75.4c-38.5-9.3-68.5-49.6-76-101.2
		c-4.3-34.1,0-48.6,27.8-86.8c24.6-34.1,34.2-61,38.5-107.4c3.2-34.1,8.6-69.2,10.7-79.5c3.2-9.3-1.1-34.1-10.7-54.8
		c-21.4-51.7-20.3-93,6.4-166.3c11.8-33.1,19.3-73.3,16-88.8c-6.4-30,57.8-247.9,102.7-354.3c19.3-42.4,25.7-74.4,22.5-100.2
		c-4.3-30,1.1-50.6,23.5-87.8c17.1-26.9,62-109.5,100.6-182.9c39.6-74.4,94.1-167.4,121.9-206.6c27.8-38.2,50.3-75.4,50.3-81.6
		s13.9-25.8,30-43.4c17.1-16.5,38.5-50.6,47.1-74.4c39.6-100.2,194.7-292.4,237.5-292.4c17.1,0,59.9,47.5,59.9,67.1
		c0,6.2,17.1,26.9,37.4,45.5c48.1,42.4,49.2,74.4,3.2,105.4c-19.3,12.4-37.4,24.8-39.6,26.9c-2.1,1,2.1,21.7,9.6,44.4
		c18.2,52.7,3.2,72.3-55.6,72.3c-57.8,0-81.3,14.5-101.6,63c-12.8,33.1-27.8,46.5-66.3,64c-55.6,25.8-67.4,54.8-33.2,84.7
		c11.8,10.3,21.4,30,21.4,43.4c0,41.3-61,83.7-80.2,54.8c-3.2-5.2-18.2-10.3-32.1-10.3c-31,0-101.6,83.7-101.6,119.8
		c0,24.8,37.4,66.1,59.9,66.1c19.3,0,27.8,33.1,12.8,47.5c-7.5,7.2-35.3,23.8-62,38.2c-98.4,52.7-51.3,120.9,82.4,120.9
		c82.4,0,118.7,12.4,155.1,54.8c26.7,31,31,33.1,94.1,30c36.4-2.1,87.7-12.4,114.5-23.8c38.5-15.5,56.7-17.6,82.4-10.3
		c18.2,5.2,67.4,12.4,108,15.5c120.9,8.3,175.4,37.2,143.3,74.4c-9.6,10.3-44.9,14.5-136.9,14.5c-68.5,0-176.5,7.2-241.8,15.5
		c-175.4,22.7-202.2,21.7-228.9-12.4c-39.6-50.6-42.8-53.7-83.4-59.9c-22.5-3.1-66.3-15.5-97.3-27.9c-50.3-18.6-63.1-19.6-99.5-9.3
		c-47.1,13.4-84.5,59.9-84.5,104.3c0,14.5-7.5,37.2-17.1,49.6c-13.9,19.6-16,43.4-9.6,156c7.5,124,6.4,134.3-16,176.7
		c-23.5,45.5-23.5,46.5-5.3,100.2c17.1,47.5,17.1,59.9,5.3,95c-7.5,21.7-9.6,45.5-6.4,51.7c12.8,19.6,48.1,12.4,72.7-14.5
		c13.9-15.5,43.9-30,79.2-37.2c59.9-13.4,81.3-23.8,148.7-75.4c53.5-41.3,228.9-108.5,327.3-125c68.5-11.4,92-11.4,143.3,0
		c33.2,7.2,66.3,18.6,72.7,24.8c18.2,17.6-8.6,63-37.4,64c-71.7,1-112.3,9.3-228.9,45.5c-69.5,21.7-139.1,47.5-154,56.8
		c-15,10.3-38.5,21.7-53.5,25.8c-44.9,13.4-120.9,56.8-160.5,91.9c-20.3,18.6-55.6,46.5-78.1,62c-48.1,34.1-50.3,70.2-6.4,102.3
		l28.9,19.6l64.2-27.9c47.1-20.7,73.8-25.8,95.2-20.7c16,4.1,55.6,11.4,86.6,15.5c31,5.2,86.6,20.7,123,35.1
		c39.6,14.5,99.5,27.9,146.6,31c133.7,10.3,213.9,22.7,226.8,35.1c7.5,7.2,23.5,12.4,36.4,12.4c36.4,0,41.7-34.1,13.9-80.6
		c-13.9-22.7-21.4-47.5-17.1-56.8c8.6-21.7,46-21.7,82.4-2.1c34.2,18.6,73.8,19.6,119.8,1c52.4-21.7,59.9-35.1,64.2-104.3
		c3.2-55.8,6.4-63,35.3-78.5c18.2-10.3,61-25.8,96.3-34.1c72.7-18.6,101.6-44.4,101.6-94c0-34.1,10.7-48.6,46-59.9
		c24.6-9.3,61,26.9,61,59.9c0,20.7,5.3,25.8,26.7,25.8c16,0,33.2-9.3,43.9-25.8c13.9-20.7,26.7-25.8,62-25.8
		c24.6,0,54.6-6.2,65.3-14.5c19.3-13.4,19.3-15.5,2.1-41.3c-15-21.7-26.7-26.9-65.3-26.9c-88.8,0-89.9-51.7-2.1-93
		c34.2-15.5,55.6-35.1,72.7-65.1c20.3-35.1,34.2-45.5,72.7-56.8c73.8-20.7,101.6-37.2,104.8-62c3.2-18.6-5.3-26.9-43.9-43.4
		c-25.7-11.4-53.5-27.9-61-36.2s-41.7-32-77-52.7c-78.1-46.5-103.8-96.1-67.4-131.2c23.5-22.7,53.5-10.3,84.5,34.1
		c34.2,49.6,82.4,84.7,150.8,109.5c30,10.3,71.7,36.2,93.1,57.9c34.2,33.1,47.1,39.3,85.6,39.3c53.5,0,67.4,7.2,78.1,39.3
		c5.3,19.6,0,30-33.2,56.8c-117.7,96.1-138,133.3-78.1,139.5c21.4,2.1,34.2-5.2,56.7-33.1c28.9-37.2,71.7-49.6,87.7-25.8
		c6.4,11.4-46,71.3-63.1,71.3c-5.3,0-26.7,14.5-47.1,31c-19.3,17.6-40.6,31-47.1,31c-6.4,0-33.2,15.5-61,34.1
		c-27.8,17.6-73.8,42.4-103.8,54.8c-39.6,15.5-57.8,30-70.6,55.8c-23.5,47.5-48.1,62-104.8,62c-43.9,0-52.4,4.1-96.3,50.6
		c-54.6,54.8-77,65.1-156.2,68.2c-72.7,3.1-135.9,20.7-151.9,42.4c-19.3,25.8-17.1,81.6,3.2,98.1s50.3,1,56.7-27.9
		c10.7-56.8,43.9-50.6,65.3,12.4c15,43.4-2.1,76.4-52.4,96.1c-27.8,12.4-36.4,11.4-64.2-8.3c-56.7-39.3-81.3-24.8-81.3,44.4
		c0,35.1-5.3,44.4-35.3,64c-19.3,13.4-74.9,36.2-123,51.7s-93.1,32-99.5,36.2c-6.4,5.2-47.1,22.7-89.9,40.3c-76,30-82.4,31-257.8,31
		h-179.7L1618,15063.1z M2037.3,14986.7c10.7-16.5-4.3-48.6-25.7-54.8c-38.5-9.3-72.7,33.1-47.1,57.9
		C1975.3,15001.2,2029.8,14998.1,2037.3,14986.7z"/>
	<path d="M7072.5,15007.4c-98.4-20.7-162.6-44.4-162.6-62c0-10.3,30-41.3,40.6-41.3c4.3,0,26.7,5.2,50.3,11.4
		c23.5,6.2,93.1,14.5,155.1,20.7c62,5.2,132.6,12.4,158.3,15.5c56.7,8.3,94.1-1,102.7-23.8c10.7-26.9-21.4-44.4-81.3-44.4
		c-68.5,0-274.9-52.7-363.7-93c-39.6-18.6-97.3-36.2-129.4-40.3c-69.5-9.3-77-13.4-110.2-64c-23.5-36.2-31-41.3-61-38.2
		c-39.6,3.1-49.2,27.9-27.8,67.1c17.1,31,4.3,45.5-50.3,49.6c-22.5,2.1-55.6,12.4-74.9,21.7c-34.2,17.6-34.2,17.6-90.9-18.6
		c-32.1-19.6-71.7-39.3-89.9-43.4c-47.1-11.4-80.2-35.1-80.2-57.9c0-34.1,53.5-26.9,103.8,15.5c26.7,21.7,59.9,38.2,87.7,42.4
		c39.6,6.2,46,4.1,76-26.9c52.4-54.8,41.7-91.9-40.6-143.6c-40.6-24.8-64.2-32-107-32c-54.6,0-55.6-1-169-100.2
		c-62-55.8-126.2-109.5-142.3-118.8c-15-10.3-55.6-47.5-88.8-82.6c-50.3-53.7-63.1-62-72.7-49.6c-6.4,8.3-7.5,24.8-4.3,36.2
		c13.9,44.4,16,85.7,5.3,91.9c-30,18.6-10.7,59.9,54.6,120.9c62,55.8,65.3,62,49.2,77.5c-16,15.5-20.3,14.5-63.1-10.3
		c-25.7-14.5-116.6-94-201.1-175.6c-130.5-128.1-151.9-152.9-140.1-166.3c20.3-23.8,51.3-18.6,78.1,12.4
		c82.4,96.1,98.4,97.1,140.1,12.4c30-61,31-63,13.9-98.1c-25.7-50.6-46-54.8-82.4-15.5c-37.4,39.3-55.6,40.3-84.5,5.2
		c-22.5-27.9-20.3-48.6,11.8-82.6c13.9-15.5,18.2-30,12.8-53.7c-4.3-21.7-1.1-41.3,10.7-58.9c9.6-13.4,17.1-41.3,17.1-61
		c0-69.2,30-89.9,69.5-47.5c28.9,31,49.2,25.8,92-22.7c36.4-40.3,41.7-42.4,67.4-31c41.7,17.6,36.4,54.8-11.8,93l-39.6,31l27.8,39.3
		c15,22.7,34.2,54.8,41.7,71.3c9.6,19.6,33.2,39.3,66.3,55.8c28.9,13.4,74.9,50.6,107,84.7c39.6,44.4,68.5,65.1,107,78.5
		c36.4,12.4,65.3,32,90.9,62c28.9,35.1,43.9,44.4,70.6,44.4c41.7,0,58.8,11.4,65.3,41.3c7.5,39.3,33.2,56.8,114.5,81.6
		c143.3,43.4,174.4,55.8,204.3,86.8c16,16.5,28.9,35.1,28.9,42.4c0,6.2,7.5,22.7,17.1,35.1c16,22.7,18.2,22.7,37.4,6.2
		c10.7-9.3,20.3-26.9,20.3-37.2c0-11.4,13.9-34.1,31-50.6c27.8-26.9,38.5-30,99.5-30c64.2,1,250.3,34.1,369.1,66.1
		c92,24.8,131.6,64,131.6,131.2c0,37.2,36.4,55.8,69.5,35.1c16-9.3,21.4-24.8,22.5-63c1.1-27.9,8.6-66.1,17.1-85.7
		c12.8-25.8,13.9-44.4,6.4-73.3c-8.6-32-6.4-47.5,12.8-88.8c20.3-42.4,25.7-79.5,33.2-225.2l9.6-174.6l-26.7-44.4
		c-15-23.8-34.2-76.4-42.8-115.7c-22.5-103.3-34.2-124-87.7-146.7c-38.5-16.5-46-23.8-46-49.6c0-16.5,9.6-38.2,21.4-48.6
		c31-26.9,26.7-59.9-10.7-85.7c-33.2-24.8-59.9-91.9-48.1-126c13.9-40.3-17.1-106.4-72.7-160.1c-89.9-85.7-210.7-231.4-210.7-253.1
		c0-5.2-21.4-33.1-48.1-62s-48.1-61-48.1-71.3s9.6-40.3,21.4-67.1c20.3-43.4,21.4-49.6,5.3-77.5c-21.4-41.3-20.3-65.1,6.4-108.5
		c13.9-23.8,20.3-49.6,18.2-75.4c-2.1-32-8.6-41.3-35.3-52.7c-69.5-28.9-85.6-40.3-88.8-62c-2.1-15.5,4.3-25.8,21.4-34.1
		c25.7-10.3,44.9-6.2,143.3,33.1c18.2,7.2,41.7,9.3,51.3,6.2c23.5-9.3,52.4-75.4,43.9-101.2c-7.5-20.7-41.7-26.9-53.5-9.3
		c-3.2,6.2-20.3,10.3-37.4,10.3c-57.8,0-52.4-62,7.5-83.7c46-16.5,44.9-73.3-2.1-118.8c-22.5-20.7-28.9-22.7-57.8-13.4
		c-18.2,6.2-48.1,11.4-66.3,12.4c-52.4,3.1-62,28.9-27.8,76.4c32.1,45.5,37.4,90.9,11.8,100.2c-51.3,18.6-100.6-5.2-100.6-50.6
		c0-13.4-8.6-32-18.2-42.4c-17.1-16.5-20.3-14.5-51.3,21.7c-21.4,23.8-47.1,40.3-70.6,45.5c-47.1,9.3-64.2,48.6-37.4,87.8
		c21.4,33.1,50.3,34.1,92,5.2c61-44.4,87.7,5.2,33.2,62c-34.2,35.1-64.2,40.3-119.8,17.6c-20.3-7.2-57.8-16.5-84.5-20.7
		c-42.8-6.2-52.4-3.1-71.7,16.5c-28.9,28.9-54.6,117.8-39.6,132.2c5.3,5.2,51.3,11.4,101.6,13.4c102.7,4.1,116.6,9.3,116.6,41.3
		c0,27.9-8.6,39.3-44.9,62c-34.2,20.7-61,21.7-99.5,5.2c-21.4-9.3-36.4-9.3-63.1,0c-46,16.5-63.1,9.3-96.3-40.3
		c-35.3-50.6-35.3-67.1,2.1-124c35.3-53.7,66.3-130.2,66.3-161.2c0-52.7-123-89.9-164.7-48.6c-24.6,22.7-21.4,35.1,16,72.3
		c40.6,41.3,36.4,78.5-11.8,102.3c-62,31-88.8,17.6-101.6-49.6c-5.3-26.9-18.2-45.5-41.7-61c-43.9-30-49.2-38.2-49.2-77.5
		c0-28.9,4.3-35.1,30-39.3c16-4.1,68.5-17.6,115.5-32c48.1-13.4,109.1-24.8,133.7-24.8c33.2,0,79.2-14.5,154-47.5
		c58.8-25.8,116.6-49.6,128.4-52.7c11.8-3.1,39.6-9.3,61-14.5c24.6-6.2,41.7-17.6,46-31c16-49.6-49.2-66.1-120.9-31
		c-40.6,19.6-126.2,45.5-274.9,83.7c-47.1,12.4-102.7,28.9-123,37.2c-21.4,8.3-83.4,27.9-139.1,44.4
		c-112.3,31-118.7,38.2-95.2,106.4c11.8,35.1,10.7,41.3-6.4,59.9c-10.7,11.4-47.1,28.9-79.2,37.2c-98.4,26.9-116.6,66.1-31,66.1
		c34.2,0,63.1,12.4,136.9,56.8c74.9,45.5,101.6,56.8,138,56.8c54.6,0,86.6,14.5,86.6,40.3c0,32-23.5,38.2-120.9,33.1
		c-94.1-6.2-94.1-6.2-129.4-47.5l-35.3-40.3l-55.6,12.4c-44.9,10.3-62,9.3-90.9-2.1c-20.3-8.3-39.6-19.6-42.8-25.8
		c-16-24.8-69.5-43.4-92-32c-26.7,13.4-26.7,39.3,0,72.3c48.1,59.9,18.2,82.6-115.5,88.8c-97.3,5.2-119.8,14.5-119.8,50.6
		c0,32-25.7,50.6-58.8,42.4c-30-7.2-36.4-37.2-10.7-57.9c27.8-22.7,18.2-49.6-25.7-72.3c-50.3-24.8-86.6-66.1-86.6-99.2
		c0-26.9,34.2-66.1,56.7-66.1c6.4,0,41.7,25.8,77,56.8c35.3,32,74.9,59.9,88.8,64c41.7,9.3,71.7-19.6,86.6-84.7
		c17.1-75.4,5.3-91.9-41.7-57.9c-18.2,12.4-43.9,21.7-56.7,19.6c-19.3-2.1-24.6-11.4-28.9-54.8c-3.2-27.9-9.6-57.9-13.9-64
		c-16-25.8-54.6-13.4-94.1,27.9c-38.5,40.3-42.8,41.3-99.5,40.3c-46-2.1-65.3,2.1-82.4,17.6c-26.7,23.8-104.8,25.8-156.2,4.1
		c-31-13.4-37.4-13.4-52.4,2.1c-10.7,10.3-17.1,33.1-17.1,62c1.1,79.5-44.9,113.6-102.7,74.4c-27.8-18.6-30-51.7-5.3-78.5
		c16-17.6,16-20.7,1.1-35.1c-15-15.5-20.3-13.4-59.9,20.7c-22.5,20.7-48.1,37.2-56.7,37.2c-7.5,0-27.8-12.4-43.9-27.9
		c-30-26.9-31-27.9-81.3-14.5c-76,21.7-116.6,24.8-150.8,13.4c-37.4-12.4-108,4.1-108,25.8c0,15.5-63.1,74.4-81.3,75.4
		c-21.4,0-57.8,47.5-57.8,74.4c0,40.3,24.6,53.7,82.4,45.5c27.8-3.1,53.5-11.4,57.8-18.6c6.4-9.3,11.8-9.3,24.6,1
		c23.5,18.6,21.4,39.3-4.3,54.8c-31,18.6-28.9,66.1,3.2,74.4c12.8,3.1,38.5,19.6,55.6,37.2c30,30,31,33.1,15,59.9
		c-13.9,24.8-23.5,27.9-77,31s-66.3-1-94.1-22.7c-39.6-33.1-39.6-33.1-84.5-1c-53.5,38.2-97.3,34.1-138-10.3
		c-55.6-62-43.9-102.3,38.5-125c56.7-15.5,99.5-44.4,99.5-66.1c0-6.2-11.8-15.5-25.7-20.7c-22.5-8.3-49.2-38.2-49.2-54.8
		c0-2.1,11.8-16.5,26.7-32c35.3-36.2,34.2-47.5-7.5-86.8c-40.6-37.2-101.6-64-146.6-64c-33.2,0-65.3-31-65.3-63
		c0-9.3-7.5-22.7-16-30c-11.8-9.3-30-5.2-93.1,23.8c-42.8,20.7-92,51.7-108,69.2c-23.5,25.8-37.4,32-64.2,28.9
		c-44.9-4.1-51.3-38.2-15-72.3c21.4-19.6,27.8-37.2,32.1-95c4.3-65.1,3.2-73.3-20.3-95c-18.2-18.6-36.4-24.8-73.8-24.8
		c-55.6,0-70.6,17.6-46,54.8c43.9,64,24.6,120.9-39.6,120.9c-21.4,0-53.5,10.3-76,25.8c-48.1,31-92,33.1-130.5,5.2
		c-27.8-19.6-32.1-20.7-69.5-5.2c-46,18.6-147.6,20.7-165.8,3.1c-19.3-18.6-15-47.5,8.6-59.9c10.7-5.2,50.3-9.3,85.6-8.3
		c61,3.1,68.5,1,92-25.8c18.2-19.6,25.7-41.3,25.7-70.2s9.6-52.7,32.1-83.7c38.5-50.6,38.5-58.9,10.7-112.6
		c-32.1-58.9-73.8-70.2-119.8-32c-35.3,28.9-24.6,77.5,36.4,159.1c10.7,15.5,10.7,21.7-5.3,36.2c-18.2,17.6-21.4,16.5-71.7-10.3
		c-46-24.8-61-27.9-101.6-21.7c-31,4.1-59.9,2.1-81.3-6.2c-26.7-11.4-35.3-11.4-46,1c-16,17.6-41.7,120.9-32.1,134.3
		c10.7,17.6,34.2,9.3,55.6-18.6c13.9-17.6,26.7-24.8,38.5-20.7c21.4,8.3,22.5,41.3,1.1,58.9c-9.6,7.2-21.4,34.1-28.9,58.9
		c-16,65.1-44.9,76.4-112.3,42.4c-48.1-23.8-51.3-27.9-56.7-72.3c-4.3-40.3-13.9-56.8-57.8-101.2c-50.3-50.6-52.4-51.7-77-36.2
		c-33.2,20.7-50.3,19.6-73.8-5.2c-27.8-30-64.2-25.8-90.9,10.3c-16,21.7-32.1,31-52.4,31c-44.9,0-95.2-19.6-102.7-40.3
		c-6.4-21.7,3.2-52.7,16-52.7c27.8,0,41.7-33.1,36.4-85.7c-9.6-91.9-12.8-100.2-40.6-100.2c-35.3,0-70.6,45.5-70.6,89.9
		c0,89.9-82.4,140.5-139.1,85.7c-33.2-32-26.7-56.8,27.8-95l49.2-34.1l-6.4-62c-7.5-66.1-17.1-83.7-42.8-74.4
		c-10.7,4.1-17.1,19.6-17.1,41.3c0,51.7-18.2,61-103.8,54.8c-128.4-10.3-189.3,33.1-131.6,91.9c42.8,44.4,4.3,80.6-59.9,57.9
		c-34.2-12.4-111.3-5.2-196.8,18.6c-39.6,10.3-36.4,46.5,5.3,52.7c18.2,3.1,43.9,12.4,58.8,20.7c15,9.3,36.4,20.7,48.1,26.9
		c11.8,7.2,21.4,21.7,21.4,36.2c0,35.1-37.4,37.2-69.5,4.1c-44.9-45.5-85.6-27.9-85.6,37.2c0,33.1-6.4,44.4-37.4,67.1
		c-20.3,14.5-37.4,34.1-37.4,42.4c0,23.8,33.2,65.1,53.5,65.1c19.3,0,53.5-31,53.5-48.6c0-18.6,30-36.2,52.4-28.9
		c11.8,3.1,28.9,24.8,38.5,51.7c10.7,24.8,30,54.8,44.9,67.1c13.9,11.4,24.6,30,22.5,39.3c-4.3,21.7-52.4,28.9-84.5,12.4
		c-11.8-7.2-50.3-15.5-83.4-20.7c-86.6-11.4-134.8-43.4-188.3-124c-95.2-143.6-94.1-137.4-97.3-439.1c-2.1-200.4,0-282,10.7-320.2
		c8.6-27.9,18.2-64,21.4-79.5c3.2-14.5,33.2-51.7,65.3-81.6c32.1-30,58.8-57.9,58.8-63c0-13.4,107-184.9,131.6-211.8
		c10.7-12.4,76-48.6,144.4-80.6c69.5-33.1,142.3-74.4,163.7-93c27.8-23.8,52.4-35.1,92-40.3c58.8-7.2,117.7-40.3,160.5-89.9
		c37.4-42.4,79.2-61,161.5-72.3c38.5-5.2,86.6-19.6,108-33.1c33.2-19.6,172.2-88.8,420.4-209.7c39.6-19.6,80.2-47.5,90.9-62
		c23.5-33.1,54.6-63,97.3-94c17.1-12.4,44.9-48.6,61-80.6c17.1-31,33.2-56.8,37.4-56.8c4.3,0,13.9-28.9,20.3-64
		c15-72.3,38.5-142.6,66.3-189.1c44.9-75.4,51.3-128.1,53.5-432.9l1.1-293.4l-26.7-35.1c-15-18.6-30-47.5-34.2-65.1
		c-4.3-16.5-9.6-39.3-12.8-49.6c-2.1-10.3-40.6-45.5-83.4-78.5c-79.2-59.9-156.2-142.6-190.4-202.5c-9.6-16.5-28.9-70.2-43.9-117.8
		c-24.6-76.4-27.8-105.4-27.8-242.8c0-85.7,4.3-171.5,10.7-191.1c7.5-25.8,6.4-49.6-5.3-87.8c-20.3-71.3-22.5-194.2-4.3-331.6
		c7.5-62,13.9-148.8,15-192.1c0-71.3-3.2-84.7-42.8-155c-40.6-73.3-41.7-80.6-46-194.2c-3.2-72.3,0-133.3,7.5-158.1
		c17.1-53.7,18.2-334.7,2.1-375c-15-35.1,0-73.3,32.1-82.6c9.6-3.1,24.6-13.4,32.1-21.7c21.4-24.8-4.3-39.3-156.2-86.8
		c-76-23.8-170.1-57.9-208.6-76.4c-38.5-18.6-102.7-45.5-143.3-58.9c-71.7-23.8-145.5-78.5-145.5-107.4
		c0-16.5-172.2-203.5-200-216.9c-73.8-36.2-73.8-64-1.1-117.8c31-23.8,104.8-77.5,163.7-119.8c58.8-43.4,110.2-85.7,115.5-93
		c13.9-24.8-11.8-55.8-56.7-67.1c-34.2-9.3-46-18.6-58.8-46.5c-17.1-41.3-50.3-47.5-92-17.6c-13.9,10.3-49.2,32-79.2,47.5
		c-72.7,40.3-107,72.3-140.1,134.3c-47.1,86.8-108,150.8-144.4,150.8c-24.6,0-35.3-8.3-55.6-43.4c-15-24.8-30-70.2-33.2-101.2
		c-4.3-31-12.8-62-19.3-69.2c-17.1-19.6-54.6-16.5-76,8.3c-12.8,13.4-28.9,19.6-48.1,17.6c-23.5-2.1-30-9.3-32.1-37.2
		c-3.2-27.9,4.3-39.3,46-76.4c26.7-23.8,70.6-72.3,97.3-108.5c52.4-70.2,79.2-89.9,110.2-80.6c48.1,14.5,33.2,62-36.4,115.7
		c-38.5,30-50.3,71.3-22.5,81.6c7.5,3.1,58.8-17.6,114.5-45.5c83.4-41.3,107-58.9,135.9-99.2c47.1-68.2,44.9-101.2-7.5-151.9
		c-49.2-47.5-76-50.6-181.9-19.6c-134.8,38.2-273.8,145.7-348.7,269.6c-43.9,71.3-48.1,83.7-48.1,147.7c0,78.5-16,110.5-64.2,130.2
		c-38.5,15.5-88.8,85.7-119.8,167.4c-24.6,68.2-34.2,77.5-56.7,59.9c-23.5-18.6-20.3-118.8,6.4-202.5
		c28.9-94,181.9-395.7,239.6-474.2c68.5-91.9,186.1-200.4,269.6-245.9c92-50.6,210.7-81.6,302.7-79.5
		c238.5,6.2,344.5-2.1,377.6-28.9c22.5-18.6,23.5-52.7,2.1-119.8c-8.6-27.9-16-80.6-16-117.8c0-36.2-8.6-114.7-18.2-174.6
		c-19.3-116.7-15-139.5,27.8-145.7c12.8-2.1,30,2.1,38.5,8.3c26.7,21.7,77,138.4,83.4,194.2c6.4,55.8,33.2,101.2,82.4,143.6
		c26.7,22.7,74.9,32,74.9,14.5c0-4.1,30-17.6,67.4-30c36.4-11.4,97.3-34.1,135.9-49.6c64.2-25.8,80.2-27.9,211.8-26.9
		c157.2,1,178.6,5.2,194.7,33.1c6.4,11.4,28.9,24.8,51.3,31c59.9,14.5,426.8,18.6,472.8,4.1c20.3-7.2,81.3-18.6,133.7-25.8
		c54.6-7.2,117.7-22.7,146.6-37.2c27.8-12.4,66.3-23.8,85.6-23.8c20.3,0,72.7-13.4,117.7-30c68.5-25.8,87.7-28.9,118.7-20.7
		c70.6,18.6,235.3-24.8,388.3-102.3c143.3-71.3,224.6-148.8,292-274.8c73.8-138.4,85.6-194.2,61-287.2
		c-24.6-90.9-59.9-153.9-128.4-225.2c-161.5-169.4-381.9-249-696.4-252.1c-102.7,0-139.1,3.1-180.8,19.6
		c-43.9,16.5-57.8,17.6-98.4,7.2c-66.3-17.6-105.9-15.5-191.5,9.3c-74.9,21.7-96.3,25.8-283.5,56.8c-55.6,9.3-149.8,27.9-208.6,41.3
		c-58.8,13.4-147.6,28.9-197.9,34.1c-50.3,5.2-103.8,14.5-119.8,20.7s-72.7,17.6-126.2,26.9c-53.5,9.3-113.4,23.8-133.7,33.1
		c-54.6,24.8-90.9,7.2-90.9-44.4c0-50.6,36.4-81.6,156.2-132.2c52.4-22.7,148.7-65.1,212.9-94c278.1-126,710.3-263.4,830.1-263.4
		c26.7,0,63.1-5.2,80.2-10.3c17.1-6.2,94.1-12.4,170.1-15.5c77-3.1,156.2-6.2,176.5-7.2s76,4.1,123,11.4
		c47.1,7.2,172.2,16.5,278.1,21.7c105.9,4.1,231.1,14.5,278.1,23.8c47.1,8.3,133.7,23.8,192.6,33.1
		c133.7,22.7,491,119.8,558.4,153.9c94.1,45.5,276,109.5,356.2,125c20.3,4.1,59.9,14.5,88.8,22.7c39.6,12.4,69.5,14.5,140.1,6.2
		c104.8-10.3,134.8-4.1,268.5,57.9c52.4,23.8,121.9,48.6,155.1,54.8c32.1,5.2,65.3,15.5,72.7,21.7c20.3,15.5,40.6,67.1,49.2,120.9
		c4.3,25.8,16,62,27.8,80.6c11.8,18.6,31,64,43.9,103.3c12.8,38.2,35.3,88.8,49.2,112.6s43.9,89.9,66.3,146.7
		c22.5,56.8,67.4,145.7,99.5,199.4c33.2,52.7,68.5,110.5,79.2,129.1c56.7,91.9,150.8,219,162.6,219c6.4,1,12.8,8.3,12.8,17.6
		c0,23.8,181.9,201.4,267.4,261.4c134.8,95,289.9,156,396.9,156c77,0,155.1-57.9,261-191.1c44.9-57.9,62-90.9,82.4-160.1
		c24.6-83.7,25.7-97.1,18.2-268.6c-8.6-184.9-10.7-196.3-71.7-356.4c-32.1-86.8-103.8-209.7-166.9-289.3
		c-44.9-56.8-88.8-90.9-269.6-204.5c-188.3-117.8-272.8-159.1-362.6-173.6c-115.5-18.6-377.6,2.1-440.7,35.1
		c-19.3,10.3-57.8,17.6-88.8,17.6c-64.2,0-96.3-24.8-96.3-72.3c0-50.6,37.4-78.5,134.8-97.1c46-9.3,109.1-21.7,138-27.9
		c42.8-8.3,64.2-7.2,107,5.2c98.4,30,149.8,16.5,232.1-58.9c58.8-53.7,74.9-96.1,44.9-117.8c-10.7-7.2-26.7-11.4-34.2-8.3
		c-23.5,8.3-105.9-31-125.2-61c-12.8-18.6-16-37.2-11.8-59.9c21.4-97.1,20.3-106.4-8.6-120.9c-15-8.3-48.1-41.3-74.9-74.4
		c-26.7-33.1-62-67.1-78.1-75.4c-47.1-22.7-156.2-40.3-212.9-33.1c-115.5,14.5-248.2,17.6-289.9,7.2
		c-99.5-25.8-138-78.5-258.9-350.2c-127.3-285.1-131.6-294.4-199-405c-28.9-48.6-68.5-122.9-86.6-165.3
		c-56.7-131.2-79.2-175.6-110.2-209.7c-16-18.6-49.2-62-73.8-97.1c-24.6-35.1-102.7-120.9-172.2-191.1
		c-70.6-70.2-139.1-140.5-151.9-158.1c-13.9-16.5-109.1-114.7-211.8-218c-103.8-102.3-207.5-208.7-230-237.6
		c-66.3-79.5-141.2-131.2-296.3-204.5c-172.2-79.5-236.4-106.4-384-156l-112.3-38.2l-256.7-7.2c-320.9-8.3-417.2,2.1-549.8,58.9
		c-142.3,62-215,91.9-284.5,116.7c-35.3,12.4-68.5,25.8-74.9,30c-5.3,4.1-23.5,10.3-39.6,14.5c-16,3.1-59.9,20.7-96.3,37.2
		c-85.6,38.2-301.7,115.7-399,143.6c-40.6,11.4-117.7,33.1-171.2,47.5c-102.7,30-208.6,74.4-278.1,119.8
		c-23.5,14.5-62,37.2-85.6,48.6c-58.8,30-165.8,132.2-267.4,255.2c-47.1,55.8-92,109.5-101.6,118.8c-40.6,39.3-78.1,96.1-143.3,219
		c-37.4,72.3-77,142.6-87.7,158.1c-9.6,14.5-24.6,50.6-32.1,80.6c-31,124-61,211.8-85.6,254.1c-13.9,24.8-35.3,80.6-47.1,124
		c-10.7,43.4-28.9,99.2-38.5,125s-21.4,81.6-25.7,125c-19.3,170.5-86.6,318.2-200,432.9c-36.4,38.2-76,89.9-87.7,115.7
		c-13.9,32-37.4,58.9-76,85.7c-31,21.7-72.7,63-93.1,91.9c-19.3,28.9-50.3,71.3-67.4,94c-34.2,45.5-55.6,117.8-43.9,152.9
		c12.8,42.4,27.8,55.8,94.1,88.8c49.2,23.8,68.5,39.3,73.8,58.9c13.9,53.7-35.3,54.8-153,4.1c-65.3-28.9-99.5-66.1-99.5-108.5
		c0-9.3-9.6-34.1-21.4-56.8c-37.4-71.3-20.3-308.9,26.7-379.1c15-21.7,23.5-23.8,86.6-22.7c62,2.1,73.8-1,115.5-31
		c26.7-17.6,51.3-32,56.7-32c17.1,0,142.3-145.7,149.8-173.6c3.2-15.5,21.4-54.8,38.5-87.8c23.5-42.4,34.2-79.5,37.4-124
		c2.1-35.1,20.3-111.6,40.6-170.5c19.3-58.9,40.6-136.4,47.1-173.6c11.8-68.2,28.9-117.8,80.2-224.2c15-33.1,26.7-72.3,24.6-87.8
		c-5.3-48.6-39.6-40.3-130.5,31c-46,36.2-97.3,75.4-114.5,87.8c-18.2,12.4-51.3,39.3-74.9,58.9c-28.9,25.8-52.4,37.2-74.9,37.2
		s-42.8,10.3-66.3,33.1c-61,59.9-186.1,126-218.2,114.7c-19.3-7.2-17.1-53.7,3.2-62c8.6-3.1,33.2-26.9,53.5-52.7
		s67.4-67.1,104.8-90.9c37.4-24.8,78.1-57.9,90.9-75.4c26.7-36.2,182.9-138.4,240.7-158.1c27.8-9.3,64.2-38.2,110.2-85.7
		c38.5-39.3,84.5-81.6,103.8-93c101.6-61,154-129.1,156.2-203.5c0-16.5,21.4-54.8,53.5-96.1c30-37.2,61-81.6,68.5-97.1
		c8.6-15.5,35.3-41.3,59.9-57.9s65.3-55.8,90.9-87.8c55.6-69.2,103.8-114.7,169-158.1c69.5-47.5,129.4-94,133.7-103.3
		c2.1-4.1,23.5-32,46-62c34.2-42.4,40.6-58.9,35.3-79.5c-4.3-14.5-8.6-45.5-9.6-69.2c-1.1-65.1-21.4-79.5-120.9-85.7
		c-72.7-4.1-114.5,0-245,26.9c-34.2,6.2-31,41.3,4.3,59.9c21.4,10.3,33.2,26.9,40.6,58.9c7.5,30,20.3,49.6,36.4,57.9
		c48.1,22.7,56.7,57.9,20.3,76.4c-20.3,10.3-27.8,6.2-68.5-36.2c-57.8-58.9-85.6-61-160.5-11.4c-39.6,25.8-56.7,45.5-62,67.1
		c-3.2,20.7-19.3,38.2-47.1,55.8c-22.5,13.4-50.3,38.2-61,53.7c-24.6,36.2-48.1,56.8-117.7,102.3c-28.9,18.6-117.7,95-194.7,169.4
		c-78.1,74.4-160.5,145.7-181.9,160.1c-22.5,13.4-79.2,59.9-126.2,103.3c-64.2,58.9-93.1,78.5-115.5,78.5
		c-37.4,0-57.8-41.3-37.4-77.5c7.5-12.4,28.9-50.6,47.1-83.7c19.3-34.1,43.9-69.2,56.7-80.6c11.8-10.3,25.7-36.2,28.9-56.8
		c9.6-52.7,27.8-82.6,79.2-130.2c24.6-22.7,51.3-53.7,59.9-70.2c8.6-15.5,40.6-42.4,71.7-58.9c31-16.5,70.6-44.4,87.7-62
		c17.1-16.5,36.4-31,42.8-31c22.5,0,145.5-75.4,171.2-105.4c15-16.5,31-49.6,38.5-72.3c6.4-23.8,23.5-57.9,37.4-75.4
		c13.9-18.6,25.7-38.2,25.7-44.4c0-19.6,44.9-43.4,70.6-37.2c32.1,8.3,64.2-23.8,79.2-77.5c6.4-22.7,16-44.4,21.4-47.5
		c6.4-3.1,10.7-20.7,10.7-37.2c0-53.7-34.2-58.9-153-20.7c-83.4,26.9-105.9,39.3-132.6,71.3c-18.2,20.7-59.9,52.7-94.1,69.2
		c-33.2,17.6-77,48.6-96.3,69.2c-20.3,20.7-63.1,54.8-96.3,74.4c-72.7,45.5-255.7,223.1-283.5,274.8
		c-11.8,21.7-28.9,70.2-38.5,109.5s-28.9,85.7-42.8,104.3c-13.9,17.6-32.1,50.6-39.6,72.3c-15,45.5-50.3,56.8-82.4,28.9
		c-31-26.9-67.4-16.5-79.2,22.7c-7.5,28.9-5.3,40.3,19.3,75.4c33.2,48.6,34.2,63,7.5,86.8c-40.6,36.2-130.5,222.1-136.9,284.1
		c-4.3,32-18.2,78.5-32.1,103.3c-12.8,24.8-24.6,52.7-24.6,62c0,25.8-21.4,42.4-55.6,42.4c-40.6,0-56.7-37.2-40.6-95
		c12.8-45.5,2.1-70.2-32.1-70.2c-26.7,0-40.6,20.7-49.2,72.3c-4.3,24.8-13.9,56.8-21.4,71.3c-8.6,16.5-11.8,41.3-7.5,65.1
		c4.3,31,2.1,39.3-9.6,39.3c-21.4,0-51.3,33.1-51.3,57.9c0,11.4,9.6,48.6,20.3,82.6c11.8,33.1,23.5,73.3,26.7,87.8
		c8.6,36.2,34.2,44.4,59.9,19.6c18.2-17.6,21.4-35.1,21.4-106.4s3.2-89.9,19.3-103.3c43.9-38.2,87.7-16.5,119.8,58.9
		c24.6,61,22.5,94-10.7,104.3c-30,9.3-71.7,53.7-80.2,85.7c-11.8,47.5-35.3,64-92,64c-27.8,0-62-4.1-76-9.3
		c-38.5-13.4-69.5,3.1-78.1,42.4c-11.8,53.7-46,101.2-73.8,101.2c-66.3,0-65.3-79.5,5.3-265.5c10.7-30,32.1-100.2,47.1-157
		c32.1-122.9,83.4-268.6,118.7-331.6c32.1-59.9,155.1-318.2,187.2-395.7c13.9-33.1,48.1-85.7,77-116.7c27.8-32,61-76.4,72.7-100.2
		c12.8-23.8,30-50.6,37.4-59.9c8.6-9.3,39.6-62,68.5-116.7c28.9-54.8,76-126,103.8-157c181.9-204.5,298.5-318.2,420.4-409.1
		c20.3-15.5,85.6-65.1,144.4-111.6c98.4-75.4,172.2-113.6,220.4-113.6c10.7,0,139.1-28.9,284.5-63c204.3-48.6,301.7-67.1,420.4-77.5
		c85.6-8.3,186.1-18.6,224.6-24.8s94.1-13.4,123-16.5c30-2.1,68.5-8.3,85.6-13.4c18.2-5.2,81.3-12.4,142.3-15.5
		s130.5-10.3,155.1-15.5c68.5-14.5,299.5-42.4,353-42.4c25.7,0,72.7-5.2,104.8-10.3c32.1-6.2,277.1-15.5,544.5-21.7
		c267.4-5.2,561.6-14.5,652.5-20.7c90.9-5.2,481.4-12.4,866.5-15.5c669.6-5.2,704.9-4.1,791.6,15.5c50.3,11.4,148.7,33.1,219.3,47.5
		c257.8,55.8,258.9,56.8,357.3,160.1c47.1,50.6,86.6,97.1,86.6,104.3c0,35.1,56.7,103.3,104.8,127.1
		c49.2,23.8,79.2,33.1,349.8,115.7l128.4,38.2l97.3,96.1c68.5,67.1,102.7,109.5,114.5,140.5c39.6,108.5,61,183.9,70.6,245.9
		c16,102.3,65.3,329.5,98.4,454.5c10.7,42.4,27.8,112.6,36.4,155s20.3,94,26.7,113.6c5.3,19.6,10.7,54.8,10.7,78.5
		c0,22.7,7.5,65.1,16,93c8.6,27.9,16,77.5,16,109.5c0,33.1,7.5,80.6,16,106.4c13.9,38.2,16,93,13.9,298.6l-3.2,251l-41.7,77.5
		l-41.7,78.5l11.8,76.4c6.4,41.3,8.6,87.8,5.3,101.2c-8.6,33.1-54.6,98.1-103.8,146.7c-31,31-37.4,42.4-28.9,57.9
		c6.4,10.3,66.3,40.3,142.3,69.2c258.9,98.1,289.9,117.8,508.1,314.1c274.9,246.9,411.8,508.3,469.6,897.7
		c10.7,77.5,11.8,117.8,4.3,145.7c-5.3,21.7-9.6,66.1-8.6,100.2c1.1,57.9-16,152.9-52.4,283.1c-27.8,100.2-158.3,339.9-218.2,402.9
		c-30,31-62,68.2-71.7,81.6c-18.2,25.8-234.3,168.4-293.1,191.1c-20.3,8.3-78.1,22.7-129.4,32c-89.9,16.5-98.4,16.5-209.7-4.1
		c-63.1-12.4-133.7-21.7-157.2-22.7c-53.5,0-99.5-23.8-274.9-137.4c-111.3-73.3-173.3-124-291-238.6
		c-208.6-202.5-304.9-317.1-369.1-439.1c-12.8-25.8-26.7-48.6-31-51.7c-22.5-18.6-88.8-129.1-109.1-186c-13.9-37.2-42.8-93-65.3-125
		c-44.9-64-69.5-119.8-104.8-236.6c-12.8-42.4-42.8-131.2-65.3-196.3c-21.4-65.1-48.1-145.7-57.8-178.7
		c-11.8-43.4-23.5-63-42.8-71.3c-34.2-14.5-95.2-2.1-127.3,25.8c-79.2,69.2-184,275.8-252.5,497.9c-28.9,93-36.4,136.4-40.6,237.6
		c-4.3,110.5-2.1,127.1,16,148.8c19.3,22.7,26.7,23.8,138,22.7c134.8-2.1,223.6,13.4,248.2,41.3c9.6,10.3,23.5,19.6,31,19.6
		c6.4,0,15,8.3,18.2,18.6c4.3,10.3,28.9,32,56.7,49.6c27.8,16.5,67.4,44.4,88.8,62c20.3,17.6,73.8,55.8,118.7,84.7
		c141.2,93,202.2,167.4,403.3,495.9c37.4,61,77,136.4,87.7,167.4c11.8,31,31,82.6,43.9,113.6c31,77.5,73.8,244.8,73.8,289.3
		c0,69.2-28.9,156-70.6,214.9c-70.6,98.1-81.3,118.8-107,201.4c-19.3,63-84.5,166.3-150.8,239.7c-76,83.7-88.8,106.4-130.5,224.2
		c-51.3,142.6-149.8,345-203.2,416.3c-4.3,6.2-21.4,40.3-38.5,77.5c-16,37.2-53.5,103.3-81.3,146.7c-28.9,43.4-62,101.2-76,129.1
		c-55.6,114.7-115.5,190.1-283.5,354.3c-371.2,365.7-404.4,401.9-446.1,506.2c-55.6,135.3-85.6,180.8-188.3,278.9
		c-163.7,155-154,134.3-158.3,375c-4.3,207.6-2.1,225.2,47.1,461.8c23.5,109.5,35.3,144.6,64.2,186c21.4,31,46,89.9,76,178.7
		c3.2,9.3,9.6,17.6,15,17.6s9.6,6.2,9.6,14.5c0,7.2,7.5,19.6,17.1,27.9c8.6,7.2,27.8,34.1,41.7,59.9
		c47.1,90.9,144.4,178.7,267.4,243.8c30,15.5,65.3,39.3,80.2,51.7c37.4,32,79.2,51.7,171.2,81.6c44.9,14.5,114.5,44.4,155.1,66.1
		c41.7,22.7,156.2,81.6,254.6,131.2c265.3,132.2,507,314.1,660,496.9c77,91.9,77,90.9,129.4,243.8l43.9,127.1l-2.1,237.6
		c-1.1,182.9-4.3,240.7-15,253.1c-8.6,8.3-34.2,53.7-57.8,99.2c-25.7,49.6-57.8,95-79.2,110.5c-67.4,51.7-72.7,58.9-72.7,93
		c1.1,17.6,7.5,49.6,15,69.2c8.6,19.6,24.6,62,37.4,93c33.2,81.6,51.3,111.6,111.3,175.6c28.9,31,69.5,89.9,89.9,129.1
		c20.3,40.3,57.8,100.2,83.4,134.3c54.6,75.4,102.7,166.3,126.2,242.8c9.6,31,49.2,151.9,88.8,268.6c66.3,194.2,71.7,218,71.7,299.6
		c0,48.6-1.1,227.3-1.1,398.8l-2.1,309.9l-48.1,54.8c-26.7,30-48.1,62-48.1,72.3c0,16.5-27.8,45.5-95.2,99.2
		c-21.4,18.6-48.1,21.7-208.6,27.9c-100.6,3.1-200,9.3-220.4,11.4C7189.1,15023.9,7127.1,15017.7,7072.5,15007.4z M7111,14694.3
		c2.1-10.3-10.7-34.1-28.9-54.8c-18.2-19.6-33.2-42.4-33.2-50.6c0-8.3-9.6-19.6-21.4-25.8c-33.2-16.5-64.2,4.1-64.2,43.4
		c0,44.4,72.7,114.7,114.5,109.5C7096,14714,7108.9,14705.7,7111,14694.3z M7352.8,14711.9c27.8-10.3,20.3-52.7-13.9-75.4
		c-40.6-27.9-82.4-27.9-97.3,0C7218,14677.8,7298.2,14732.6,7352.8,14711.9z M4511.6,12290.4c19.3-11.4,39.6-31,43.9-44.4
		c18.2-44.4-28.9-64-78.1-33.1c-31,19.6-64.2,9.3-107-35.1c-27.8-30-34.2-32-80.2-25.8c-55.6,7.2-62,2.1-86.6-57.9
		c-8.6-19.6-31-57.9-50.3-85.7c-24.6-35.1-35.3-63-35.3-89.9c0-22.7-6.4-44.4-17.1-52.7c-15-12.4-20.3-10.3-35.3,10.3
		c-9.6,13.4-31,37.2-48.1,52.7c-48.1,45.5-34.2,70.2,112.3,206.6c99.5,91.9,143.3,125,194.7,146.7
		C4403.5,12316.2,4463.5,12318.3,4511.6,12290.4z M3517.8,12250.1c25.7-57.9-27.8-98.1-76-55.8c-26.7,22.7-24.6,70.2,4.3,89.9
		C3475,12303.8,3500.7,12291.4,3517.8,12250.1z M5877.6,12252.2c43.9-19.6,48.1-41.3,11.8-50.6c-65.3-15.5-123,16.5-93.1,51.7
		C5814.5,12273.9,5830.6,12273.9,5877.6,12252.2z M4692.4,12118.9c65.3-47.5,69.5-54.8,54.6-101.2c-10.7-32-9.6-40.3,4.3-54.8
		c16-14.5,21.4-13.4,65.3,7.2c47.1,22.7,50.3,22.7,77,6.2c16-10.3,38.5-39.3,50.3-64c20.3-45.5,20.3-47.5,1.1-84.7
		c-13.9-27.9-26.7-39.3-48.1-41.3c-23.5-3.1-33.2,4.1-56.7,43.4c-16,25.8-35.3,47.5-42.8,47.5s-28.9-12.4-47.1-26.9
		c-27.8-21.7-36.4-24.8-49.2-14.5c-8.6,7.2-16,27.9-16,45.5c0,61-41.7,75.4-94.1,32c-18.2-14.5-44.9-25.8-59.9-25.8
		c-17.1,0-33.2,9.3-44.9,25.8c-9.6,14.5-24.6,25.8-32.1,25.8c-8.6,0-15,8.3-15,18.6c0,24.8-59.9,46.5-86.6,32
		c-32.1-16.5-23.5-53.7,23.5-106.4c56.7-62,51.3-81.6-20.3-72.3c-38.5,4.1-61,2.1-85.6-10.3c-37.4-18.6-72.7-21.7-82.4-6.2
		c-3.2,6.2-2.1,25.8,4.3,44.4c5.3,17.6,18.2,65.1,28.9,103.3c21.4,84.7,36.4,95,135.9,95c44.9,0,76,5.2,80.2,12.4
		s34.2,23.8,66.3,37.2c32.1,14.5,68.5,35.1,79.2,47.5C4611.1,12165.4,4634.6,12161.3,4692.4,12118.9z M2821.4,12028
		c5.3-24.8-52.4-81.6-120.9-119.8c-28.9-16.5-70.6-46.5-90.9-67.1s-56.7-46.5-80.2-56.8c-23.5-11.4-66.3-36.2-95.2-56.8
		c-54.6-38.2-92-45.5-113.4-20.7s-3.2,50.6,57.8,80.6c31,15.5,99.5,56.8,151.9,90.9s119.8,76.4,148.7,96.1
		c30,18.6,63.1,44.4,73.8,56.8C2777.6,12058,2816.1,12055.9,2821.4,12028z M1850.1,12011.5c11.8-11.4,21.4-32,21.4-46.5
		c0-16.5,16-41.3,42.8-68.2c41.7-41.3,53.5-74.4,32.1-86.8c-21.4-12.4-54.6,7.2-74.9,45.5c-21.4,42.4-55.6,57.9-86.6,42.4
		c-25.7-13.4-47.1-4.1-62,26.9c-18.2,38.2-15,83.7,7.5,96.1C1762.4,12039.4,1826.6,12034.2,1850.1,12011.5z M7209.4,11954.7
		c-7.5-8.3-17.1-15.5-22.5-15.5c-13.9,0-11.8,24.8,3.2,39.3C7209.4,11997,7227.6,11975.3,7209.4,11954.7z M1580.5,11885.4
		c18.2-17.6,16-66.1-3.2-84.7c-35.3-34.1-70.6,15.5-49.2,69.2C1539.9,11899.9,1559.2,11906.1,1580.5,11885.4z M1751.7,11836.9
		c13.9-37.2-5.3-78.5-35.3-78.5c-27.8,0-34.2,48.6-10.7,83.7C1727.1,11874.1,1738.9,11873,1751.7,11836.9z M6325.8,11844.1
		c31-42.4,15-111.6-25.7-111.6c-35.3,0-72.7,102.3-46,127.1C6269.1,11875.1,6310.9,11865.8,6325.8,11844.1z M4648.5,11758.4
		c-9.6-24.8-53.5-15.5-57.8,12.4c-2.1,14.5,3.2,23.8,16,25.8C4632.5,11802.8,4657.1,11780.1,4648.5,11758.4z M3797,11732.6
		c34.2-33.1,8.6-79.5-68.5-120.9c-64.2-35.1-96.3-42.4-108-22.7c-20.3,31,46,124,107,149.8
		C3770.3,11756.3,3772.4,11756.3,3797,11732.6z M1870.4,11724.3c12.8-23.8-2.1-48.6-24.6-40.3c-25.7,10.3-21.4,58.9,5.3,58.9
		C1856.5,11742.9,1865.1,11734.6,1870.4,11724.3z M4040.9,11721.2c4.3-21.7-27.8-52.7-49.2-48.6c-22.5,4.1-38.5,33.1-31,53.7
		C3970.3,11750.1,4035.6,11744.9,4040.9,11721.2z M5894.7,11732.6c27.8-15.5,26.7-64-4.3-99.2c-20.3-22.7-31-26.9-53.5-20.7
		c-27.8,6.2-61,51.7-61,82.6C5776,11731.5,5849.8,11755.3,5894.7,11732.6z M1990.2,11717.1c-1.1-15.5-25.7-12.4-31,3.1
		c-3.2,9.3,2.1,13.4,12.8,10.3C1982.8,11729.5,1990.2,11723.3,1990.2,11717.1z M2930.5,11645.8c0-16.5-12.8-33.1-40.6-50.6
		c-22.5-15.5-58.8-46.5-82.4-69.2c-48.1-47.5-80.2-54.8-80.2-16.5c0,17.6,22.5,44.4,78.1,93
		C2887.7,11674.7,2930.5,11690.2,2930.5,11645.8z M5587.7,11648.9c32.1-14.5,42.8-38.2,26.7-56.8c-6.4-7.2-37.4-25.8-68.5-41.3
		c-46-21.7-61-23.8-79.2-14.5c-27.8,14.5-27.8,24.8,1.1,65.1C5509.6,11661.3,5535.3,11671.6,5587.7,11648.9z M4112.6,11618.9
		c0-18.6-6.4-26.9-23.5-28.9c-19.3-3.1-24.6,1-24.6,21.7c0,28.9,9.6,40.3,32.1,36.2C4106.2,11645.8,4112.6,11633.4,4112.6,11618.9z
		 M6362.2,11606.5c4.3-39.3-15-70.2-44.9-70.2c-39.6,0-47.1,50.6-13.9,90.9C6322.6,11649.9,6359,11637.5,6362.2,11606.5z
		 M2116.5,11604.5c15-17.6-22.5-68.2-51.3-68.2c-21.4,0-43.9,19.6-43.9,37.2C2021.3,11610.7,2091.9,11633.4,2116.5,11604.5z
		 M3170.2,11549.7c38.5-89.9,43.9-119.8,25.7-134.3s-26.7-9.3-66.3,42.4c-47.1,61-53.5,161.2-8.6,161.2
		C3134.9,11618.9,3148.8,11599.3,3170.2,11549.7z M3505,11602.4c8.6-21.7-25.7-91.9-69.5-142.6c-33.2-37.2-36.4-46.5-31-91.9
		c6.4-67.1-5.3-76.4-84.5-69.2l-63.1,5.2l-3.2,38.2c-3.2,35.1,1.1,41.3,49.2,75.4c28.9,19.6,58.8,49.6,66.3,67.1
		c7.5,16.5,20.3,36.2,28.9,42.4c8.6,7.2,24.6,31,36.4,52.7C3455.8,11621,3492.1,11633.4,3505,11602.4z M6062.7,11587.9
		c2.1-15.5-10.7-46.5-28.9-74.4c-39.6-59.9-80.2-68.2-98.4-21.7c-17.1,43.4-7.5,67.1,38.5,98.1
		C6026.3,11625.1,6058.4,11624.1,6062.7,11587.9z M5236.9,11600.3c33.2-21.7,21.4-95-15-95c-42.8,0-61,55.8-27.8,86.8
		C5212.3,11610.7,5219.7,11611.7,5236.9,11600.3z M1799.8,11585.9c7.5-21.7-4.3-39.3-25.7-39.3c-15,0-20.3,7.2-20.3,25.8
		s5.3,25.8,20.3,25.8C1785.9,11598.3,1796.6,11592.1,1799.8,11585.9z M5728.9,11510.4c-3.2-9.3-15-15.5-24.6-13.4
		c-23.5,4.1-32.1,39.3-11.8,50.6C5711.8,11559,5738.6,11532.1,5728.9,11510.4z M3810.9,11476.4c30-27.9,37.4-62,17.1-81.6
		c-6.4-6.2-32.1-8.3-57.8-5.2c-43.9,4.1-48.1,2.1-68.5-30c-32.1-53.7-41.7-61-78.1-61c-25.7,0-42.8-10.3-73.8-42.4
		c-42.8-44.4-82.4-52.7-74.9-14.5c2.1,11.4,4.3,40.3,5.3,64c2.1,51.7,3.2,51.7,86.6,95c35.3,18.6,81.3,48.6,101.6,68.2
		C3728.6,11522.8,3757.4,11524.9,3810.9,11476.4z M5395.2,11499.1c24.6-9.3,21.4-20.7-21.4-104.3c-39.6-77.5-57.8-90.9-104.8-79.5
		c-20.3,5.2-39.6-1-70.6-20.7c-51.3-33.1-58.8-33.1-79.2-4.1c-19.3,26.9-22.5,73.3-6.4,102.3c13.9,23.8,62,25.8,92,4.1
		c43.9-32,93.1-9.3,110.2,52.7c4.3,16.5,19.3,36.2,34.2,42.4C5380.2,11507.3,5374.9,11506.3,5395.2,11499.1z M6171.8,11489.8
		c20.3-23.8,4.3-46.5-32.1-46.5c-19.3,0-35.3,6.2-38.5,15.5c-8.6,19.6,13.9,46.5,38.5,46.5
		C6150.4,11505.3,6164.3,11498,6171.8,11489.8z M5829.5,11431.9c6.4-10.3,10.7-33.1,10.7-50.6c0-23.8-6.4-34.1-26.7-43.4
		c-36.4-15.5-53.5,1-53.5,52.7C5760,11456.7,5802.7,11481.5,5829.5,11431.9z M2651.3,11418.5c26.7-31-49.2-125-96.3-117.8
		c-40.6,5.2-36.4,34.1,12.8,85.7C2615,11435,2631,11442.3,2651.3,11418.5z M3978.9,11376.1c10.7-12.4,10.7-28.9-1.1-80.6
		c-23.5-103.3-97.3-160.1-150.8-113.6c-10.7,9.3-19.3,21.7-19.3,28.9c0,6.2-11.8,22.7-26.7,36.2c-52.4,47.5-25.7,93,42.8,73.3
		c43.9-11.4,76,2.1,96.3,39.3C3938.2,11394.7,3958.5,11399.9,3978.9,11376.1z M3046.1,11358.6c7.5-7.2,12.8-21.7,12.8-34.1
		s6.4-31,15-42.4c13.9-16.5,19.3-17.6,37.4-6.2c32.1,17.6,49.2,15.5,82.4-11.4c19.3-16.5,26.7-30,22.5-42.4
		c-11.8-27.9-38.5-31-65.3-7.2c-27.8,25.8-41.7,26.9-59.9,6.2c-23.5-26.9-61-18.6-84.5,19.6c-21.4,33.1-31,108.5-15,122.9
		C3002.2,11375.1,3032.2,11372,3046.1,11358.6z M5669,11323.5c0-15.5-6.4-24.8-16-24.8c-16,0-22.5,41.3-9.6,54.8
		C5656.2,11364.8,5669,11350.3,5669,11323.5z M5068.9,11242.9c20.3-23.8-3.2-55.8-48.1-64c-32.1-6.2-42.8-3.1-66.3,19.6
		c-22.5,22.7-24.6,28.9-12.8,42.4C4958.7,11262.5,5051.8,11263.5,5068.9,11242.9z M4219.6,11210.9c0-23.8-4.3-31-21.4-31
		c-22.5,0-33.2,25.8-22.5,52.7C4187.5,11261.5,4219.6,11244.9,4219.6,11210.9z M5474.3,11156.1c3.2-17.6-2.1-22.7-18.2-22.7
		c-17.1,0-22.5,6.2-22.5,26.9C5433.7,11194.3,5469,11191.2,5474.3,11156.1z M3626.9,11123c10.7-28.9,16-31,64.2-31
		c43.9,0,54.6-4.1,70.6-26.9c17.1-25.8,17.1-27.9-1.1-41.3c-11.8-7.2-32.1-11.4-50.3-7.2c-32.1,6.2-38.5-3.1-43.9-78.5
		c-2.1-24.8-11.8-41.3-33.2-56.8c-25.7-18.6-31-19.6-46-5.2c-13.9,13.4-13.9,22.7-3.2,63c11.8,40.3,10.7,53.7-4.3,93
		c-22.5,56.8-22.5,79.5,0,103.3C3604.5,11161.3,3614.1,11159.2,3626.9,11123z M3127.4,11103.4c24.6-25.8,18.2-56.8-12.8-61
		c-31-4.1-55.6,14.5-55.6,44.4C3058.9,11128.2,3096.3,11137.5,3127.4,11103.4z M3405.5,11116.8c22.5-8.3,22.5-65.1,0-73.3
		c-8.6-3.1-24.6,1-34.2,10.3c-13.9,13.4-13.9,21.7-4.3,43.4C3380.9,11125.1,3380.9,11126.1,3405.5,11116.8z M4957.7,11082.8
		c8.6-26.9-2.1-47.5-32.1-63c-50.3-25.8-82.4,34.1-35.3,66.1C4922.4,11107.5,4949.1,11106.5,4957.7,11082.8z M3998.1,11064.2
		c-4.3-20.7-37.4-31-53.5-15.5c-16,15.5,0,33.1,30,33.1C3994.9,11081.7,4001.3,11076.6,3998.1,11064.2z M4788.6,11048.7
		c42.8-39.3,26.7-90.9-28.9-90.9c-15,0-33.2,5.2-40.6,12.4c-13.9,13.4-18.2,82.6-5.3,94C4727.7,11078.6,4764,11070.4,4788.6,11048.7
		z M4335.1,11001.1c46-48.6,26.7-125-27.8-111.6c-20.3,4.1-31,16.5-40.6,46.5C4245.2,11004.2,4291.2,11047.6,4335.1,11001.1z
		 M3972.4,10855.5c62-13.4,64.2-67.1,4.3-87.8c-46-15.5-80.2,0-111.3,50.6c-21.4,37.2-25.7,49.6-15,61c10.7,12.4,18.2,12.4,51.3-1
		C3923.2,10868.9,3955.3,10858.6,3972.4,10855.5z M4663.5,10880.3c28.9-34.1-15-133.3-56.7-127.1c-28.9,4.1-30,44.4-4.3,104.3
		C4620.7,10897.8,4641,10906.1,4663.5,10880.3z M4861.4,10758.4c15-54.8-40.6-116.7-73.8-83.7c-21.4,19.6-21.4,26.9-2.1,71.3
		C4804.7,10790.4,4851.8,10797.6,4861.4,10758.4z M3694.3,10724.3c24.6-9.3,21.4-32-11.8-100.2c-32.1-65.1-52.4-76.4-113.4-65.1
		c-35.3,7.2-167.9,83.7-167.9,97.1c0,5.2,6.4,16.5,13.9,26.9c13.9,18.6,16,17.6,58.8-3.1c65.3-32,101.6-28.9,142.3,14.5
		C3650.5,10730.5,3663.3,10735.6,3694.3,10724.3z M4995.1,10670.6c0-41.3-56.7-90.9-89.9-78.5c-25.7,9.3-20.3,40.3,13.9,75.4
		C4959.8,10708.8,4995.1,10710.9,4995.1,10670.6z M3979.9,10621c11.8-14.5,7.5-20.7-28.9-51.7c-48.1-40.3-93.1-44.4-98.4-7.2
		c-2.1,16.5,7.5,30,37.4,48.6C3936.1,10641.6,3959.6,10643.7,3979.9,10621z M4181,10536.3c12.8-22.7-7.5-66.1-54.6-119.8
		c-46-50.6-127.3-76.4-165.8-51.7c-53.5,33.1-10.7,99.2,73.8,113.6c20.3,4.1,49.2,21.7,69.5,41.3
		C4142.5,10559,4166.1,10564.2,4181,10536.3z M3745.7,10446.4c0-5.2-5.3-11.4-11.8-13.4c-6.4-2.1-11.8,4.1-11.8,13.4
		c0,9.3,5.3,15.5,11.8,13.4C3740.3,10457.8,3745.7,10451.6,3745.7,10446.4z M4822.9,10421.6c8.6-14.5,5.3-32-10.7-68.2
		c-17.1-36.2-19.3-50.6-9.6-56.8c6.4-4.1,10.7-22.7,8.6-42.4c-2.1-30-7.5-35.1-32.1-38.2c-23.5-3.1-32.1,2.1-40.6,23.8
		c-18.2,46.5-11.8,88.8,22.5,145.7C4796.1,10445.4,4806.8,10451.6,4822.9,10421.6z M4265.6,10386.5c4.3-33.1-36.4-88.8-64.2-88.8
		c-31-1-25.7,66.1,7.5,98.1C4242,10426.8,4261.3,10423.7,4265.6,10386.5z M4602.5,10377.2c6.4-19.6-3.2-39.3-19.3-39.3
		c-19.3,0-30,17.6-22.5,36.2C4568.3,10392.7,4596.1,10394.7,4602.5,10377.2z M3668.6,10281.1c0-34.1-61-31-72.7,3.1
		c-2.1,8.3,9.6,12.4,34.2,12.4C3657.9,10296.6,3668.6,10292.5,3668.6,10281.1z M4047.3,10273.9c3.2-13.4,6.4-37.2,6.4-52.7
		c0-43.4,25.7-83.7,80.2-126c58.8-46.5,61-71.3,10.7-95c-35.3-16.5-38.5-15.5-57.8,1c-11.8,10.3-22.5,33.1-24.6,50.6
		c-5.3,48.6-33.2,58.9-70.6,24.8c-16-15.5-35.3-27.9-41.7-27.9c-13.9,0-26.7,28.9-18.2,42.4c9.6,15.5-17.1,40.3-42.8,40.3
		c-12.8,0-41.7,12.4-65.3,27.9c-71.7,46.5-86.6,76.4-47.1,97.1c19.3,9.3,26.7,7.2,51.3-15.5c16-14.5,36.4-26.9,46-26.9
		c17.1,0,72.7,55.8,72.7,73.3c0,5.2,21.4,9.3,47.1,9.3C4033.4,10296.6,4042,10292.5,4047.3,10273.9z M4299.8,10212.9
		c6.4-10.3,10.7-27.9,10.7-40.3c0-11.4,7.5-36.2,17.1-52.7c15-28.9,19.3-31,56.7-24.8s44.9,3.1,90.9-37.2
		c49.2-43.4,59.9-70.2,36.4-89.9c-21.4-16.5-72.7-3.1-72.7,19.6c0,12.4-7.5,19.6-21.4,19.6c-12.8,0-31,14.5-44.9,36.2
		c-22.5,33.1-27.8,36.2-62,31c-30-5.2-44.9-1-68.5,16.5c-27.8,21.7-30,26.9-23.5,75.4C4227,10239.8,4270.9,10265.6,4299.8,10212.9z
		 M3552,10203.6c43.9-23.8,13.9-76.4-40.6-70.2c-36.4,4.1-48.1,45.5-18.2,67.1C3516.7,10217.1,3525.3,10217.1,3552,10203.6z
		 M4604.7,10121c0-33.1-2.1-36.2-32.1-36.2c-25.7,0-33.2,5.2-35.3,24.8c-3.2,16.5,3.2,31,15,39.3
		C4584.3,10171.6,4604.7,10161.3,4604.7,10121z M3732.8,10027c35.3-37.2,44.9-42.4,70.6-36.2c71.7,17.6,90.9,18.6,104.8,7.2
		c21.4-17.6,32.1-87.8,17.1-113.6c-9.6-19.6-18.2-20.7-68.5-15.5c-49.2,6.2-59.9,4.1-80.2-15.5c-27.8-26.9-39.6-71.3-25.7-93
		c7.5-10.3,23.5-15.5,44.9-13.4c108,8.3,100.6,9.3,119.8-28.9c9.6-19.6,27.8-45.5,40.6-55.8c26.7-23.8,28.9-54.8,5.3-86.8
		c-20.3-27.9-58.8-28.9-84.5-2.1c-10.7,11.4-52.4,31-92,42.4c-64.2,18.6-73.8,25.8-90.9,58.9c-31,63-37.4,106.4-23.5,160.1
		c10.7,40.3,10.7,53.7-1.1,72.3c-30,45.5-65.3,113.6-65.3,125c0,21.7,24.6,37.2,56.7,37.2C3684.7,10069.3,3702.9,10058,3732.8,10027
		z M5037.9,10027c18.2-32-12.8-73.3-51.3-69.2c-37.4,4.1-43.9,40.3-13.9,69.2C5001.5,10054.9,5022.9,10054.9,5037.9,10027z
		 M4378.9,9912.3c25.7-34.1,21.4-53.7-21.4-102.3c-31-36.2-37.4-49.6-32.1-75.4c3.2-17.6,18.2-41.3,33.2-52.7
		c15-12.4,26.7-30,26.7-39.3c0-16.5-6.4-17.6-48.1-11.4c-42.8,5.2-50.3,3.1-68.5-17.6c-17.1-20.7-24.6-22.7-40.6-13.4
		c-15,8.3-20.3,26.9-22.5,76.4c-3.2,69.2,6.4,103.3,50.3,170.5C4314.8,9938.1,4347.9,9955.7,4378.9,9912.3z M4059.1,9883.4
		c0-28.9-4.3-36.2-21.4-36.2c-13.9,0-22.5,8.3-24.6,23.8c-5.3,35.1,5.3,55.8,26.7,51.7C4053.7,9920.6,4059.1,9909.2,4059.1,9883.4z
		 M4769.4,9878.2c23.5-24.8,43.9-52.7,43.9-59.9c0-24.8-42.8-69.2-66.3-69.2c-41.7,0-62,28.9-62,88.8
		C4684.9,9939.2,4703.1,9947.4,4769.4,9878.2z M4565.1,9881.3c18.2-17.6,16-65.1-2.1-79.5c-25.7-20.7-70.6,12.4-70.6,50.6
		c0,13.4,32.1,41.3,47.1,41.3C4545.8,9893.7,4557.6,9888.5,4565.1,9881.3z M4948,9829.7c25.7-47.5,66.3-98.1,85.6-105.4
		c8.6-3.1,30,1,47.1,9.3c44.9,22.7,73.8,19.6,79.2-7.2c2.1-13.4,9.6-48.6,16-78.5c18.2-85.7,15-161.2-7.5-188
		c-23.5-27.9-39.6-21.7-50.3,17.6c-12.8,54.8-58.8,137.4-83.4,148.8c-12.8,7.2-37.4,15.5-53.5,18.6c-25.7,5.2-34.2,15.5-51.3,63
		c-21.4,58.9-27.8,155-9.6,155C4925.6,9862.7,4938.4,9847.2,4948,9829.7z M4094.4,9752.2c-2.1-25.8-8.6-40.3-20.3-42.4
		c-23.5-4.1-33.2,23.8-18.2,54.8C4075.1,9805.9,4098.7,9797.6,4094.4,9752.2z M4930.9,9609.6c0-30-33.2-51.7-51.3-34.1
		c-13.9,13.4-17.1,42.4-5.3,52.7c3.2,4.1,18.2,7.2,32.1,7.2C4925.6,9635.4,4930.9,9630.3,4930.9,9609.6z M4535.1,9556.9
		c43.9-38.2,54.6-71.3,30-95c-20.3-19.6-28.9-15.5-79.2,34.1C4399.3,9582.8,4443.1,9636.5,4535.1,9556.9z M4695.6,9568.3
		c0-8.3-5.3-17.6-11.8-21.7c-17.1-9.3-32.1,18.6-18.2,34.1C4678.5,9596.2,4695.6,9588.9,4695.6,9568.3z M4318,9510.4
		c43.9-16.5,57.8-28.9,76-67.1c12.8-24.8,27.8-45.5,34.2-45.5c5.3,0,10.7-6.2,10.7-13.4s9.6-18.6,21.4-24.8
		c42.8-26.9,36.4-137.4-10.7-165.3c-13.9-9.3-28.9-10.3-48.1-3.1c-28.9,10.3-32.1,27.9-17.1,77.5c12.8,46.5,2.1,63-68.5,98.1
		c-100.6,49.6-134.8,103.3-94.1,146.7C4243.1,9537.3,4252.7,9537.3,4318,9510.4z M3726.4,9457.8c36.4-36.2,79.2-73.3,94.1-82.6
		c16-10.3,32.1-35.1,40.6-64c11.8-41.3,10.7-53.7-5.3-97.1c-10.7-26.9-27.8-63-39.6-81.6c-26.7-42.4-23.5-109.5,5.3-114.7
		c53.5-10.3,114.5,102.3,114.5,209.7c0,120.9,44.9,156,87.7,70.2l24.6-49.6l89.9-2.1c49.2,0,94.1-6.2,100.6-12.4
		c5.3-5.2,13.9-27.9,17.1-48.6c5.3-31,13.9-42.4,48.1-58.9c56.7-28.9,145.5-35.1,179.7-13.4c15,9.3,35.3,14.5,46,10.3
		c16-6.2,17.1-16.5,12.8-75.4c-12.8-143.6-38.5-213.8-83.4-225.2c-15-4.1-20.3-14.5-20.3-38.2c0-27.9-7.5-36.2-52.4-61
		c-55.6-28.9-81.3-28.9-92,3.1c-7.5,22.7,21.4,82.6,38.5,82.6c6.4,0,33.2,20.7,58.8,46.5c46,44.4,47.1,47.5,47.1,113.6
		c0,65.1-1.1,67.1-26.7,67.1c-15,0-44.9-7.2-66.3-15.5c-20.3-8.3-58.8-15.5-84.5-15.5c-67.4,0-97.3-14.5-121.9-61
		c-17.1-34.1-20.3-52.7-15-98.1c7.5-59.9-1.1-74.4-70.6-119.8c-24.6-16.5-47.1-83.7-64.2-196.3c-6.4-37.2-13.9-82.6-17.1-101.2
		c-7.5-40.3,9.6-64,44.9-64c33.2,0,46,31,58.8,138.4c9.6,77.5,22.5,109.5,42.8,109.5c17.1,0,43.9-50.6,46-87.8
		c4.3-52.7,18.2-63,61-46.5c32.1,13.4,35.3,12.4,59.9-15.5c23.5-25.8,25.7-35.1,18.2-76.4c-4.3-25.8-7.5-58.9-7.5-73.3
		s-6.4-62-15-105.4c-25.7-124-1.1-168.4,62-113.6c28.9,24.8,35.3,40.3,49.2,120.9c8.6,51.7,18.2,105.4,21.4,120.9
		c7.5,37.2-32.1,114.7-84.5,165.3c-23.5,22.7-40.6,48.6-38.5,57.9c2.1,9.3,21.4,26.9,42.8,38.2c21.4,12.4,56.7,37.2,78.1,55.8
		c27.8,23.8,46,32,62,27.9c15-3.1,37.4,4.1,64.2,21.7c26.7,18.6,55.6,27.9,85.6,27.9c39.6,1,44.9-2.1,48.1-23.8
		c3.2-15.5-6.4-34.1-25.7-53.7c-28.9-28.9-28.9-32-15-64c24.6-54.8,19.3-112.6-13.9-155c-16-20.7-28.9-46.5-28.9-57.9
		c0-46.5,101.6-36.2,179.7,19.6c24.6,16.5,48.1,31,52.4,31c3.2,0,16,7.2,26.7,17.6c15,12.4,19.3,32,19.3,82.6
		c0,66.1,0,67.1,56.7,125c31,32,62,71.3,69.5,87.8c13.9,31,44.9,37.2,65.3,13.4c9.6-11.4,9.6-22.7-3.2-51.7
		c-19.3-45.5-12.8-68.2,20.3-68.2c27.8,0,42.8,14.5,52.4,54.8c5.3,22.7,12.8,27.9,38.5,27.9c39.6,0,53.5-27.9,53.5-109.5
		c0-42.4,5.3-61,21.4-76.4c48.1-46.5,77-16.5,68.5,68.2c-5.3,55.8-3.2,65.1,26.7,110.5c18.2,26.9,33.2,52.7,33.2,56.8
		c0,3.1-17.1,34.1-38.5,66.1c-57.8,90.9-40.6,139.5,28.9,80.6c24.6-20.7,57.8-35.1,99.5-43.4c67.4-13.4,66.3-12.4,96.3-108.5
		c25.7-79.5,22.5-91.9-25.7-121.9c-40.6-24.8-41.7-26.9-36.4-70.2c5.3-39.3,3.2-47.5-22.5-69.2c-72.7-64-71.7-63-58.8-77.5
		c8.6-10.3,26.7-12.4,62-9.3c27.8,3.1,63.1,1,80.2-5.2c25.7-9.3,28.9-15.5,28.9-61c0-30-9.6-72.3-22.5-101.2
		c-24.6-53.7-30-132.2-15-228.3c6.4-44.4,4.3-61-15-96.1c-13.9-25.8-22.5-61-22.5-93c0-55.8-21.4-87.8-67.4-98.1
		c-13.9-4.1-89.9-4.1-169-1c-196.8,7.2-182.9,7.2-416.1-4.1c-114.5-5.2-393.7-14.5-620.4-19.6c-226.8-6.2-432.2-15.5-456.8-21.7
		c-24.6-5.2-146.6-10.3-270.6-10.3c-253.5,0-279.2,5.2-305.9,67.1c-8.6,19.6-15,66.1-15,104.3s-5.3,85.7-11.8,106.4
		c-20.3,68.2,38.5,159.1,118.7,181.8c15,4.1,42.8,14.5,63.1,23.8c32.1,14.5,37.4,14.5,41.7,2.1c3.2-8.3,20.3-30,39.6-46.5
		c19.3-17.6,40.6-49.6,47.1-70.2c9.6-25.8,20.3-38.2,33.2-38.2c40.6,0,53.5,63,31,146.7c-10.7,39.3-9.6,49.6,10.7,87.8
		c27.8,53.7,27.8,48.6-3.2,77.5c-61,54.8-34.2,128.1,63.1,172.5c48.1,21.7,57.8,23.8,99.5,12.4c25.7-6.2,51.3-9.3,56.7-6.2
		c5.3,4.1,12.8,24.8,16,47.5c11.8,69.2,44.9,65.1,56.7-8.3c4.3-26.9,12.8-40.3,26.7-42.4c26.7-5.2,36.4,6.2,44.9,55.8
		c5.3,37.2,3.2,46.5-27.8,79.5c-25.7,28.9-33.2,45.5-30,71.3c3.2,31,6.4,34.1,44.9,39.3c44.9,5.2,67.4,27.9,56.7,55.8
		c-11.8,28.9-49.2,19.6-71.7-17.6c-18.2-28.9-26.7-34.1-52.4-30c-26.7,3.1-35.3-2.1-61-38.2c-34.2-51.7-58.8-51.7-71.7-1
		c-4.3,19.6-12.8,50.6-17.1,69.2c-6.4,23.8-4.3,43.4,10.7,75.4c22.5,47.5,26.7,98.1,9.6,108.5c-22.5,13.4-52.4-7.2-74.9-50.6
		c-17.1-35.1-21.4-61-19.3-115.7c3.2-67.1,2.1-71.3-21.4-74.4c-39.6-6.2-55.6,15.5-55.6,74.4c0,35.1-7.5,63-21.4,82.6
		c-19.3,28.9-19.3,33.1-3.2,58.9c9.6,15.5,41.7,38.2,71.7,51.7c131.6,57.9,189.3,127.1,173.3,207.6c-4.3,18.6-10.7,54.8-15,80.6
		c-15,80.6-53.5,124-111.3,124c-32.1,0-51.3,24.8-51.3,66.1c0,25.8,34.2,57.9,62,57.9C3653.7,9521.8,3690,9492.9,3726.4,9457.8z
		 M4757.6,9453.6c26.7-17.6,31-61,7.5-70.2c-43.9-15.5-97.3,39.3-69.5,71.3C4712.7,9474.3,4727.7,9474.3,4757.6,9453.6z
		 M5089.2,9344.1c17.1-36.2,2.1-75.4-46-118.8c-33.2-30-37.4-39.3-37.4-87.8c-1.1-30-7.5-66.1-16-80.6c-18.2-31-20.3-78.5-4.3-122.9
		c17.1-47.5-11.8-116.7-63.1-152.9c-22.5-15.5-50.3-38.2-64.2-51.7c-30-28.9-72.7-31-87.7-4.1c-18.2,33.1-13.9,39.3,59.9,96.1
		l70.6,53.7l-7.5,72.3c-3.2,40.3-8.6,93-10.7,116.7c-6.4,73.3,37.4,173.6,109.1,247.9c34.2,35.1,67.4,63,72.7,62
		C5071.1,9372,5081.8,9358.6,5089.2,9344.1z M4684.9,9341c16-19.6,4.3-53.7-22.5-62c-11.8-4.1-27.8-1-36.4,5.2
		c-16,13.4-21.4,52.7-8.6,65.1C4630.3,9361.7,4671,9356.5,4684.9,9341z M4214.2,9331.7c0-3.1-4.3-8.3-10.7-11.4
		c-5.3-3.1-10.7-1-10.7,4.1c0,6.2,5.3,11.4,10.7,11.4C4209.9,9335.8,4214.2,9333.8,4214.2,9331.7z M3590.6,9302.8
		c34.2-38.2,67.4-100.2,67.4-129.1c0-46.5-68.5-136.4-103.8-137.4c-7.5,0-18.2,9.3-24.6,20.7c-9.6,16.5-6.4,34.1,10.7,79.5
		l22.5,58.9l-32.1,28.9c-40.6,36.2-41.7,51.7-5.3,79.5C3560.6,9330.7,3563.8,9330.7,3590.6,9302.8z M4770.5,9202.6
		c0-11.4-4.3-22.7-8.6-25.8c-15-9.3-37.4,12.4-31,28.9C4740.5,9229.4,4770.5,9226.3,4770.5,9202.6z M5233.7,9125.1
		c37.4-34.1,61-63,61-77.5c0-23.8-35.3-63-56.7-63c-19.3,0-56.7-40.3-66.3-72.3c-10.7-35.1-36.4-62-61-62c-30,0-34.2,26.9-10.7,64
		c30,47.5,38.5,102.3,24.6,161.2c-15,57.9-2.1,105.4,27.8,105.4C5163,9180.9,5199.4,9156.1,5233.7,9125.1z M4727.7,9020.8
		c17.1-19.6,4.3-106.4-18.2-131.2c-27.8-30-46-21.7-68.5,27.9c-21.4,46.5-19.3,65.1,15,106.4
		C4669.9,9041.4,4711.6,9039.4,4727.7,9020.8z M3375.5,9010.4c8.6-19.6-13.9-75.4-40.6-104.3c-28.9-32-24.6-63,13.9-81.6
		c40.6-20.7,37.4-46.5-8.6-67.1c-46-20.7-54.6-46.5-24.6-77.5c21.4-21.7,22.5-27.9,10.7-62c-13.9-42.4-2.1-61,31-49.6
		c53.5,18.6,69.5,65.1,37.4,111.6c-13.9,20.7-15,28.9-4.3,41.3c28.9,33.1,117.7,6.2,117.7-36.2c0-11.4-5.3-31-11.8-45.5
		c-16-34.1,2.1-57.9,44.9-57.9c44.9,0,41.7-35.1-3.2-57.9c-19.3-9.3-53.5-33.1-76-51.7c-21.4-19.6-46-35.1-53.5-35.1
		s-30-16.5-50.3-36.2c-40.6-40.3-51.3-43.4-98.4-19.6c-30,15.5-33.2,14.5-55.6-5.2c-59.9-54.8-81.3-3.1-71.7,171.5
		c0,12.4,16,39.3,33.2,57.9c35.3,40.3,39.6,59.9,16,79.5c-27.8,22.7-23.5,41.3,47.1,232.4c13.9,35.1,36.4,72.3,52.4,84.7
		C3314.6,9029,3367,9033.2,3375.5,9010.4z M4733,8788.3c0-22.7-31-18.6-35.3,3.1c-3.2,14.5,1.1,18.6,16,15.5
		C4724.5,8804.9,4733,8796.6,4733,8788.3z M5786.7,8484.6c42.8-77.5,61-95,117.7-109.5c44.9-12.4,151.9-109.5,147.6-133.3
		c-2.1-11.4-18.2-18.6-51.3-21.7c-42.8-4.1-48.1-8.3-51.3-33.1c-2.1-20.7,4.3-31,27.8-44.4c42.8-24.8,66.3-67.1,66.3-118.8
		c0-69.2,21.4-97.1,85.6-111.6c71.7-16.5,85.6-15.5,108,4.1c27.8,23.8,54.6,11.4,50.3-23.8c-2.1-22.7-12.8-30-61-46.5
		c-32.1-10.3-68.5-26.9-80.2-38.2c-36.4-31-61-40.3-157.2-55.8c-51.3-9.3-120.9-30-164.7-50.6l-74.9-34.1l-3.2-62
		c-3.2-57.9,0-65.1,27.8-90.9c34.2-32,89.9-48.6,265.3-79.5c119.8-21.7,296.3-71.3,355.1-101.2c36.4-17.6,68.5-58.9,82.4-105.4
		c4.3-14.5,22.5-53.7,38.5-88.8c27.8-55.8,31-74.4,31-165.3c0-108.5,5.3-90.9-104.8-381.2c-61-163.2-103.8-219-204.3-268.6
		c-73.8-36.2-120.9-77.5-160.5-141.5c-17.1-27.9-35.3-42.4-65.3-50.6c-58.8-17.6-90.9-6.2-114.5,39.3c-16,34.1-24.6,39.3-59.9,42.4
		c-22.5,2.1-65.3-6.2-96.3-16.5c-30-11.4-101.6-25.8-157.2-33.1c-55.6-6.2-128.4-18.6-160.5-25.8c-84.5-20.7-156.2-26.9-320.9-30
		c-103.8-2.1-157.2-7.2-191.5-19.6c-81.3-30-129.4-19.6-129.4,28.9c0,26.9-28.9,67.1-48.1,67.1c-8.6,0-25.7-18.6-37.4-41.3
		c-31-58.9-52.4-66.1-159.4-56.8c-50.3,4.1-125.2,8.3-166.9,9.3c-40.6,1-103.8,8.3-138,15.5c-37.4,7.2-112.3,11.4-181.9,9.3
		c-135.9-3.1-420.4,9.3-514.5,22.7c-35.3,5.2-149.8,12.4-253.5,15.5l-190.4,6.2l-37.4-36.2c-41.7-40.3-82.4-48.6-112.3-21.7
		c-10.7,9.3-48.1,20.7-83.4,26.9c-54.6,9.3-71.7,17.6-98.4,46.5c-39.6,44.4-40.6,70.2-2.1,107.4c55.6,52.7,173.3,54.8,408.6,4.1
		c121.9-26.9,129.4-26.9,155.1-10.3c33.2,20.7,31,27.9-24.6,102.3c-39.6,51.7-85.6,146.7-108,224.2c-5.3,19.6-22.5,65.1-37.4,100.2
		c-31,70.2-44.9,181.8-58.8,452.5c-3.2,85.7-10.7,160.1-13.9,166.3c-4.3,6.2-8.6,44.4-10.7,84.7c-3.2,99.2,11.8,115.7,105.9,115.7
		c46,0,81.3-6.2,108-19.6c35.3-17.6,102.7-30,248.2-47.5c26.7-3.1,171.2-10.3,320.9-15.5c803.4-26.9,1157.4-1,1762.9,129.1
		c41.7,9.3,49.2,50.6,18.2,109.5c-25.7,47.5-26.7,57.9-21.4,151.9c4.3,54.8,13.9,130.2,22.5,167.4c8.6,37.2,17.1,120.9,19.3,186
		c2.1,65.1,11.8,156,21.4,201.4c8.6,45.5,17.1,97.1,17.1,114.7c0,34.1,18.2,57.9,41.7,53.7
		C5740.7,8556.9,5765.3,8523.9,5786.7,8484.6z M3292.1,8280.1c24.6-23.8,13.9-48.6-30-70.2c-85.6-42.4-115.5-20.7-57.8,41.3
		C3244,8293.5,3269.6,8301.8,3292.1,8280.1z M3444,8240.8c0-5.2-4.3-10.3-10.7-10.3c-5.3,0-10.7,5.2-10.7,10.3
		c0,6.2,5.3,10.3,10.7,10.3C3439.7,8251.1,3444,8247,3444,8240.8z M6372.9,7762.5c13.9-35.1,13.9-46.5,1.1-87.8
		c-11.8-36.2-22.5-49.6-46-56.8c-46-14.5-65.3,10.3-64.2,83.7c0,78.5,17.1,107.4,59.9,103.3
		C6350.4,7802.8,6359,7794.5,6372.9,7762.5z M6487.4,7579.6c37.4-72.3,34.2-124-8.6-124c-37.4,0-138,35.1-144.4,49.6
		c-5.3,16.5,35.3,94,59.9,113.6C6429.6,7645.8,6458.5,7634.4,6487.4,7579.6z M6902.4,6625.1c49.2-19.6,65.3-41.3,107-145.7
		c82.4-205.6,90.9-272.7,46-356.4c-52.4-98.1-61-111.6-77-117.8c-35.3-13.4-54.6,13.4-88.8,121.9c-34.2,108.5-64.2,161.2-93.1,161.2
		c-25.7,0-146.6,51.7-182.9,78.5c-92,67.1-28.9,223.1,103.8,256.2C6793.3,6642.7,6858.6,6643.7,6902.4,6625.1z M4016.3,5934
		c50.3-24.8,93.1-26.9,164.7-5.2c56.7,16.5,84.5,19.6,140.1,13.4c38.5-4.1,123-7.2,187.2-6.2c65.3,1,134.8,1,155.1,1
		c20.3-1,148.7-3.1,283.5-5.2c240.7-4.1,304.9-10.3,312.4-32c5.3-16.5-49.2-37.2-109.1-41.3c-28.9-2.1-94.1-8.3-144.4-15.5
		c-50.3-6.2-163.7-13.4-252.5-16.5c-130.5-3.1-170.1-1-202.2,11.4c-35.3,14.5-42.8,14.5-72.7-1c-19.3-8.3-37.4-20.7-40.6-25.8
		c-7.5-11.4-435.4-4.1-640.8,11.4c-315.6,22.7-418.3,49.6-381.9,98.1c12.8,17.6,20.3,17.6,73.8,6.2c56.7-12.4,62-11.4,90.9,9.3
		c28.9,21.7,36.4,21.7,222.5,15.5C3908.3,5947.4,4004.5,5940.2,4016.3,5934z M7724,3394.7c20.3-19.6,20.3-22.7,5.3-43.4
		c-68.5-89.9-69.5-108.5-13.9-151.9c104.8-80.6,134.8-126,100.6-152.9c-18.2-15.5-170.1,0-224.6,21.7c-31,13.4-46,27.9-62,65.1
		c-28.9,61-21.4,85.7,43.9,148.8c33.2,33.1,56.7,66.1,64.2,93c9.6,34.1,16,41.3,37.4,41.3C7689.7,3416.4,7711.1,3407.1,7724,3394.7z
		 M7532.5,2946.4c46-20.7,72.7-25.8,149.8-25.8c84.5,0,95.2-2.1,126.2-26.9c68.5-55.8,84.5-110.5,96.3-314.1
		c8.6-159.1,8.6-160.1-18.2-203.5c-13.9-23.8-42.8-53.7-63.1-66.1c-20.3-11.4-49.2-38.2-65.3-58.9c-16-21.7-46-56.8-67.4-79.5
		s-59.9-85.7-85.6-139.5c-54.6-115.7-64.2-128.1-95.2-118.8c-37.4,11.4-34.2,65.1,5.3,115.7c16,20.7,31,56.8,36.4,88.8
		c4.3,30,13.9,75.4,22.5,102.3c18.2,63,4.3,80.6-61,80.6c-62,0-85.6-31-73.8-96.1c10.7-58.9,10.7-113.6-3.2-193.2
		c-12.8-79.5-24.6-111.6-61-162.2c-28.9-41.3-23.5-58.9,21.4-69.2c19.3-5.2,26.7-13.4,26.7-31c0-33.1-25.7-51.7-63.1-44.4
		c-38.5,7.2-69.5-12.4-85.6-56.8c-15-39.3-34.2-78.5-100.6-214.9c-25.7-53.7-51.3-109.5-55.6-124c-4.3-14.5-53.5-70.2-107-124
		c-68.5-68.2-102.7-110.5-110.2-137.4c-15-51.7-67.4-111.6-245-281c-190.4-180.8-238.5-211.8-335.9-211.8
		c-78.1,0-101.6-14.5-131.6-83.7c-21.4-50.6-30-55.8-163.7-101.2c-123-42.4-281.3-74.4-327.3-66.1c-28.9,5.2-71.7,38.2-71.7,54.8
		c0,5.2,25.7,22.7,56.7,37.2c30,15.5,77,44.4,103.8,65.1c67.4,52.7,224.6,151.9,255.7,161.2c22.5,7.2,80.2,59.9,308.1,285.1
		c31,31,73.8,69.2,94.1,84.7c20.3,16.5,37.4,36.2,37.4,44.4c0,7.2,30,45.5,67.4,83.7c37.4,39.3,83.4,96.1,101.6,127.1
		c36.4,62,70.6,100.2,140.1,153.9c27.8,20.7,54.6,54.8,69.5,87.8c13.9,30,41.7,77.5,64.2,106.4c21.4,28.9,38.5,57.9,38.5,64
		c0,7.2,20.3,34.1,46,61c24.6,26.9,53.5,66.1,63.1,86.8c10.7,21.7,47.1,72.3,81.3,113.6c83.4,100.2,138,199.4,147.6,266.5
		c5.3,37.2,17.1,65.1,36.4,86.8c57.8,64,63.1,99.2,23.5,143.6c-22.5,23.8-43.9,22.7-89.9-8.3c-22.5-14.5-65.3-31-95.2-36.2
		c-30-5.2-67.4-18.6-82.4-27.9c-16-10.3-38.5-23.8-50.3-30s-40.6-39.3-64.2-73.3c-23.5-35.1-59.9-73.3-81.3-86.8
		c-55.6-33.1-97.3-86.8-93.1-119.8c2.1-19.6,11.8-28.9,40.6-38.2c47.1-14.5,52.4-39.3,17.1-79.5c-15-17.6-27.8-36.2-27.8-41.3
		s-28.9-39.3-63.1-75.4c-35.3-36.2-70.6-79.5-79.2-95c-35.3-65.1-330.5-326.4-510.3-450.4c-38.5-26.9-82.4-57.9-98.4-69.2
		c-32.1-24.8-81.3-28.9-89.9-7.2c-6.4,16.5,70.6,168.4,129.4,254.1c52.4,76.4,184,330.6,213.9,413.2
		c13.9,37.2,42.8,122.9,65.3,191.1c21.4,68.2,53.5,153.9,71.7,191.1c17.1,37.2,54.6,132.2,82.4,211.8
		c46,131.2,112.3,285.1,175.4,406c34.2,69.2,83.4,105.4,139.1,105.4c25.7,0,67.4-7.2,92-15.5s59.9-15.5,77-15.5
		c18.2,0,58.8-7.2,90.9-16.5c80.2-22.7,176.5-15.5,209.7,14.5c22.5,20.7,93.1,51.7,121.9,52.7
		C7469.4,2972.2,7500.4,2960.8,7532.5,2946.4z"/>
	<path d="M4054.8,9148.9c-36.4-13.4-51.3-37.2-66.3-100.2c-9.6-40.3-21.4-61-43.9-75.4c-32.1-22.7-39.6-57.9-13.9-67.1
		c8.6-4.1,24.6,0,34.2,7.2c9.6,8.3,36.4,21.7,61,30c34.2,12.4,48.1,24.8,65.3,58.9c11.8,23.8,32.1,53.7,46,67.1
		c34.2,36.2,30,58.9-13.9,76.4c-20.3,7.2-38.5,14.5-39.6,13.4C4081.6,9159.2,4068.7,9154,4054.8,9148.9z"/>
	<path d="M4488.1,8590c-21.4-30-22.5-84.7-1.1-101.2c39.6-32,90.9,33.1,78.1,100.2C4559.7,8617.9,4509.4,8618.9,4488.1,8590z"/>
	<path d="M5183.4,8416.4c-52.4-47.5-62-49.6-99.5-20.7c-24.6,18.6-31,19.6-50.3,7.2c-21.4-14.5-22.5-24.8-24.6-213.8
		c-2.1-145.7,1.1-215.9,11.8-262.4c8.6-35.1,18.2-80.6,22.5-101.2c5.3-31,11.8-40.3,34.2-45.5c36.4-9.3,48.1,10.3,40.6,68.2
		c-3.2,25.8-8.6,108.5-11.8,183.9c-5.3,115.7-3.2,141.5,11.8,163.2c12.8,19.6,22.5,23.8,42.8,18.6c39.6-9.3,62,12.4,53.5,54.8
		c-7.5,40.3,9.6,75.4,35.3,75.4c28.9,0,44.9,20.7,44.9,56.8C5294.6,8469.1,5249.7,8475.3,5183.4,8416.4z"/>
	<path d="M3741.4,8378.2c-9.6-10.3-20.3-30-24.6-44.4c-4.3-14.5-22.5-52.7-38.5-84.7c-37.4-71.3-37.4-81.6-8.6-107.4
		c54.6-48.6,47.1-93-21.4-122.9c-36.4-15.5-46-25.8-55.6-61c-6.4-23.8-19.3-62-27.8-86.8c-13.9-39.3-13.9-46.5,1.1-69.2
		c9.6-14.5,26.7-25.8,38.5-25.8c28.9,0,64.2,56.8,64.2,103.3c1.1,44.4,16,70.2,65.3,111.6c41.7,35.1,79.2,113.6,70.6,149.8
		c-3.2,12.4-11.8,38.2-19.3,56.8c-12.8,30-12.8,38.2,4.3,65.1C3833.4,8336.9,3792.7,8435,3741.4,8378.2z"/>
	<path d="M4809,8297.6c-21.4-20.7-22.5-52.7-2.1-59.9c23.5-9.3,62,22.7,57.8,47.5C4860.3,8313.1,4832.5,8319.3,4809,8297.6z"/>
	<path d="M4141.5,8280.1c-18.2-17.6-16-44.4,4.3-59.9c12.8-11.4,19.3-10.3,33.2,3.1c15,13.4,15,21.7,5.3,43.4
		C4170.3,8295.6,4160.7,8298.7,4141.5,8280.1z"/>
	<path d="M3972.4,8173.7c-8.6-20.7,13.9-46.5,34.2-39.3c8.6,3.1,15,16.5,15,30c0,17.6-6.4,24.8-21.4,24.8
		C3988.5,8189.2,3975.7,8181.9,3972.4,8173.7z"/>
	<path d="M3875.1,8052.8c-6.4-7.2-19.3-48.6-30-90.9s-27.8-88.8-39.6-102.3c-23.5-30-24.6-55.8-2.1-73.3c30-24.8,68.5-1,92,56.8
		C3939.3,7953.6,3924.3,8112.7,3875.1,8052.8z"/>
	<path d="M5226.2,8042.5c-23.5-32-22.5-104.3,2.1-125c34.2-30,63.1-21.7,88.8,24.8c22.5,43.4,21.4,81.6-3.2,109.5
		C5295.7,8073.4,5244.3,8068.3,5226.2,8042.5z"/>
	<path d="M3258.9,8016.6c-4.3-3.1-7.5-15.5-7.5-25.8c0-14.5,6.4-19.6,24.6-16.5c31,4.1,40.6,49.6,9.6,49.6
		C3275,8023.9,3262.2,8020.8,3258.9,8016.6z"/>
	<path d="M4567.2,7941.2c-17.1-31-5.3-72.3,21.4-72.3c28.9,0,51.3,46.5,35.3,70.2C4607.9,7965,4581.1,7966,4567.2,7941.2z"/>
	<path d="M4280.5,7887.5c2.1-12.4,10.7-23.8,19.3-23.8c23.5,0,20.3,40.3-3.2,44.4C4280.5,7911.3,4277.3,7907.1,4280.5,7887.5z"/>
	<path d="M4791.9,7844.1c0-26.9,15-37.2,46-28.9s18.2,47.5-16,51.7C4796.1,7869.9,4791.9,7866.8,4791.9,7844.1z"/>
	<path d="M5585.6,7309c-5.3-7.2-13.9-30-18.2-49.6c-4.3-19.6-28.9-65.1-54.6-100.2c-64.2-88.8-82.4-177.7-39.6-193.2
		c22.5-8.3,27.8-4.1,84.5,74.4c68.5,94,89.9,142.6,89.9,204.5C5647.6,7311,5615.5,7344.1,5585.6,7309z"/>
	<path d="M6046.6,7269.7c-26.7-10.3-39.6-42.4-30-72.3c4.3-14.5,16-20.7,38.5-20.7c25.7,0,35.3,7.2,49.2,37.2
		c18.2,35.1,18.2,37.2-2.1,51.7C6079.8,7282.1,6078.7,7282.1,6046.6,7269.7z"/>
	<path d="M6150.4,7159.2c-8.6-3.1-35.3-21.7-57.8-41.3c-46-37.2-74.9-42.4-107-18.6c-36.4,26.9-110.2,19.6-171.2-16.5
		c-92-53.7-124.1-89.9-124.1-137.4c0-46.5-16-72.3-82.4-137.4c-34.2-34.1-50.3-63-77-140.5c-28.9-81.6-40.6-102.3-73.8-128.1
		C5401.5,6496,5348,6396.8,5348,6339c0-71.3,7.5-76.4,114.5-79.5l94.1-4.1l112.3,57.9c62,32,127.3,73.3,144.4,93
		c18.2,18.6,49.2,46.5,70.6,61c26.7,18.6,43.9,41.3,53.5,71.3l15,44.4l48.1-3.1c182.9-13.4,232.1-2.1,281.3,62
		c30,38.2,16,75.4-39.6,111.6c-71.7,47.5-84.5,95-54.6,194.2c19.3,59.9,43.9,79.5,95.2,70.2c117.7-20.7,112.3-20.7,119.8,9.3
		c8.6,34.1-20.3,93-57.8,116.7C6319.4,7160.2,6179.3,7171.6,6150.4,7159.2z M5840.2,6587.9c0-5.2-4.3-10.3-10.7-10.3
		c-5.3,0-10.7,5.2-10.7,10.3c0,6.2,5.3,10.3,10.7,10.3C5835.9,6598.2,5840.2,6594.1,5840.2,6587.9z"/>
	<path d="M6325.8,6914.4c-4.3-9.3-2.1-22.7,5.3-30c8.6-8.3,15-8.3,24.6,1c10.7,10.3,8.6,16.5-5.3,30
		C6334.4,6930.9,6332.3,6930.9,6325.8,6914.4z"/>
	<path d="M4978,6236.7c-26.7-10.3-37.4-33.1-24.6-52.7c9.6-16.5,165.8-26.9,228.9-15.5c41.7,8.3,68.5,42.4,49.2,61
		C5217.6,6242.9,5011.1,6249.1,4978,6236.7z"/>
	<path d="M6700.2,14872c-8.6-14.5,11.8-34.1,26.7-25.8c17.1,10.3,13.9,37.2-3.2,37.2C6715.2,14883.4,6704.5,14878.2,6700.2,14872z"
		/>
	<path d="M6118.3,14474.3c0-8.3,5.3-12.4,10.7-9.3c6.4,3.1,10.7,10.3,10.7,16.5c0,5.2-4.3,9.3-10.7,9.3
		C6123.7,14490.8,6118.3,14483.6,6118.3,14474.3z"/>
	<path d="M7446.9,14435c-94.1-82.6-319.8-170.5-568-223.1c-128.4-25.8-191.5-56.8-280.3-136.4c-19.3-17.6-28.9-33.1-24.6-43.4
		c9.6-25.8,34.2-19.6,74.9,17.6c57.8,52.7,140.1,71.3,351.9,78.5c209.7,8.3,288.8,25.8,347.7,77.5c20.3,18.6,63.1,49.6,94.1,68.2
		c47.1,27.9,62,44.4,83.4,91.9c33.2,70.2,30,98.1-8.6,102.3C7497.2,14470.2,7476.9,14460.9,7446.9,14435z"/>
	<path d="M4075.1,14402c-26.7-8.3-73.8-19.6-105.9-24.8c-31-5.2-63.1-15.5-71.7-21.7c-23.5-18.6-19.3-98.1,6.4-122.9
		c31-30,52.4-25.8,95.2,19.6c39.6,41.3,94.1,73.3,124.1,73.3c9.6,0,41.7-10.3,70.6-21.7l53.5-22.7l24.6,22.7
		c12.8,11.4,30,21.7,37.4,21.7c24.6,0,72.7-40.3,86.6-72.3c10.7-23.8,20.3-31,42.8-31c16,0,35.3,7.2,42.8,15.5
		c6.4,8.3,23.5,17.6,35.3,21.7c12.8,4.1,44.9,22.7,70.6,41.3c52.4,39.3,82.4,43.4,132.6,18.6c42.8-21.7,51.3-34.1,38.5-56.8
		c-12.8-24.8-12.8-27.9,11.8-40.3c17.1-9.3,26.7-5.2,54.6,20.7c61,55.8,95.2,43.4,174.4-62c43.9-59.9,71.7-64,100.6-16.5
		c36.4,58.9,61,44.4,61-35.1c0-44.4,2.1-47.5,42.8-67.1c24.6-11.4,55.6-28.9,69.5-38.2c15-10.3,39.6-18.6,55.6-18.6
		c15,0,40.6-4.1,54.6-9.3c31-11.4,121.9-100.2,131.6-127.1c7.5-22.7,46-34.1,61-19.6c9.6,9.3,8.6,17.6-1.1,32
		c-6.4,11.4-12.8,35.1-12.8,52.7c0,24.8-10.7,41.3-42.8,70.2c-23.5,20.7-42.8,45.5-42.8,55.8c0,27.9-30,91.9-55.6,117.8
		c-23.5,24.8-186.1,79.5-268.5,90.9c-27.8,4.1-53.5,11.4-55.6,15.5c-3.2,5.2-23.5,14.5-46,21.7c-21.4,6.2-65.3,22.7-97.3,37.2
		c-32.1,13.4-72.7,27.9-90.9,30c-18.2,3.1-64.2,15.5-101.6,26.9c-57.8,18.6-81.3,19.6-155.1,13.4c-87.7-9.3-169-9.3-370.1-1
		C4153.2,14416.4,4110.4,14413.3,4075.1,14402z"/>
	<path d="M7558.2,14257.4c-16-14.5-16-19.6-3.2-39.3c18.2-26.9,38.5-27.9,54.6-3.1c8.6,12.4,8.6,22.7,0,35.1
		C7593.5,14274.9,7578.5,14277,7558.2,14257.4z"/>
	<path d="M1414.7,14204.7c-7.5-2.1-13.9-17.6-13.9-34.1c0-42.4,59.9-85.7,161.5-118.8c72.7-22.7,126.2-33.1,278.1-53.7
		c43.9-6.2,197.9,21.7,220.4,39.3c20.3,16.5,17.1,48.6-6.4,61c-11.8,5.2-68.5,10.3-127.3,10.3c-62,0-124.1,6.2-147.6,14.5
		c-23.5,7.2-69.5,16.5-104.8,20.7c-34.2,4.1-96.3,21.7-139.1,38.2C1460.7,14211.9,1440.4,14215,1414.7,14204.7z"/>
	<path d="M3732.8,14197.4c-23.5-27.9-7.5-61,40.6-86.8c24.6-13.4,53.5-21.7,62-18.6c16,6.2,16,8.3,0,30
		c-9.6,12.4-24.6,38.2-33.2,56.8C3785.2,14214,3755.3,14222.2,3732.8,14197.4z"/>
	<path d="M3549.9,14149.9c-26.7-24.8-30-34.1-21.4-50.6c16-28.9,48.1-35.1,84.5-17.6c46,22.7,56.7,55.8,27.8,82.6
		C3616.2,14189.2,3585.2,14184,3549.9,14149.9z"/>
	<path d="M4254.9,14097.2c-24.6-13.4-24.6-59.9-2.1-68.2c27.8-10.3,52.4,11.4,52.4,44.4
		C4305.1,14105.5,4285.9,14114.8,4254.9,14097.2z"/>
	<path d="M7351.7,14083.8c-46-37.2-102.7-54.8-222.5-68.2c-158.3-17.6-327.3-50.6-355.1-68.2c-28.9-17.6-33.2-61-7.5-70.2
		c53.5-19.6,350.9,6.2,466.4,41.3c71.7,21.7,88.8,32,135.9,82.6c55.6,58.9,67.4,89.9,37.4,101.2
		C7383.8,14110.7,7385.9,14111.7,7351.7,14083.8z"/>
	<path d="M4006.7,14078.6c-34.2-36.2,3.2-84.7,51.3-67.1c24.6,9.3,22.5,63-3.2,76.4C4028.1,14101.4,4028.1,14101.4,4006.7,14078.6z"
		/>
	<path d="M3698.6,14014.6c-25.7-13.4-24.6-37.2,3.2-50.6c16-9.3,25.7-8.3,37.4,1c20.3,15.5,19.3,46.5-2.1,54.8
		C3716.8,14027,3721.1,14028,3698.6,14014.6z"/>
	<path d="M4963,14010.5c-16-18.6-5.3-36.2,22.5-36.2c12.8,0,20.3,7.2,20.3,19.6C5005.8,14018.7,4979.1,14029,4963,14010.5z"/>
	<path d="M6364.3,14003.2c-78.1-51.7-23.5-93,64.2-49.6c34.2,16.5,43.9,26.9,40.6,44.4
		C6464.9,14031.1,6411.4,14033.2,6364.3,14003.2z"/>
	<path d="M4428.1,13998.1c-34.2-12.4-43.9-63-17.1-84.7c35.3-27.9,83.4,28.9,59.9,71.3
		C4459.2,14006.3,4454.9,14007.4,4428.1,13998.1z"/>
	<path d="M5088.2,13998.1c-27.8-25.8,21.4-127.1,62-127.1c37.4,0,38.5,32,2.1,85.7C5121.3,14003.2,5104.2,14013.6,5088.2,13998.1z"
		/>
	<path d="M2325.1,13958.8c-9.6-23.8,5.3-36.2,42.8-36.2c38.5,0,61,15.5,52.4,37.2C2412.8,13979.5,2332.6,13979.5,2325.1,13958.8z"/>
	<path d="M4809,13920.6c5.3-38.2,1.1-51.7-30-96.1c-24.6-36.2-46-54.8-71.7-62c-41.7-11.4-102.7-80.6-93.1-104.3
		c5.3-12.4,16-14.5,55.6-8.3c44.9,6.2,51.3,4.1,85.6-27.9c42.8-40.3,44.9-57.9,12.8-112.6c-19.3-32-21.4-43.4-11.8-52.7
		c10.7-10.3,27.8-7.2,83.4,14.5c84.5,33.1,93.1,34.1,118.7,6.2c19.3-20.7,19.3-21.7-1.1-36.2c-11.8-8.3-50.3-23.8-86.6-34.1
		c-35.3-11.4-83.4-26.9-105.9-36.2c-56.7-22.7-76-13.4-96.3,44.4c-16,48.6-16,51.7,6.4,97.1c12.8,25.8,20.3,53.7,17.1,63
		c-21.4,51.7-114.5-36.2-114.5-107.4c0-62-19.3-103.3-48.1-103.3c-32.1,0-37.4,9.3-44.9,75.4c-4.3,36.2,0,70.2,11.8,103.3
		c10.7,31,15,64,10.7,93c-5.3,34.1-1.1,53.7,16,84.7c42.8,78.5,21.4,145.7-39.6,118.8c-16-6.2-67.4-14.5-114.5-15.5l-85.6-4.1
		l-42.8-45.5c-34.2-37.2-52.4-47.5-88.8-52.7c-58.8-8.3-80.2,3.1-109.1,61c-23.5,47.5-66.3,87.8-92,87.8c-20.3,0-38.5-38.2-31-62
		c4.3-11.4,19.3-35.1,33.2-51.7c34.2-39.3,30-64-13.9-76.4c-19.3-6.2-36.4-15.5-39.6-21.7c-2.1-7.2,5.3-37.2,17.1-68.2
		c36.4-97.1,36.4-105.4-6.4-147.7l-37.4-39.3l-110.2,1c-180.8,2.1-309.2-9.3-356.2-28.9c-23.5-10.3-64.2-21.7-88.8-25.8
		c-68.5-10.3-125.2-41.3-150.8-83.7c-28.9-48.6-104.8-82.6-161.5-73.3c-51.3,8.3-71.7-10.3-47.1-44.4c24.6-33.1,12.8-48.6-48.1-68.2
		c-41.7-13.4-66.3-30-103.8-73.3c-27.8-31-56.7-55.8-65.3-55.8c-7.5,0-33.2,18.6-56.7,41.3c-30,30-51.3,41.3-72.7,41.3
		c-42.8,0-52.4-14.5-61-89.9c-7.5-56.8-5.3-64,13.9-74.4c11.8-6.2,32.1-11.4,43.9-11.4c11.8,0,36.4-15.5,53.5-33.1l33.2-34.1
		l39.6,20.7c95.2,48.6,171.2,93,201.1,118.8c18.2,15.5,56.7,40.3,86.6,55.8c30,15.5,101.6,64,160.5,108.5
		c133.7,100.2,219.3,140.5,330.5,156c47.1,6.2,102.7,13.4,124.1,16.5c30,5.2,54.6-2.1,114.5-31c96.3-46.5,120.9-46.5,176.5,0
		c44.9,36.2,44.9,37.2,44.9,107.4c0,74.4,20.3,113.6,58.8,113.6c53.5,0,83.4-82.6,43.9-117.8c-49.2-43.4-34.2-103.3,37.4-150.8
		c26.7-16.5,53.5-49.6,74.9-87.8c38.5-69.2,70.6-88.8,116.6-69.2c38.5,17.6,36.4,58.9-5.3,79.5c-22.5,11.4-32.1,23.8-32.1,41.3
		c0,22.7,5.3,25.8,35.3,25.8c18.2,0,50.3-9.3,69.5-20.7c39.6-23.8,51.3-24.8,69.5-10.3c52.4,42.4,100.6,73.3,120.9,78.5
		c25.7,6.2,47.1-1,47.1-15.5c0-18.6-68.5-89.9-102.7-107.4c-24.6-12.4-36.4-24.8-34.2-36.2c3.2-14.5,17.1-17.6,78.1-19.6l73.8-2.1
		l97.3,89.9c133.7,126,172.2,152.9,294.2,204.5c102.7,43.4,111.3,45.5,211.8,45.5c111.3,0,192.6-18.6,232.1-51.7
		c11.8-10.3,50.3-30,85.6-44.4c73.8-30,107-23.8,98.4,19.6c-9.6,50.6,12.8,61,124.1,57.9c95.2-3.1,102.7-2.1,118.7,20.7
		c22.5,30,22.5,119.8,0,150.8c-11.8,15.5-26.7,22.7-52.4,22.7c-32.1,0-41.7-6.2-64.2-41.3c-27.8-43.4-55.6-62-88.8-62
		c-11.8,0-41.7-16.5-66.3-36.2s-49.2-36.2-54.6-36.2c-6.4,0-22.5,11.4-37.4,25.8c-24.6,23.8-26.7,32-20.3,81.6
		c7.5,53.7,7.5,54.8-26.7,68.2c-26.7,10.3-32.1,18.6-30,40.3c4.3,36.2,39.6,35.1,61-2.1c20.3-34.1,72.7-69.2,103.8-69.2
		c11.8,0,33.2,11.4,47.1,24.8c12.8,14.5,37.4,28.9,54.6,32c43.9,9.3,61,33.1,37.4,54.8c-13.9,14.5-42.8,18.6-140.1,20.7
		c-114.5,3.1-123,5.2-138,27.9c-10.7,14.5-16,43.4-15,72.3c3.2,63-26.7,89.9-92,85.7c-51.3-4.1-67.4-33.1-25.7-48.6
		c59.9-21.7,67.4-87.8,10.7-100.2c-114.5-24.8-162.6-39.3-197.9-62c-23.5-14.5-48.1-23.8-56.7-20.7c-20.3,7.2-19.3,51.7,1.1,68.2
		c9.6,7.2,16,23.8,13.9,35.1c-3.2,18.6-10.7,21.7-51.3,22.7c-25.7,1-49.2,6.2-50.3,11.4c-2.1,6.2-10.7,18.6-18.2,30
		c-12.8,16.5-19.3,17.6-56.7,6.2c-59.9-17.6-76-15.5-88.8,8.3c-9.6,17.6-7.5,26.9,10.7,48.6c24.6,31,21.4,67.1-7.5,99.2
		C4817.5,13978.4,4802.6,13968.1,4809,13920.6z M4415.3,13751.2c20.3-5.2,23.5-13.4,23.5-55.8c0-39.3-5.3-52.7-23.5-64
		c-43.9-27.9-37.4-173.6,7.5-173.6c11.8,0,16-12.4,16-41.3c0-22.7-5.3-41.3-10.7-41.3c-6.4,0-19.3-16.5-28.9-36.2
		c-28.9-59.9-61-41.3-49.2,27.9c4.3,28.9-1.1,42.4-32.1,77.5c-22.5,25.8-39.6,58.9-43.9,84.7c-8.6,50.6-21.4,53.7-100.6,16.5
		c-80.2-37.2-115.5-35.1-138,9.3c-16,33.1-16,38.2,1.1,62c20.3,31,80.2,37.2,102.7,11.4c20.3-23.8,38.5-18.6,64.2,15.5
		c17.1,22.7,31,31,54.6,31c23.5,0,43.9,11.4,73.8,41.3C4376.8,13760.5,4377.9,13760.5,4415.3,13751.2z M5331,13565.2
		c9.6-3.1,17.1-12.4,17.1-20.7c0-24.8-41.7-36.2-126.2-33.1c-66.3,2.1-82.4,6.2-85.6,19.6c-2.1,11.4,7.5,21.7,26.7,27.9
		C5196.2,13571.4,5305.3,13574.5,5331,13565.2z M4239.9,13403c17.1-11.4,19.3-22.7,12.8-62c-4.3-25.8-17.1-57.9-28.9-71.3
		c-19.3-22.7-20.3-22.7-35.3-4.1c-25.7,31-5.3,150.8,24.6,150.8C4217.4,13416.4,4229.2,13410.2,4239.9,13403z"/>
	<path d="M2663.1,13936.1c-36.4-13.4-35.3-46.5,1.1-66.1c26.7-13.4,63.1,5.2,63.1,32c0,16.5-31,43.4-44.9,40.3
		C2680.2,13942.3,2671.7,13939.2,2663.1,13936.1z"/>
	<path d="M4150,13912.3c0-5.2,5.3-10.3,10.7-10.3c6.4,0,10.7,5.2,10.7,10.3c0,6.2-4.3,10.3-10.7,10.3
		C4155.4,13922.6,4150,13918.5,4150,13912.3z"/>
	<path d="M4952.3,13907.1c-16-18.6-9.6-50.6,10.7-53.7c28.9-5.2,46,13.4,38.5,42.4C4994,13925.7,4972.6,13930.9,4952.3,13907.1z"/>
	<path d="M3676.1,13853.4c-15-13.4-6.4-34.1,13.9-34.1c13.9,0,21.4,7.2,21.4,20.7C3711.4,13859.6,3690,13867.9,3676.1,13853.4z"/>
	<path d="M7177.3,13824.5c-15-7.2-70.6-23.8-123-36.2c-134.8-32-144.4-36.2-144.4-66.1c0-14.5,5.3-28.9,10.7-32
		c17.1-10.3,11.8-43.4-7.5-50.6c-9.6-4.1-56.7-9.3-104.8-13.4c-93.1-6.2-237.5-37.2-285.6-61c-33.2-16.5-39.6-45.5-13.9-66.1
		c12.8-10.3,25.7-10.3,64.2,0c40.6,11.4,53.5,10.3,93.1-5.2c25.7-9.3,57.8-27.9,72.7-41.3c33.2-30,76-46.5,123-46.5
		c33.2,0,37.4,3.1,49.2,42.4c8.6,24.8,24.6,48.6,40.6,58.9c61,36.2,97.3,77.5,97.3,110.5c0,42.4,21.4,59.9,112.3,87.8
		c140.1,43.4,163.7,65.1,117.7,109.5C7250.1,13843.1,7216.9,13846.2,7177.3,13824.5z"/>
	<path d="M3793.8,13806.9c-9.6-7.2-28.9-28.9-41.7-48.6c-15-20.7-39.6-39.3-62-46.5c-54.6-16.5-55.6-53.7-6.4-107.4
		c21.4-22.7,38.5-45.5,38.5-50.6c0-33.1,82.4-56.8,132.6-38.2c42.8,15.5,7.5,76.4-43.9,76.4c-11.8,0-28.9,6.2-40.6,13.4
		c-26.7,19.6-13.9,64,23.5,81.6c38.5,17.6,63.1,65.1,50.3,99.2C3832.3,13818.3,3818.4,13823.5,3793.8,13806.9z"/>
	<path d="M3350.9,13782.1c-8.6-22.7,9.6-50.6,35.3-50.6c32.1,0,28.9,61-4.3,65.1C3367,13798.7,3355.2,13793.5,3350.9,13782.1z"/>
	<path d="M1882.2,13716c-46-24.8-73.8-25.8-104.8-4.1c-31,20.7-81.3,15.5-85.6-9.3c-5.3-27.9,62-83.7,133.7-108.5
		c49.2-17.6,97.3-23.8,227.9-28.9c158.3-6.2,170.1-5.2,249.2,19.6c46,14.5,93.1,34.1,104.8,44.4c46,40.3,8.6,98.1-49.2,76.4
		c-51.3-18.6-259.9-12.4-337,10.3C1936.8,13740.8,1929.3,13740.8,1882.2,13716z"/>
	<path d="M6489.5,13680.9c-77-31-95.2-45.5-90.9-72.3c4.3-32,50.3-33.1,97.3-1c22.5,14.5,44.9,25.8,50.3,25.8
		c19.3,0,53.5,41.3,47.1,56.8C6584.7,13711.9,6562.2,13709.8,6489.5,13680.9z"/>
	<path d="M3347.7,13633.4c-13.9-9.3-10.7-14.5,16-36.2c48.1-39.3,48.1-39.3,69.5-74.4c34.2-54.8,107-57.9,115.5-5.2
		c4.3,25.8-28.9,48.6-85.6,57.9c-28.9,5.2-43.9,14.5-53.5,35.1C3394.8,13641.6,3372.3,13648.9,3347.7,13633.4z"/>
	<path d="M7329.2,13600.3c-17.1-19.6,1.1-41.3,31-37.2c17.1,2.1,25.7,10.3,25.7,23.8C7385.9,13611.7,7347.4,13621,7329.2,13600.3z"
		/>
	<path d="M5982.5,13585.9c-3.2-9.3-1.1-32,6.4-49.6c25.7-61,24.6-74.4-8.6-125c-18.2-27.9-33.2-57.9-33.2-67.1
		c0-28.9-31-59.9-67.4-67.1c-44.9-10.3-61-22.7-61-52.7c0-31,30-46.5,77-39.3c55.6,9.3,69.5-12.4,51.3-83.7
		c-11.8-45.5-11.8-58.9,0-72.3c21.4-24.8,53.5-18.6,97.3,20.7c44.9,39.3,73.8,45.5,95.2,20.7c10.7-12.4,11.8-24.8,3.2-49.6
		c-31-99.2,89.9-148.8,261-105.4c74.9,18.6,98.4,38.2,78.1,62c-10.7,12.4-26.7,14.5-81.3,9.3c-76-7.2-126.2,6.2-144.4,39.3
		c-8.6,15.5-7.5,24.8,5.3,38.2c33.2,35.1,13.9,113.6-36.4,152.9c-8.6,7.2-30,13.4-46,13.4c-35.3,0-71.7,16.5-71.7,32
		c0,6.2-10.7,24.8-22.5,42.4c-19.3,24.8-21.4,35.1-10.7,55.8c20.3,43.4,56.7,33.1,95.2-27.9c32.1-48.6,36.4-51.7,73.8-48.6
		c38.5,3.1,40.6,5.2,40.6,39.3c0,33.1-5.3,38.2-56.7,65.1c-31,16.5-63.1,41.3-70.6,56.8c-8.6,15.5-49.2,56.8-90.9,93
		C6002.8,13593.1,5988.9,13600.3,5982.5,13585.9z"/>
	<path d="M2718.7,13522.8c-39.6-40.3-102.7-93-141.2-117.8c-74.9-48.6-85.6-50.6-326.3-67.1c-98.4-6.2-174.4,13.4-257.8,68.2
		c-58.8,38.2-64.2,38.2-97.3,4.1c-15-16.5-34.2-24.8-49.2-22.7c-19.3,2.1-23.5,9.3-23.5,44.4c-1.1,22.7-4.3,47.5-9.6,54.8
		c-15,23.8-49.2,12.4-76-25.8c-15-21.7-34.2-49.6-43.9-62c-21.4-27.9-13.9-39.3,38.5-65.1c23.5-11.4,49.2-34.1,57.8-49.6
		c20.3-38.2,57.8-69.2,101.6-83.7c50.3-15.5,73.8-14.5,124.1,9.3c109.1,50.6,160.5-1,89.9-89.9c-25.7-32-43.9-43.4-74.9-48.6
		c-47.1-7.2-55.6-23.8-47.1-87.8c9.6-75.4,28.9-94,73.8-77.5c11.8,4.1,17.1,19.6,17.1,49.6c0,23.8,7.5,53.7,17.1,67.1
		c16,20.7,23.5,23.8,64.2,17.6c44.9-5.2,49.2-4.1,98.4,43.4c36.4,33.1,79.2,59.9,141.2,84.7c66.3,26.9,105.9,52.7,160.5,101.2
		c39.6,36.2,93.1,75.4,118.7,87.8c24.6,12.4,53.5,37.2,63.1,53.7c8.6,17.6,30,52.7,46,78.5c30,49.6,36.4,85.7,17.1,98.1
		C2794.7,13591,2758.3,13563.1,2718.7,13522.8z M1976.3,13331.7c32.1-31,0-70.2-41.7-49.6c-20.3,10.3-27.8,41.3-12.8,54.8
		C1932.5,13348.3,1962.4,13345.2,1976.3,13331.7z"/>
	<path d="M2496.2,13555.9c-4.3-9.3-2.1-21.7,4.3-27.9c17.1-16.5,50.3-5.2,50.3,17.6C2550.8,13572.4,2505.9,13580.7,2496.2,13555.9z"
		/>
	<path d="M7124.9,13534.2c-26.7-11.4-34.2-19.6-31-37.2c3.2-20.7,10.7-23.8,59.9-26.9c44.9-2.1,57.8,0,63.1,14.5
		C7233,13525.9,7178.4,13555.9,7124.9,13534.2z"/>
	<path d="M3192.6,13523.9c-11.8-8.3-41.7-20.7-66.3-26.9c-24.6-5.2-50.3-15.5-55.6-22.7c-12.8-14.5-19.3-131.2-8.6-147.7
		c5.3-7.2,23.5-13.4,40.6-13.4c24.6,0,36.4,7.2,53.5,36.2c12.8,20.7,49.2,51.7,85.6,73.3c48.1,27.9,63.1,42.4,63.1,61
		C3304.9,13531.1,3235.4,13555.9,3192.6,13523.9z"/>
	<path d="M2278,13447.4c0-5.2,7.5-10.3,16-10.3c8.6,0,16,5.2,16,10.3c0,6.2-7.5,10.3-16,10.3
		C2285.5,13457.8,2278,13453.6,2278,13447.4z"/>
	<path d="M2926.3,13389.6c-30-27.9-37.4-96.1-11.8-104.3c6.4-1,26.7,6.2,46,17.6c35.3,21.7,42.8,47.5,23.5,83.7
		C2970.1,13410.2,2948.7,13411.3,2926.3,13389.6z"/>
	<path d="M6594.3,13345.2c-11.8-5.2-39.6-10.3-61-10.3c-46-1-136.9-36.2-155.1-59.9c-7.5-9.3-13.9-25.8-13.9-35.1
		c0-20.7,120.9-114.7,175.4-137.4c36.4-14.5,38.5-18.6,38.5-61c0-26.9,6.4-50.6,15-57.9c18.2-14.5,67.4-5.2,95.2,17.6
		c24.6,21.7,23.5,76.4-3.2,100.2c-25.7,21.7-27.8,59.9-5.3,77.5c9.6,8.3,54.6,13.4,115.5,14.5c108,1,125.2,8.3,153,61
		c15,25.8,15,32,0,53.7c-12.8,18.6-28.9,24.8-78.1,30C6735.5,13350.3,6614.7,13353.4,6594.3,13345.2z"/>
	<path d="M2740.1,13203.6c-27.8-18.6-32.1-64-6.4-73.3c22.5-8.3,89.9,23.8,89.9,42.4s-28.9,47.5-46,47.5
		C2770.1,13220.2,2753,13212.9,2740.1,13203.6z"/>
	<path d="M7128.1,13174.7c-3.2-8.3-4.3-25.8-2.1-39.3c2.1-18.6,9.6-23.8,34.2-23.8c38.5,0,59.9,27.9,42.8,54.8
		C7188,13189.2,7136.7,13195.4,7128.1,13174.7z"/>
	<path d="M5831.6,13148.9c-24.6-14.5-10.7-47.5,19.3-47.5c17.1,0,27.8,6.2,30,19.6c3.2,16.5-12.8,37.2-30,37.2
		C5847.7,13158.2,5839.1,13154,5831.6,13148.9z"/>
	<path d="M3923.2,13122c-10.7-23.8-8.6-30,26.7-65.1c72.7-71.3,39.6-122.9-53.5-85.7c-145.5,59.9-322,70.2-454.6,27.9
		c-197.9-63-365.8-125-468.5-171.5c-62-28.9-120.9-51.7-130.5-51.7c-24.6,0-72.7-40.3-72.7-61c0-27.9,36.4-53.7,82.4-59.9
		c31-4.1,63.1,4.1,135.9,33.1c52.4,20.7,125.2,43.4,161.5,51.7c36.4,7.2,76,18.6,88.8,24.8c37.4,19.6,99.5,13.4,127.3-11.4
		c20.3-18.6,28.9-20.7,48.1-10.3c13.9,6.2,42.8,16.5,64.2,22.7c35.3,10.3,39.6,15.5,42.8,49.6c3.2,32,7.5,38.2,30,41.3
		c15,1,51.3,7.2,81.3,12.4c43.9,9.3,70.6,7.2,132.6-6.2c99.5-21.7,141.2-15.5,217.2,31s86.6,66.1,79.2,139.5
		c-5.3,47.5-11.8,63-39.6,86.8C3979.9,13156.1,3940.4,13157.1,3923.2,13122z"/>
	<path d="M4941.6,13123.1c-101.6-25.8-139.1-43.4-215-95c-66.3-46.5-74.9-72.3-37.4-104.3c40.6-33.1,68.5-30,173.3,19.6l90.9,42.4
		l150.8-6.2c155.1-7.2,162.6-8.3,415.1-85.7c180.8-54.8,245-67.1,358.4-73.3c98.4-5.2,109.1-4.1,136.9,17.6
		c58.8,45.5,27.8,82.6-69.5,82.6c-31,0-83.4,7.2-115.5,15.5s-69.5,15.5-83.4,15.5c-20.3,0-134.8,47.5-237.5,98.1
		c-32.1,15.5-228.9,71.3-308.1,86.8C5117.1,13153,5043.2,13149.9,4941.6,13123.1z"/>
	<path d="M6837.2,13063.1c-33.2-15.5-42.8-58.9-18.2-77.5c30-20.7,98.4-16.5,123,7.2c27.8,26.9,26.7,46.5-2.1,66.1
		C6912,13077.6,6872.5,13079.7,6837.2,13063.1z"/>
	<path d="M2145.4,12924.7c-42.8-41.3-8.6-81.6,63.1-74.4c82.4,9.3,99.5,44.4,36.4,75.4
		C2205.3,12945.4,2165.7,12945.4,2145.4,12924.7z"/>
	<path d="M2435.3,12798.7c-10.7-10.3-18.2-24.8-18.2-31c0-21.7,34.2-43.4,70.6-43.4c51.3,0,79.2,16.5,79.2,46.5
		c0,14.5-8.6,30-20.3,36.2C2513.3,12823.5,2454.5,12819.3,2435.3,12798.7z"/>
	<path d="M6503.4,12792.5c0-9.3,7.5-16.5,17.1-16.5s15,5.2,12.8,12.4C6526.9,12806.9,6503.4,12810,6503.4,12792.5z"/>
	<path d="M2258.7,12773.9c-7.5-7.2-12.8-21.7-12.8-32s-9.6-33.1-22.5-49.6c-25.7-35.1-23.5-84.7,4.3-89.9
		c21.4-4.1,135.9,86.8,135.9,108.5c0,8.3-9.6,28.9-22.5,45.5C2318.7,12787.3,2281.2,12795.6,2258.7,12773.9z"/>
	<path d="M4837.9,12769.7c-52.4-18.6-80.2-54.8-76-100.2c4.3-46.5,33.2-47.5,78.1-2.1c33.2,34.1,39.6,37.2,71.7,30
		c19.3-5.2,54.6-8.3,78.1-9.3c38.5,0,42.8,3.1,46,26.9c4.3,33.1-10.7,44.4-74.9,59.9C4899.9,12788.3,4894.5,12788.3,4837.9,12769.7z
		"/>
	<path d="M5213.3,12698.5c-9.6-22.7,1.1-42.4,32.1-63c34.2-20.7,59.9-12.4,59.9,20.7C5305.3,12699.5,5227.2,12735.7,5213.3,12698.5z
		"/>
	<path d="M4622.8,12691.2c-18.2-17.6-16-48.6,4.3-56.8c24.6-9.3,54.6,23.8,40.6,45.5C4652.8,12702.6,4638.9,12706.7,4622.8,12691.2z
		"/>
	<path d="M2484.5,12649.9c-41.7-49.6-43.9-74.4-8.6-97.1c23.5-14.5,31-14.5,83.4,0c54.6,15.5,71.7,30,71.7,63
		c0,14.5-82.4,77.5-100.6,76.4C2524,12692.3,2502.6,12673.7,2484.5,12649.9z"/>
	<path d="M6016.7,12684c-3.2-6.2-33.2-18.6-66.3-27.9c-56.7-15.5-99.5-44.4-99.5-66.1c0-19.6,54.6-23.8,90.9-7.2
		c19.3,9.3,53.5,19.6,76,22.7c58.8,10.3,92,33.1,87.7,59.9c-2.1,17.6-11.8,23.8-42.8,25.8C6041.3,12693.3,6021,12689.2,6016.7,12684
		z"/>
	<path d="M3641.9,12606.5l-67.4-67.1l-39.6,12.4c-34.2,10.3-41.7,9.3-53.5-7.2c-17.1-22.7-10.7-43.4,24.6-80.6
		c35.3-37.2,58.8-36.2,89.9,4.1c13.9,17.6,55.6,61,93.1,96.1c46,43.4,66.3,70.2,63.1,83.7
		C3744.6,12688.1,3710.4,12675.7,3641.9,12606.5z"/>
	<path d="M5062.5,12604.5c-7.5-20.7,120.9-137.4,151.9-138.4c11.8,0,37.4-9.3,56.7-20.7c19.3-11.4,37.4-20.7,39.6-20.7
		c13.9,0,3.2,33.1-17.1,52.7c-11.8,11.4-26.7,34.1-32.1,48.6c-7.5,20.7-30,37.2-84.5,62
		C5094.6,12625.1,5072.1,12628.2,5062.5,12604.5z"/>
	<path d="M3813.1,12592.1c-46-27.9-62-49.6-53.5-74.4c9.6-28.9,50.3-26.9,101.6,6.2c41.7,26.9,61,56.8,48.1,76.4
		C3898.6,12616.9,3848.4,12612.7,3813.1,12592.1z"/>
	<path d="M4024.9,12563.1c-3.2-8.3-1.1-20.7,4.3-25.8c15-14.5,46,0,46,22.7C4075.1,12584.8,4034.5,12586.9,4024.9,12563.1z"/>
	<path d="M6928.1,12562.1c-17.1-16.5-6.4-65.1,18.2-80.6c44.9-28.9,81.3,9.3,59.9,63c-7.5,18.6-18.2,24.8-40.6,24.8
		C6948.4,12569.3,6931.3,12566.2,6928.1,12562.1z"/>
	<path d="M3286.8,12543.5c-34.2-14.5-46-39.3-24.6-51.7c16-10.3,82.4,14.5,89.9,32C3365.9,12560,3341.3,12567.3,3286.8,12543.5z"/>
	<path d="M2071.5,12531.1c-25.7-23.8,43.9-75.4,82.4-62c20.3,7.2,22.5,39.3,4.3,56.8C2144.3,12539.4,2083.3,12543.5,2071.5,12531.1z
		"/>
	<path d="M2470.6,12446.4c-20.3-5.2-30-18.6-40.6-56.8l-15-48.6l-58.8,7.2l-58.8,7.2l4.3-30c4.3-34.1,35.3-52.7,105.9-62
		c43.9-6.2,52.4-3.1,113.4,41.3c92,65.1,114.5,69.2,153,27.9c36.4-37.2,46-39.3,74.9-11.4c17.1,16.5,19.3,25.8,10.7,41.3
		c-6.4,11.4-22.5,20.7-36.4,20.7s-42.8,14.5-65.3,31c-22.5,17.6-53.5,31-69.5,31s-42.8,2.1-59.9,4.1
		C2511.2,12452.6,2485.5,12450.5,2470.6,12446.4z"/>
	<path d="M1894,12389.6c-22.5-26.9-9.6-52.7,25.7-52.7c28.9,0,32.1,3.1,32.1,31c0,23.8-5.3,32-22.5,34.1
		C1917.5,12404,1901.5,12397.8,1894,12389.6z"/>
	<path d="M2130.4,12284.2c-30-19.6-31-62-2.1-76.4c25.7-13.4,71.7,4.1,89.9,34.1c9.6,15.5,7.5,22.7-13.9,39.3
		C2174.2,12304.9,2161.4,12305.9,2130.4,12284.2z"/>
	<path d="M1931.4,12222.2c-21.4-19.6-21.4-28.9-1.1-45.5c24.6-20.7,69.5-4.1,69.5,24.8
		C1999.9,12238.8,1960.3,12250.1,1931.4,12222.2z"/>
	<path d="M2272.7,12207.8c3.2-5.2,8.6-10.3,11.8-10.3c2.1,0,4.3,5.2,4.3,10.3c0,6.2-5.3,10.3-11.8,10.3
		C2271.6,12218.1,2269.4,12214,2272.7,12207.8z"/>
	<path d="M2053.4,12145.8c0-5.2,7.5-10.3,17.1-10.3c8.6,0,12.8,5.2,9.6,10.3c-3.2,6.2-10.7,10.3-17.1,10.3
		C2057.6,12156.1,2053.4,12152,2053.4,12145.8z"/>
	<path d="M2696.3,8602.4c-80.2-88.8-66.3-134.3,21.4-69.2c84.5,62,115.5,131.2,57.8,131.2
		C2759.4,8664.4,2733.7,8643.7,2696.3,8602.4z"/>
	<path d="M2744.4,8404c-7.5-13.4-18.2-42.4-22.5-65.1c-4.3-21.7-13.9-53.7-22.5-69.2c-22.5-41.3-21.4-223.1,2.1-232.4
		c27.8-10.3,58.8,31,74.9,101.2c32.1,138.4,48.1,240.7,41.7,264.5C2810.7,8435,2765.8,8435,2744.4,8404z"/>
	<path d="M2493,8291.4c-46-69.2-54.6-111.6-26.7-137.4c33.2-33.1,58.8-15.5,100.6,70.2c13.9,26.9,24.6,67.1,25.7,87.8
		c1.1,33.1-2.1,37.2-27.8,40.3C2540.1,8355.5,2530.5,8347.2,2493,8291.4z"/>
	<path d="M2067.3,7286.3c-17.1-14.5-40.6-41.3-51.3-62l-20.3-36.2l30-31c37.4-38.2,34.2-71.3-11.8-99.2
		c-42.8-25.8-99.5-125-99.5-172.5c0-58.9,68.5-113.6,197.9-157c58.8-19.6,149.8-52.7,202.2-73.3c87.7-34.1,99.5-37.2,171.2-31
		c144.4,12.4,164.7,35.1,119.8,133.3c-21.4,46.5-34.2,62-64.2,73.3c-34.2,14.5-42.8,13.4-92-5.2c-67.4-25.8-98.4-25.8-120.9-2.1
		c-39.6,41.3-4.3,95,80.2,126c24.6,8.3,48.1,22.7,54.6,32c17.1,26.9,0,70.2-33.2,82.6c-23.5,9.3-37.4,7.2-82.4-15.5
		c-30-14.5-61-26.9-70.6-26.9c-31,0-51.3,36.2-63.1,111.6c-15,107.4-57.8,177.7-105.9,177.7
		C2102.6,7311,2084.4,7299.7,2067.3,7286.3z M2111.1,6956.7c24.6-17.6,19.3-72.3-7.5-77.5c-23.5-4.1-61,25.8-61,49.6
		c0,18.6,20.3,41.3,37.4,41.3C2086.5,6970.1,2100.4,6963.9,2111.1,6956.7z"/>
	<path d="M1787,7188.1c-32.1-31-26.7-83.7,8.6-83.7c26.7,0,43.9,20.7,43.9,52.7C1839.4,7199.5,1813.7,7213.9,1787,7188.1z"/>
	<path d="M1623.3,7009.4c-54.6-56.8-131.6-183.9-161.5-268.6c-18.2-51.7,102.7,20.7,160.5,94c38.5,51.7,53.5,59.9,171.2,99.2
		c6.4,2.1,17.1,13.4,23.5,23.8c9.6,16.5,5.3,27.9-20.3,58.9c-18.2,21.7-32.1,43.4-32.1,47.5c0,5.2-17.1,9.3-38.5,9.3
		C1691.8,7073.4,1679,7065.2,1623.3,7009.4z"/>
	<path d="M2116.5,4092c-11.8-14.5-10.7-18.6,6.4-31c17.1-12.4,22.5-12.4,36.4,0c12.8,12.4,12.8,18.6,1.1,31
		C2143.2,4112.7,2134.7,4112.7,2116.5,4092z"/>
	<path d="M1400.8,3920.5c-26.7-11.4-79.2-30-117.7-41.3c-100.6-30-169-59.9-175.4-76.4c-15-37.2,3.2-43.4,130.5-47.5
		c68.5-2.1,138-1,154,3.1s59.9,10.3,97.3,14.5c62,6.2,71.7,5.2,92-14.5c38.5-37.2,30-80.6-26.7-131.2c-76-68.2-58.8-98.1,73.8-133.3
		c44.9-12.4,72.7-26.9,102.7-56.8c22.5-22.7,48.1-41.3,56.7-41.3c24.6,0,72.7-40.3,72.7-62c0-9.3-7.5-23.8-17.1-31
		c-40.6-33.1-38.5-47.5,15-103.3s80.2-63,101.6-28.9c8.6,12.4,5.3,35.1-12.8,89.9c-13.9,40.3-22.5,79.5-19.3,85.7
		c2.1,7.2-2.1,52.7-9.6,99.2c-17.1,106.4-53.5,171.5-109.1,196.3c-74.9,32-98.4,52.7-98.4,85.7c0,24.8,7.5,34.1,37.4,47.5
		c32.1,14.5,44.9,15.5,98.4,4.1c89.9-18.6,112.3-32,143.3-86.8c15-26.9,47.1-69.2,70.6-93c49.2-49.6,89.9-122.9,109.1-197.3
		c18.2-69.2,40.6-109.5,129.4-223.1l77-98.1l-5.3-59.9c-4.3-50.6-2.1-64,15-80.6c34.2-33.1,59.9-11.4,67.4,59.9
		c23.5,229.3,22.5,234.5-17.1,309.9c-57.8,107.4-63.1,178.7-13.9,178.7c15,0,105.9-69.2,203.2-156
		c79.2-70.2,136.9-113.6,223.6-167.4c35.3-22.7,89.9-61,118.7-84.7c30-24.8,84.5-58.9,123-77.5c38.5-17.6,96.3-57.9,128.4-87.8
		s76-65.1,97.3-78.5c21.4-13.4,72.7-51.7,114.5-83.7c40.6-32,103.8-70.2,140.1-84.7c37.4-14.5,83.4-40.3,104.8-57.9
		c61-51.7,110.2-62,125.2-25.8c7.5,19.6-19.3,44.4-68.5,63c-24.6,9.3-53.5,34.1-73.8,62c-19.3,24.8-38.5,45.5-43.9,45.5
		c-5.3,0-64.2,47.5-131.6,106.4C3358.1,2969,3273.6,3036.2,3187,3094c-117.7,79.5-402.2,306.8-410.8,328.5
		c-3.2,9.3-6.4,25.8-6.4,38.2c0,57.9-98.4,141.5-165.8,141.5c-51.3,0-105.9,32-176.5,102.3c-74.9,76.4-69.5,73.3-282.4,125
		c-53.5,12.4-123,35.1-155.1,51.7c-44.9,22.7-74.9,30-119.8,30c-33.2,0-78.1,7.2-100.6,15.5c-54.6,22.7-73.8,20.7-110.2-9.3
		c-18.2-14.5-44.9-25.8-59.9-25.8c-16,0-47.1,11.4-68.5,25.8C1484.3,3948.4,1465,3948.4,1400.8,3920.5z"/>
	<path d="M6674.6,3718.1c-85.6-3.1-107-12.4-107-48.6c0-39.3,31-54.8,129.4-62c87.7-7.2,93.1-6.2,115.5,16.5
		c25.7,26.9,28.9,49.6,9.6,73.3C6805.1,3718.1,6775.1,3722.2,6674.6,3718.1z"/>
	<path d="M283,3463.9c-22.5-33.1-17.1-62,12.8-66.1c26.7-4.1,61,37.2,54.6,67.1C345,3494.9,303.3,3493.9,283,3463.9z"/>
	<path d="M1274.6,3430.9c-30-20.7-26.7-45.5,19.3-122.9c40.6-68.2,151.9-173.6,177.6-168.4c32.1,5.2,30,36.2-7.5,144.6
		c-26.7,79.5-41.7,106.4-67.4,126C1349.5,3444.3,1304.6,3451.5,1274.6,3430.9z"/>
	<path d="M2508,2858.6c-13.9-42.4,46-72.3,68.5-34.1c13.9,25.8-5.3,54.8-36.4,54.8C2524,2879.2,2512.3,2872,2508,2858.6z"/>
	<path d="M75.4,2854.4c-9.6-10.3-8.6-16.5,4.3-26.9c20.3-16.5,43.9,1,34.2,24.8C105.4,2873,91.5,2873,75.4,2854.4z"/>
	<path d="M547.2,2660.2c4.3-31,46-34.1,46-3.1c0,13.4-8.6,21.7-24.6,23.8C547.2,2684,544,2680.9,547.2,2660.2z"/>
	<path d="M2641.7,2640.6c-15-26.9,13.9-122.9,44.9-149.8c17.1-16.5,21.4-16.5,35.3-3.1c13.9,13.4,13.9,21.7-1.1,71.3
		c-18.2,62-41.7,103.3-57.8,103.3C2657.8,2662.3,2648.1,2653,2641.7,2640.6z"/>
	<path d="M4048.4,2486.7c-9.6-27.9,1.1-41.3,33.2-41.3c20.3,0,25.7,5.2,25.7,24.8c0,21.7-17.1,37.2-42.8,37.2
		C4059.1,2507.3,4052.7,2498,4048.4,2486.7z"/>
	<path d="M5525.7,2362.7c-66.3-11.4-104.8-26.9-176.5-71.3c-32.1-19.6-78.1-41.3-101.6-48.6c-24.6-6.2-74.9-25.8-113.4-42.4
		c-39.6-17.6-98.4-34.1-136.9-37.2c-38.5-4.1-89.9-18.6-123-34.1c-56.7-28.9-166.9-48.6-271.7-48.6c-48.1,0-63.1,5.2-98.4,32
		l-42.8,33.1H4317c-142.3,0-144.4,0-165.8-26.9c-25.7-32-27.8-45.5-8.6-69.2c16-21.7,99.5-31,296.3-32
		c147.6-1,188.3-10.3,223.6-51.7c7.5-8.3,27.8-18.6,44.9-21.7c49.2-10.3,179.7,15.5,245,47.5c32.1,16.5,96.3,36.2,141.2,44.4
		c67.4,10.3,93.1,20.7,132.6,51.7c38.5,27.9,61,37.2,93.1,37.2c34.2,0,49.2,7.2,81.3,39.3c22.5,20.7,47.1,47.5,55.6,59.9
		c19.3,27.9,74.9,55.8,110.2,55.8c15,0,40.6,11.4,56.7,24.8c24.6,20.7,27.8,28.9,18.2,44.4C5627.3,2371,5598.4,2374.1,5525.7,2362.7
		z"/>
	<path d="M1704.6,2110.6c-3.2-8.3-4.3-27.9-2.1-44.4c2.1-22.7,8.6-28.9,28.9-28.9c38.5,0,51.3,27.9,30,61
		C1741,2127.1,1714.3,2133.3,1704.6,2110.6z"/>
	<path d="M4429.2,1422.6c-67.4-23.8-138-66.1-147.6-87.8c-9.6-26.9,6.4-63,34.2-77.5c25.7-13.4,33.2-12.4,76,10.3
		c25.7,14.5,47.1,28.9,47.1,33.1c0,5.2,7.5,8.3,16,8.3c21.4,0,83.4,30,93.1,45.5c4.3,6.2,8.6,23.8,8.6,40.3c0,20.7-7.5,31-27.8,38.2
		C4494.5,1446.4,4497.7,1446.4,4429.2,1422.6z"/>
</g>
</svg>
