<?xml version="1.0" encoding="UTF-8"?>
<svg id="Warstwa_1" data-name="Warstwa 1" xmlns="http://www.w3.org/2000/svg" xmlns:xlink="http://www.w3.org/1999/xlink" viewBox="0 0 113.64 113.64">
  <defs>
    <style>
      .cls-1 {
        fill: url(#Gradient_bez_nazwy_19);
      }

      .cls-2 {
        fill: #010101;
      }

      .cls-3 {
        fill-rule: evenodd;
      }
    </style>
    <radialGradient id="Gradient_bez_nazwy_19" data-name="Gradient bez nazwy 19" cx="56.82" cy="56.82" fx="56.82" fy="56.82" r="56.82" gradientUnits="userSpaceOnUse">
      <stop offset="0" stop-color="#eabd6e"/>
      <stop offset=".23" stop-color="#e7bc6d"/>
      <stop offset=".37" stop-color="#deb86c"/>
      <stop offset=".48" stop-color="#d0b36a"/>
      <stop offset=".59" stop-color="#bbab67"/>
      <stop offset=".68" stop-color="#a1a064"/>
      <stop offset=".77" stop-color="#80945f"/>
      <stop offset=".85" stop-color="#59855a"/>
      <stop offset=".93" stop-color="#2d7454"/>
      <stop offset="1" stop-color="#01634f"/>
    </radialGradient>
  </defs>
  <rect class="cls-1" width="113.64" height="113.64"/>
  <g id="Icons1">
    <g id="coffee-bean-filled">
      <path class="cls-3" d="m83.67,81.44c.16.05.26.2.26.36,0,.07,0,.13,0,.13,0,0,0,2-2.37,3.84-.96.75-1.8,1.97-2.02,3.1-.03.15-.15.27-.3.3-.15.03-.31-.03-.39-.16-.67-1-1.44-2.87-.16-5.08,1.15-2,3.28-3.02,4.98-2.5Z"/>
      <path class="cls-3" d="m80.33,90.25c-.16-.05-.27-.2-.28-.37,0-.07,0-.12,0-.12,0,0,0-2,2.37-3.84.95-.74,1.78-1.94,2.01-3.07.03-.16.15-.28.31-.31.16-.03.32.04.41.17.67,1.01,1.41,2.86.14,5.05-1.15,1.99-3.26,3.01-4.96,2.5Z"/>
    </g>
  </g>
  <g id="Icons1-2" data-name="Icons1">
    <g id="coffee-bean-filled-2" data-name="coffee-bean-filled">
      <path class="cls-3" d="m35.36,90.18c-.14.08-.32.05-.44-.06-.05-.05-.1-.09-.1-.09,0,0-1.44-1.39-1.12-4.37.13-1.21-.16-2.66-.83-3.61-.09-.13-.09-.29-.01-.43.08-.13.24-.2.39-.17,1.19.21,3.06.96,3.77,3.41.64,2.21-.11,4.45-1.66,5.31Z"/>
      <path class="cls-3" d="m31.34,81.67c.15-.08.34-.06.46.06.05.04.09.08.09.08,0,0,1.44,1.39,1.12,4.37-.13,1.2.16,2.63.81,3.58.09.13.09.31,0,.44-.09.13-.25.2-.41.17-1.19-.22-3.03-.98-3.73-3.41-.63-2.21.1-4.44,1.65-5.31Z"/>
    </g>
  </g>
  <g>
    <path class="cls-2" d="m46.21,23.45c-.04.06-.12.14-.16.18-.08.08-.57.22-.73.22-.1,0-.14-.1-.06-.15.07-.04.05-.18-.03-.21-.21-.08-.51.05-.51.21,0,.12.07.16.3.16.13,0,.15,0,.1.06-.03.03-.08.06-.11.06-.2,0-.42.12-.7.37-.17.16-.36.3-.43.31-.16.04-.29.21-.32.42-.02.14,0,.2.12.36.1.14.14.25.16.45.01.14.04.29.04.33.01.04,0,.14-.04.23-.09.22-.08.39.03.69.05.14.08.31.07.37-.03.13.24,1.03.43,1.48.08.18.11.31.09.42-.02.13,0,.21.1.37.07.11.26.46.42.76.17.31.39.7.51.86.12.16.21.31.21.34s.06.11.13.18c.07.07.16.21.2.31.17.42.81,1.22.99,1.22.07,0,.25-.2.25-.28,0-.03.07-.11.16-.19.2-.18.21-.31.01-.44-.08-.05-.16-.1-.17-.11,0,0,0-.09.04-.19.08-.22.01-.3-.23-.3s-.34-.06-.42-.26c-.05-.14-.12-.19-.28-.27-.23-.11-.28-.23-.14-.35.05-.04.09-.13.09-.18,0-.17-.25-.35-.33-.23-.01.02-.08.04-.13.04-.13,0-.42-.35-.42-.5,0-.1.16-.28.25-.28.08,0,.12-.14.05-.2-.03-.03-.15-.1-.26-.16-.41-.22-.21-.5.34-.5.34,0,.5-.05.65-.23.11-.13.13-.14.39-.13.15,0,.37.05.48.1.16.06.24.07.34.04.08-.02.28-.05.45-.06.5-.03.73-.16.6-.31-.04-.04-.19-.06-.57-.06-.29,0-.74-.03-1.01-.06-.73-.09-.84-.09-.96.05-.17.21-.18.22-.35.25-.09.01-.28.06-.41.12-.21.08-.26.08-.42.04-.2-.06-.35-.25-.35-.44,0-.06-.03-.16-.07-.21-.06-.08-.07-.18-.04-.65.03-.52.03-.56-.07-.74-.1-.19-.1-.19-.02-.42.07-.2.07-.25.02-.4-.03-.09-.04-.19-.03-.22.05-.08.2-.05.3.06.06.06.18.13.33.16.25.06.34.1.62.31.22.17.96.45,1.37.52.29.05.38.05.6,0,.14-.03.28-.08.3-.1.08-.07-.04-.26-.16-.27-.3,0-.47-.04-.96-.19-.29-.09-.58-.2-.64-.24-.06-.04-.16-.09-.22-.11-.19-.06-.5-.24-.67-.38-.08-.08-.23-.19-.33-.26-.2-.14-.21-.29-.03-.43l.12-.08.27.12c.2.09.31.11.4.09.07-.02.23-.05.36-.06.13-.02.36-.09.51-.15.17-.06.42-.12.61-.13.56-.04.89-.09.95-.15.03-.03.1-.05.15-.05.15,0,.17.14.06.34-.06.09-.09.2-.07.24.04.09.19.09.34,0,.14-.08.31-.08.5,0,.22.09.25.15.27.44.01.23.03.26.15.33.08.04.25.11.4.14.3.08.42.19.42.39,0,.14.04.2.19.25.1.04.25-.11.25-.25,0-.09.02-.11.11-.11.07,0,.14.04.18.11.06.09.11.11.26.11.1,0,.23.03.27.06.08.06.08.06,0,.17-.06.09-.11.11-.27.11-.37,0-.38.22,0,.39.14.06.23.15.3.27.08.15.14.19.3.24.31.09.42.16.44.26.01.08-.02.11-.18.18-.11.05-.22.12-.25.15s-.17.13-.32.22c-.33.19-.43.4-.28.55.1.09.22.04.35-.14.14-.21.34-.35.63-.46.13-.04.3-.15.39-.24.14-.14.2-.16.36-.16.22,0,.28-.03.33-.16.02-.08,0-.13-.14-.24-.49-.4-.58-.56-.33-.58.09,0,.14.02.24.14.12.16.3.21.37.11.03-.05-.19-.3-.26-.3-.02,0-.11-.06-.2-.13-.08-.07-.17-.13-.2-.13s-.14-.06-.25-.14c-.12-.07-.31-.18-.43-.23-.17-.06-.24-.13-.29-.23-.1-.2-.2-.26-.44-.26-.18,0-.22-.02-.4-.21-.23-.23-.32-.27-.65-.28-.3-.01-.57-.09-.63-.18-.08-.11-.07-.34.01-.41s.21,0,.24.12c.04.24.18.21.27-.05.06-.18,0-.32-.22-.4-.12-.05-.15-.05-.27.03-.24.16-.34.1-.34-.19,0-.15-.02-.19-.15-.27-.08-.06-.31-.15-.51-.22s-.39-.13-.42-.15c-.03-.02-.2-.09-.38-.17-.32-.13-.34-.13-1.08-.13h-.75l-.08.11Zm1.75.32c.04.07-.02.2-.11.23-.16.04-.3-.14-.2-.24.05-.05.27-.03.3.01Z"/>
    <path class="cls-2" d="m68.97,23.68c-.41.09-.68.19-.68.26,0,.04.13.17.17.17.02,0,.11-.02.21-.05.1-.03.39-.06.65-.09.26-.02.55-.05.66-.06.24-.03.39,0,.43.1.04.11-.09.19-.34.19-.29,0-1.15.22-1.52.39-.17.08-.41.15-.54.17-.29.04-.32.06-.46.27-.1.15-.13.17-.25.16-.17-.01-.21-.12-.12-.28.07-.13.02-.19-.21-.21-.09,0-.23-.05-.31-.09q-.14-.07-.38.08c-.13.08-.3.16-.38.18-.2.05-.33.15-.33.24,0,.14.22.11.43-.06.11-.09.25-.16.37-.18.17-.03.19-.02.32.11.22.23.17.38-.17.6-.17.1-.27.13-.45.13-.23,0-.23,0-.71.42-.26.23-.53.46-.59.5-.06.04-.23.2-.37.34-.21.22-.26.26-.3.21-.03-.03-.03-.1-.02-.15.06-.19.07-.36.02-.38-.13-.08-.04-.25.23-.5.26-.23.27-.26.21-.32-.07-.06-.08-.06-.26.04-.11.06-.49.39-.84.73-.54.53-.63.64-.58.69.08.1.21.08.33-.05.34-.4.41-.41.58-.05.13.25.13.26.06.41-.11.21-.19.23-.34.06-.16-.16-.23-.17-.35-.02-.09.12-.08.2.05.34.06.06.08.13.05.22-.02.09,0,.17.04.25.04.06.07.17.07.25,0,.29.13.38.29.2.12-.13.21-.11.38.09.15.17.17.18.28.13.17-.07.15-.23-.05-.39l-.17-.13.12-.16c.06-.09.14-.23.17-.3.04-.08.14-.16.28-.23.12-.06.31-.21.45-.35.17-.19.29-.27.45-.33.15-.05.27-.13.38-.26.12-.15.18-.19.29-.19.17,0,.25-.05.27-.17.03-.16.14-.24.48-.34.6-.18.73-.23.85-.36.07-.07.12-.15.12-.18,0-.03.03-.09.07-.15.07-.09.08-.09.16-.03.04.04.08.11.08.16,0,.05.06.14.13.21.12.11.16.13.42.13.27,0,1.04-.14,1.54-.28.38-.1.55-.27.55-.55,0-.16.15-.23.29-.15.07.04.09.1.09.26,0,.12.04.28.07.36.05.11.06.19.03.31-.04.13-.03.2.05.37.08.18.11.33.14.94l.04.73-.11.19c-.06.1-.14.32-.18.48-.09.43-.14.52-.37.61-.16.07-.19.1-.19.21,0,.07.04.16.09.2.13.11.11.25-.04.36-.14.1-.25.38-.2.53.06.17-.07.44-.3.67-.38.36-.88.97-.88,1.06,0,.02-.09.14-.2.26s-.2.25-.2.3.04.17.09.28c.08.18.09.21.02.32-.09.17-.08.27.03.45.06.1.08.21.08.31,0,.13-.04.17-.15.22-.29.12-.36.17-.37.26,0,.06.02.11.09.14.11.04.19.03.6-.14.08-.03.17-.04.21-.03.1.04.22.31.18.42-.03.09-.17.11-.22.04-.01-.03-.08-.04-.16-.04-.24,0-.22.26.03.35.19.07.19.31,0,.5-.09.09-.12.09-.24.06-.08-.03-.2-.05-.28-.05-.22-.01-.26-.12-.12-.32.13-.19.16-.38.05-.42-.21-.08-.42.02-.42.21,0,.06-.04.13-.08.18-.07.07-.08.06-.21-.09-.09-.1-.2-.17-.29-.19-.2-.04-.27-.2-.16-.37.09-.14.21-.14.38-.02.25.19.37-.02.14-.26-.14-.15-.27-.17-.5-.07-.08.03-.24.07-.35.09-.18.03-.22.01-.3-.07-.12-.12-.23-.49-.17-.55.02-.02.21-.05.42-.06.43-.02.49-.04.49-.17,0-.12-.04-.16-.19-.26-.14-.09-.25-.09-.42-.02-.09.04-.15.04-.26,0-.19-.07-.26-.04-.4.17-.15.21-.15.28,0,.52.15.22.28.54.28.67,0,.22-.51.38-.69.2-.1-.09-.09-.15.07-.3.17-.17.15-.33-.05-.43-.26-.13-.37-.07-.42.21-.02.11-.08.19-.17.25-.18.13-.21.16-.21.32,0,.12.02.15.13.16.07.02.29.07.48.13.2.06.46.1.56.1.14,0,.33.06.64.2.25.11.49.21.54.22.05.01.17.04.25.06.1.03.17.07.19.13.07.21-.21.28-.5.13-.17-.08-.53-.19-1.15-.35-.2-.05-.43-.12-.51-.16-.09-.03-.35-.12-.58-.19-.47-.13-.5-.16-.4-.44.05-.15.04-.17-.03-.25-.04-.05-.2-.12-.33-.16-.41-.11-.49-.28-.13-.28.14,0,.26-.05.57-.24.31-.19.42-.24.58-.24.23,0,.36-.06.36-.17,0-.13-.1-.16-.5-.14q-.39.03-.54.2l-.15.17-.23-.05c-.19-.04-.26-.04-.38,0-.08.03-.17.08-.18.11-.07.1-.29.18-.38.13-.11-.06-.11-.16,0-.3.2-.25.08-.34-.48-.37-.41-.02-.5-.06-.5-.21,0-.13-.11-.21-.25-.18-.13.03-.15.16-.04.24.12.09.08.21-.11.3-.21.1-.36.28-.36.41,0,.11.14.28.24.28.03,0,.17-.11.32-.24.15-.13.31-.25.37-.27.17-.04.3.08.36.35.07.31.02.38-.17.24-.08-.05-.18-.09-.24-.08-.08,0-.1.05-.12.23-.01.12-.04.24-.06.27-.07.11-.23.06-.39-.12-.16-.17-.18-.17-.42-.17-.19,0-.27,0-.34-.07-.11-.1-.44-.11-.65-.02-.13.06-.16.06-.22,0-.04-.04-.07-.14-.07-.26,0-.33-.19-.47-.43-.31-.12.08-.13.22-.02.33.07.07.07.09,0,.15-.06.06-.08.06-.25-.09-.09-.09-.2-.16-.24-.16-.03,0-.12.05-.18.12-.13.11-.13.12-.34.06-.32-.09-.49-.1-.63-.06-.16.05-.45-.02-.45-.11,0-.06-.26-.31-.34-.31-.09,0-.24-.2-.24-.31,0-.17.1-.22.34-.19.12.01.22.05.24.08.03.04.05.04.1,0,.1-.08.09-.16-.02-.23-.13-.08-.12-.28.01-.31.05-.01.16-.08.23-.16.13-.13.13-.14.06-.25-.06-.1-.1-.12-.32-.13s-.28,0-.39.09q-.17.14-.35,0c-.22-.16-.41-.14-.58.04-.23.26-.18.43.16.52.24.06.42.19.42.28,0,.03-.05.06-.11.09-.09.03-.21.16-.21.23,0,0,.05.07.11.13.15.15.14.2-.03.36-.17.16-.42.27-.61.27-.14,0-.27.13-.27.26,0,.04-.03.09-.07.13-.05.04-.13.02-.39-.1-.18-.09-.38-.22-.45-.29-.1-.11-.16-.13-.27-.12-.19.02-.21.16-.06.3.09.08.12.16.13.4.02.27.01.31-.08.4-.08.08-.15.1-.31.1-.23,0-.29-.07-.19-.23.18-.27.1-.5-.17-.5-.09,0-.22-.04-.32-.11-.2-.13-.38-.14-.54-.02-.12.08-.13.09-.29.02-.19-.08-.62-.09-.69-.01-.08.08-.06.2.04.25.04.02.21.04.36.03.25-.01.29,0,.38.11.08.08.11.17.11.29s.04.22.13.35c.16.21.16.25.04.47-.13.25-.31.29-.5.13-.15-.12-.1-.32.15-.66.04-.06.04-.09-.02-.15-.08-.07-.09-.07-.3.04-.19.1-.25.12-.42.09-.13-.02-.25,0-.34.03-.11.05-.15.05-.19,0-.07-.07-.17-.5-.13-.56.04-.07.14-.04.23.08.06.07.11.1.16.09.09-.03.09-.17,0-.25-.04-.03-.09-.14-.12-.25-.07-.27-.19-.32-.47-.18-.2.1-.21.12-.24.3-.02.17-.06.24-.24.42-.21.21-.22.22-.32.15-.14-.09-.21-.08-.31.02-.12.13-.27.11-.38-.04-.07-.09-.13-.13-.22-.13-.19,0-.4.08-.43.17-.03.09.01.22.07.22.12,0,.17.14.15.36-.04.38-.05.42-.17.42-.15,0-.29-.19-.29-.38,0-.38-.34-.59-.58-.36-.14.13-.11.24.12.4l.21.14-.03.26c-.03.28-.07.35-.18.31-.04-.02-.07-.08-.07-.17,0-.22-.08-.25-.43-.23-.54.04-.79-.14-.55-.38.18-.19.02-.34-.25-.24-.14.05-.46.02-.82-.08-.17-.04-.15-.19.02-.22.08-.01.18-.05.25-.09.06-.04.15-.09.2-.11.05-.03.09-.09.09-.15,0-.15-.16-.16-.29-.02-.19.19-.36.12-.36-.16,0-.14-.03-.19-.16-.28-.08-.06-.16-.14-.16-.18,0-.1.14-.27.22-.27s.22.13.22.2c0,.08.13.15.22.12.05-.01.12-.1.16-.22.04-.1.13-.23.19-.28.06-.05.1-.13.09-.16-.02-.09-.22-.12-.35-.05-.05.03-.21.06-.35.09-.36.05-.56.18-.79.52-.4.6-.39.57-.41,1.83,0,.84,0,1.18.04,1.34.04.12.08.27.09.33.01.06.14.22.27.34.13.13.25.24.25.26,0,.06.45.77.55.88.04.05.32.2.6.34.29.14.59.31.68.39.12.1.22.15.38.17.25.03.49.17.67.38.16.18.33.25.67.3.16.02.36.08.45.14.14.08.72.37,1.75.87.17.08.33.2.38.26.1.14.23.26.41.39.07.05.19.2.25.34.07.13.14.24.16.24s.06.12.08.27c.06.3.16.59.28.79.19.31.21.53.22,1.81v1.22s-.11.15-.11.15c-.06.08-.13.2-.14.27-.02.07-.04.16-.05.21,0,.04-.17.19-.35.33-.33.25-.65.59-.79.84-.04.07-.12.29-.18.49-.1.32-.12.44-.12,1.01,0,.36.02.72.04.8.03.11.03.21-.02.37-.08.3-.09.81-.02,1.38.03.26.06.62.06.8,0,.3-.01.35-.18.65-.17.31-.17.34-.19.81-.01.3,0,.56.03.66.07.22.08,1.4,0,1.56-.06.15,0,.31.13.34.04.01.1.06.13.09.09.1-.02.16-.65.36-.32.1-.71.24-.87.32-.16.08-.43.19-.6.25-.3.1-.61.33-.61.45,0,.07-.72.85-.83.9-.31.15-.31.27,0,.49.13.1.44.32.68.5.25.18.46.36.48.39.06.1-.05.23-.24.28-.14.04-.19.08-.25.19-.07.17-.21.2-.38.07-.06-.04-.21-.13-.33-.2-.3-.17-.45-.3-.58-.56-.2-.36-.45-.63-.6-.63-.1,0-.15.03-.23.18-.06.1-.13.29-.14.42-.02.13-.05.26-.08.29-.07.08-.23.07-.32-.03-.05-.06-.12-.08-.2-.07-.1,0-.13.04-.13.16-.01.12.02.16.19.32.11.1.29.3.41.45.22.29.33.38.46.34.2-.06.14-.26-.15-.48-.16-.13-.21-.3-.09-.34.03-.01.25.07.48.19.35.17.45.25.57.41.2.28.19.42-.03.63-.21.2-.32.21-.76.08-.56-.16-1.14-.61-1.45-1.12-.18-.3-.2-.35-.2-.62,0-.33-.07-.46-.27-.54-.16-.06-.37-.36-.5-.7-.1-.28-.14-.32-.24-.25-.1.08-.08.5.03.84.12.39.76,1.65,1,1.98.29.38.78.84,1.12,1.03.38.21.88.34,1.26.33,1-.03,1.44,0,1.58.12.09.08.1.22,0,.5-.04.12-.07.34-.07.49s-.04.48-.08.73c-.08.49-.06.58.12.61.05,0,.13,0,.16-.03.11-.09.32-.58.35-.81.03-.23.14-.42.34-.6.11-.09.31-.13.31-.06,0,.02.13.07.28.13.15.05.41.14.57.21.27.11.33.12.88.11.66,0,.75-.02.81-.14.03-.05.12-.1.21-.13.25-.06,1.78-.08,1.97-.02.08.03.34.08.56.11.23.03.49.09.61.16.12.05.28.1.36.1.08,0,.3.06.49.13.29.11.37.12.5.09.29-.08.98.1,1.62.43.6.3.94.62,1.22,1.15.31.58.36.81.25,1.2-.1.38-.25.64-.54.94-.67.71-1.59,1.04-2.91,1.05-.43,0-.58-.01-.75-.08-.18-.07-.24-.07-.41-.03-.28.07-.44.06-.8-.04-.31-.09-.4-.11-1.18-.24-.23-.04-.63-.12-.87-.17-.25-.06-.62-.12-.83-.14-.21-.02-.43-.06-.5-.09s-.3-.07-.53-.11c-.22-.04-.47-.1-.56-.14-.23-.1-.38-.03-.38.19s.15.34.65.55c.22.09.62.27.89.39,1.16.53,2.96,1.1,3.46,1.1.11,0,.26.02.33.04.07.03.39.05.71.06.32.01.65.03.74.03s.32-.02.51-.05c.2-.03.72-.07,1.16-.09.44-.02.96-.06,1.16-.1.2-.03.56-.1.8-.14.56-.09,2.05-.5,2.33-.64.39-.19,1.15-.46,1.49-.52.08-.02.25-.06.37-.09.17-.05.29-.06.58-.03.44.04.56.02,1.12-.24.22-.1.51-.2.65-.23.13-.02.27-.06.3-.09.08-.06.17-.28.21-.5.02-.11.07-.26.12-.34.05-.08.13-.27.18-.43.05-.16.15-.37.21-.47s.18-.38.28-.61c.09-.24.28-.61.42-.83.14-.22.29-.46.33-.54.24-.38.63-.91.68-.91.03,0,.05-.03.05-.07,0-.1.76-.84,1.12-1.09.56-.4,1.21-.65,1.66-.65.32,0,.65.24,1.09.8.19.24.26.38.34.67.1.35.11.41.08,1.12-.04.77-.04.82-.3,1.49-.13.36-.43.87-.7,1.21-.19.24-.37.38-1.12.85-.79.49-1.14.66-1.51.72-.48.08-1.58,0-1.84-.15-.08-.04-.24-.07-.37-.07-.27,0-.4.1-.4.3,0,.21.16.33.56.41.19.04.46.09.58.12.18.03.27.03.45-.02.41-.13.63-.07.97.25.25.22.31.4.19.49-.04.03-.11.05-.14.03-.1-.03-.44.13-.52.25-.05.08-.07.16-.05.25.09.41.08.44-.04.5-.06.03-.2.17-.31.31-.11.14-.26.28-.33.31-.2.09-.65.17-.89.14-.48-.06-1.04-.07-1.21-.03-.42.11-.58.33-1.08,1.46-.53,1.19-.55,1.23-.83,1.69-.12.2-.29.51-.36.69-.24.55-.33.73-.46.87-.07.08-.21.26-.31.41-.1.15-.43.5-.72.8-.29.29-.58.59-.63.66-.06.07-.46.48-.88.91-.43.43-.87.87-.96.99-.28.33-.59.55-1.24.85-.72.33-.99.44-1.6.65l-.47.16-1.07.03c-1.34.03-1.74,0-2.29-.25-.59-.26-.9-.38-1.19-.49-.15-.05-.29-.11-.31-.13-.02-.02-.1-.04-.17-.06-.07-.01-.25-.09-.4-.16-.36-.16-1.26-.48-1.66-.6-.17-.05-.49-.14-.71-.2-.43-.13-.87-.31-1.16-.5-.1-.06-.26-.16-.36-.2-.25-.13-.69-.55-1.12-1.06-.2-.23-.38-.46-.42-.5-.17-.16-.33-.4-.6-.91-.16-.3-.32-.59-.37-.66-.04-.06-.1-.21-.13-.34-.13-.52-.25-.88-.36-1.06-.06-.1-.15-.34-.2-.52-.04-.18-.12-.41-.16-.52s-.09-.34-.11-.52c-.08-.71-.36-1.33-.83-1.81-.15-.16-.32-.38-.37-.48-.06-.13-.16-.25-.32-.36-.13-.09-.3-.26-.39-.38-.08-.12-.21-.3-.28-.39-.14-.19-.23-.49-.18-.64.05-.18.12-.23.39-.37.21-.1.29-.16.31-.25.06-.22-.15-.23-.64-.02-.27.12-.42.28-.42.45,0,.04-.04.14-.09.24-.16.3-.08,1.29.11,1.58.06.09.1.1.36.09.26,0,.31,0,.48.13.11.07.21.13.24.13.07,0,.59.61.63.72.01.06.09.23.16.37.1.18.14.33.16.52,0,.15.08.47.17.71.08.25.17.57.2.72.05.28.12.49.33.94.06.14.11.3.1.37-.02.2-.17.17-.54-.13-.19-.15-.41-.31-.48-.37-.08-.05-.21-.16-.31-.25-.12-.11-.22-.16-.31-.16s-.18-.04-.28-.14c-.25-.25-.78-.53-.91-.48-.08.03-.07.22.01.26.04.01.14.11.22.22s.28.28.44.38c.16.1.33.24.38.31.11.15.76.58,1,.66.12.04.27.16.46.36.16.16.35.34.43.39.42.25.64.54.65.85,0,.07.09.23.22.4.13.16.25.34.29.41.04.06.15.17.25.24s.27.23.38.37c.23.29.43.48.71.66.29.2.54.39.56.43,0,.02.1.13.19.26.14.18.17.25.15.33-.02.06-.04.19-.04.29,0,.27-.09.33-.5.36-.3.02-.48,0-1.02-.11-.14-.03-.13-.17.02-.25.09-.04.14-.11.17-.25.03-.13.08-.21.15-.24.2-.09.24-.24.08-.32-.08-.04-.12-.03-.29.15-.24.25-.36.25-.67.05-.17-.11-.24-.19-.26-.28-.01-.09-.08-.16-.2-.23-.09-.06-.21-.16-.25-.22-.1-.15-.2-.24-.49-.43-.12-.08-.49-.4-.81-.71-.33-.31-.67-.61-.76-.67-.09-.06-.33-.25-.53-.43-.27-.25-.39-.33-.48-.33-.16,0-.24.17-.16.32.03.05.12.21.2.35.08.14.18.29.24.34.05.04.11.15.12.24.04.22.12.34.33.54.1.09.21.22.25.29.04.06.17.18.3.25.13.07.29.19.37.26.07.07.15.13.18.13.09,0,.61.31.71.44.06.07.13.21.16.3.03.1.1.24.16.31.06.08.11.16.11.19,0,.08.19.18.29.16.13-.03.27.1.33.32.03.09.07.19.09.2.03.01.04.09.04.16,0,.22-.14.25-.64.09-.35-.11-.44-.16-.55-.3-.08-.09-.25-.22-.39-.29-.14-.07-.32-.2-.4-.29-.08-.09-.26-.23-.4-.31-.3-.19-1.07-.93-1.18-1.15-.05-.09-.12-.29-.16-.46s-.12-.36-.18-.44c-.06-.07-.13-.21-.17-.3-.06-.19-.21-.24-.34-.12-.13.11-.28.07-.33-.09-.03-.12-.02-.17.08-.31.14-.2.14-.26.03-.36-.17-.15-.54-.93-.57-1.19-.02-.13-.08-.33-.13-.43-.05-.1-.1-.22-.1-.26,0-.11-.09-.18-.23-.18-.17,0-.24.16-.17.4.05.19,0,.29-.13.29-.11,0-.17-.09-.21-.3-.02-.1-.06-.24-.09-.3-.04-.07-.05-.17-.03-.27.02-.13,0-.16-.04-.16-.09,0-.21-.14-.21-.24,0-.05.04-.2.08-.34.05-.14.1-.31.11-.37.04-.15.14-.19.25-.08.08.07.09.15.09.44s.01.38.08.43c.18.16.37.07.5-.25.1-.25.09-.39-.04-.44-.13-.04-.3-.22-.33-.36-.05-.2-.15-.27-.38-.27-.12,0-.26.02-.32.04-.16.06-.29-.01-.33-.18-.05-.22-.19-.42-.31-.42-.28,0-.27.33.02,1.11.04.13.13.42.2.66.13.51.35,1.12.5,1.38.13.25.65,1.33.78,1.65.06.14.2.36.32.49.12.13.25.32.3.42.05.1.13.21.16.25.04.04.17.26.29.49.12.23.32.53.43.66.76.85,1.25,1.33,1.75,1.71.08.06.36.27.6.47.41.31.72.47.92.47.04,0,.58.12,1.19.26.85.2,1.26.28,1.75.32.36.03.78.08.94.1s.39.06.51.07c.13,0,.29.03.36.06.08.02.34.05.59.06s.54.04.65.06c.29.06,1.25.18,1.47.18.11,0,.3.02.44.04.13.03,1.16.06,2.27.09,1.12.02,2.34.06,2.72.09.38.02,2.01.05,3.62.06,2.79.02,2.94.02,3.3-.06.21-.05.62-.14.92-.2,1.08-.23,1.08-.24,1.49-.67.2-.21.36-.41.36-.44,0-.15.24-.43.44-.53.21-.1.33-.14,1.46-.48l.54-.16.41-.4c.29-.28.43-.46.48-.59.17-.45.25-.77.29-1.03.07-.43.27-1.37.41-1.9.04-.18.12-.47.15-.65s.08-.39.11-.47c.02-.08.04-.23.04-.33s.03-.27.07-.39c.04-.12.07-.32.07-.46s.03-.34.07-.44c.06-.16.07-.39.06-1.25v-1.05s-.19-.32-.19-.32l-.17-.33.05-.32c.03-.17.04-.37.02-.42-.04-.14-.23-.41-.43-.61-.13-.13-.16-.18-.12-.24.03-.04.28-.17.59-.29,1.08-.41,1.21-.49,2.12-1.31,1.15-1.03,1.72-2.12,1.96-3.75.04-.32.05-.49.02-.61-.02-.09-.04-.28-.04-.42,0-.24-.07-.64-.22-1.18-.12-.42-.66-1.42-.91-1.68-.13-.13-.26-.28-.3-.34-.08-.11-.98-.7-1.22-.8-.08-.03-.33-.09-.54-.13-.38-.07-.41-.07-.87.02-.26.05-.56.09-.66.09-.22,0-.42.1-1.15.57-.46.31-.72.52-1.21,1-.87.84-1.27,1.32-1.54,1.83-.05.11-.11.2-.13.22-.09.08-.37.54-.46.78-.06.16-.18.39-.27.52-.19.27-.29.5-.44.99-.05.18-.18.55-.27.82-.09.27-.2.61-.24.75-.05.18-.1.26-.18.3-.14.06-.4,0-.53-.11-.33-.29-.77-1.15-1.05-2.08-.12-.39-.15-.57-.17-.99-.02-.46,0-.53.07-.62.08-.09.11-.1.58-.09.56,0,.93-.06,1.04-.17.04-.04.1-.08.13-.08.03,0,.06-.03.08-.08.02-.04.12-.13.24-.21.12-.07.28-.19.37-.26.08-.07.31-.23.5-.35.59-.39.84-.7,1.68-2.07.16-.25.32-.57.37-.7.05-.13.13-.34.18-.47.13-.32.31-1.02.31-1.21,0-.29-.12-.65-.29-.9-.29-.41-.34-.5-.45-.84-.08-.26-.35-.69-.63-1-.32-.35-.37-.44-.54-.94-.21-.59-.63-1.44-.85-1.74-.02-.03-.09-.17-.16-.32-.07-.16-.22-.43-.34-.61-.12-.18-.26-.42-.32-.54-.23-.48-.48-.79-1.18-1.48-1.55-1.53-1.69-1.68-1.86-2.11-.23-.56-.36-.75-.79-1.16-.68-.65-.64-.56-.66-1.56-.02-.87,0-.94.2-1.93.1-.46.15-.6.27-.78.09-.13.19-.38.32-.75.01-.04.04-.07.06-.07s.04-.03.04-.06c0-.03.03-.08.07-.12.04-.03.12-.14.17-.25.2-.38.6-.75,1.12-1.02.13-.06.27-.16.33-.22.16-.13.33-.22.71-.34.19-.06.48-.19.65-.28.17-.09.65-.34,1.06-.55,1.11-.55,2.12-1.31,2.75-2.07.32-.38.32-.38.54-1.02l.18-.53v-.99c-.01-.76-.03-1-.07-1.06-.04-.03-.14-.22-.24-.41-.11-.21-.24-.4-.33-.46-.28-.22-.3-.25-.3-.39,0-.07.03-.21.06-.29.04-.08.1-.26.16-.39.14-.34.21-.47.46-.73.12-.13.29-.38.38-.54.08-.17.24-.42.35-.56.23-.31.43-.69.53-1.01.04-.13.21-.63.37-1.12.28-.81.3-.91.3-1.25,0-.2,0-.95,0-1.66v-1.29s-.21-.23-.21-.23c-.11-.13-.2-.26-.2-.3,0-.07-.12-.19-.4-.41-.09-.08-.2-.09-.87-.12-.42-.01-.83-.04-.92-.05-.08-.01-.34.02-.57.06Zm.16,1.31s-.04.14-.12.23c-.08.08-.14.18-.14.21s-.04.08-.09.11c-.14.07-.27-.02-.27-.18,0-.19.3-.48.48-.46.08,0,.13.04.14.09Zm1.01-.07c.12.04.08.22-.06.31-.17.12-.34.12-.41,0-.1-.17.24-.4.46-.31Zm-11.85,10.1c.08.05.17.13.18.19.08.19-.12.27-.33.14-.13-.08-.27-.04-.45.15-.12.13-.14.13-.33.11-.23-.03-.26,0-.36.24-.04.08-.13.24-.21.36-.1.15-.15.26-.15.38,0,.09-.03.19-.07.22-.06.05-.08.04-.15-.04-.04-.06-.13-.16-.2-.22-.2-.19-.14-.29.47-.86.42-.38.6-.52.81-.61.33-.14.58-.15.78-.03Zm-4.15.17c.11.24-.12.41-.32.23-.11-.09-.1-.29.02-.38.12-.08.23-.03.3.14Zm9.85,0c.18.08.2.17.05.21-.27.06-.51-.07-.39-.22.08-.09.14-.09.34,0Zm-4.95.56c.27.2.29.23.23.42-.04.13-.04.17.02.23.07.06.09.06.27-.03.2-.09.21-.09.32-.03.07.04.16.16.21.27.08.19.08.2,0,.35-.06.12-.11.16-.2.17-.1.01-.14-.02-.24-.18-.07-.11-.15-.2-.18-.2s-.12.05-.2.11c-.12.09-.15.1-.21.06-.04-.03-.07-.12-.07-.19,0-.25-.17-.31-.39-.13-.08.06-.19.11-.25.11-.07,0-.14-.04-.19-.11-.04-.06-.1-.11-.13-.11-.04,0-.06-.03-.06-.08,0-.1-.25-.19-.36-.13-.13.07-.1.22.1.44.24.26.21.34-.08.3-.16-.02-.25,0-.36.04-.16.08-.3.09-.34.03-.01-.03,0-.11.02-.19.02-.07.08-.27.12-.43.09-.35.15-.4.57-.4.19,0,.32-.02.33-.05s.14-.1.28-.16c.13-.06.29-.15.33-.2.12-.13.22-.11.46.06Zm-7.81.38c.02.1-.22.34-.5.5-.12.07-.29.19-.38.28s-.24.19-.33.24c-.1.05-.28.15-.4.24-.23.16-.38.19-.47.09s-.01-.21.24-.34c.13-.06.42-.24.63-.38s.5-.32.62-.4c.13-.08.26-.19.31-.24.1-.11.26-.1.29.01Zm-4.05.07s.09.13.09.19c0,.07.07.17.18.28.17.17.22.31.13.36-.09.05-.23-.03-.31-.19-.09-.18-.23-.24-.36-.18-.11.06-.2.02-.26-.11-.08-.16-.06-.35.03-.4.13-.08.4-.06.5.04Zm22.36.24s-.07.06-.09.06c-.06,0-.05-.1.01-.16.08-.08.16.01.08.1Zm-23.49.29c.08.07.07.28-.01.35-.15.14-.29-.06-.21-.29.05-.13.13-.15.22-.06Zm.71.2c.06.16-.02.33-.15.33-.12,0-.14-.2-.04-.35.09-.13.14-.13.19.02Zm19.09-.03c.13.18.06.47-.11.47-.15,0-.3-.43-.19-.53.06-.06.24-.03.3.06Zm-7,.36c-.04.1-.22.06-.24-.05,0-.06.01-.1.07-.11.11-.03.21.07.17.16Zm-3.55.11c.14.14.04.33-.29.5-.27.15-.4.18-.45.09-.08-.13.19-.52.45-.63.18-.07.19-.07.29.03Zm-8.04.03c.05.1,0,.2-.1.17-.11-.04-.09-.25.02-.25.02,0,.06.03.08.08Zm9.06.01c.02.09-.12.22-.21.2-.09-.02-.16-.14-.13-.22.04-.1.31-.08.33.02Zm7.73-.05c.12.06.11.27-.02.41-.08.09-.13.11-.22.09-.12-.03-.25-.22-.25-.34,0-.15.31-.25.5-.16Zm-16.29.06c0,.06-.11.05-.13-.01-.01-.04,0-.06.05-.04.05,0,.08.03.08.06Zm3.92.3c0,.07-.05.14-.17.21-.09.06-.25.19-.34.29-.2.2-.33.23-.33.07,0-.07.09-.19.33-.39.34-.3.52-.37.52-.18Zm11.09-.01c.13.06.18.16.11.24-.03.03-.16.11-.29.17-.19.09-.25.1-.33.06-.12-.06-.12-.1,0-.27.17-.25.28-.29.5-.2Zm-6.15.13c0,.08-.03.11-.1.12-.08.01-.1,0-.1-.09,0-.12.04-.17.13-.15.04,0,.07.06.07.12Zm9.39.05c.02.16-.06.29-.19.29-.17,0-.2-.21-.06-.38.08-.09.23-.04.25.09Zm-17.71,0c.06.07-.09.28-.21.28-.09,0-.18-.08-.18-.16,0-.16.29-.25.4-.13Zm4.4.23c.16.38.18.5.11.56s-.11.04-.28-.18c-.2-.25-.22-.67-.04-.67.06,0,.12.08.21.29Zm1.4-.22c.04.09-.11.38-.29.59-.14.16-.15.19-.13.38.03.28-.02.32-.35.29l-.26-.02v-.16c-.03-.15,0-.17.19-.31.12-.08.25-.21.28-.28.03-.07.08-.15.12-.18.04-.03.1-.13.15-.22.09-.17.24-.22.29-.09Zm10.67.06c0,.06-.04.19-.12.31-.17.25-.33.28-.41.09-.07-.18-.03-.28.16-.41.22-.15.35-.14.37,0Zm-3.45-.05c.14.09.09.4-.06.4-.18,0-.25-.23-.12-.36.08-.08.11-.08.18-.03Zm-14.34.06c.03.09-.02.16-.11.16-.06,0-.08-.03-.08-.11s.02-.11.08-.11c.05,0,.09.03.11.05Zm16.39.32s-.06.06-.1.06c-.1-.02-.13-.16-.05-.21.08-.05.19.06.15.16Zm-8,.14c.13.12.16.26.07.34-.03.03-.13.03-.24.02-.18-.02-.2,0-.29.13-.13.22-.17.25-.33.25-.11,0-.18.04-.31.18-.18.19-.34.22-.31.06,0-.05.02-.17.02-.27,0-.22.01-.22.36-.4.15-.08.34-.2.42-.28.25-.22.37-.23.59-.03Zm6.61-.09c.1.04.09.09-.09.44-.17.32-.24.38-.44.33-.08-.02-.17,0-.29.09-.21.14-.25.14-.33.02-.08-.11-.09-.31-.03-.43.06-.1.26-.11.38-.02.18.13.39.04.46-.22.02-.07.08-.15.14-.18.13-.06.11-.06.19-.03Zm3.24.04c.08.1.02.19-.13.19-.08,0-.15-.03-.16-.06-.04-.08.06-.19.16-.19.04,0,.1.03.13.06Zm-1.43.24s.04.14.04.21c0,.1-.03.14-.11.18-.15.06-.22,0-.22-.22,0-.28.18-.38.29-.17Zm-13.26.06c.11.13-.21.52-.4.49-.17-.02-.15-.14.05-.36.2-.2.26-.23.35-.13Zm5.54.18c.04.05.04.12,0,.34-.1.43-.41.67-.63.47-.04-.04-.08-.09-.08-.12,0-.03-.05-.09-.11-.15-.22-.2-.11-.39.18-.31.18.05.32,0,.4-.16.08-.15.16-.17.25-.07Zm-3.89.07s.05.09.05.14.03.13.06.18c.06.07.08.07.16.03.13-.07.21-.06.34.05.08.07.11.13.09.18-.05.12-.16.13-.27.03-.12-.11-.17-.11-.25-.03-.1.11-.25.08-.35-.08-.09-.14-.13-.45-.06-.51.04-.05.17-.04.23.02Zm10.94.15c0,.06-.03.1-.07.1-.07,0-.09-.17-.04-.23.05-.05.11.01.11.13Zm-2.5.34c.08.1-.01.23-.2.27-.13.03-.18.01-.28-.08-.09-.09-.1-.12-.05-.18.07-.09.46-.09.53,0Zm-3.54.13c0,.1-.02.13-.09.13-.09,0-.14-.11-.09-.22.05-.12.18-.05.18.09Zm5.24.23c.01.07,0,.09-.08.09-.07,0-.09-.03-.09-.11,0-.14.15-.13.17.02Zm-7.71.14c.04.12.07.13.27.13.18,0,.23.02.29.11.07.11.07.12,0,.17-.05.03-.13.05-.21.03-.13-.03-.16.01-.18.33,0,.1-.05.17-.14.24-.11.08-.13.08-.19.02-.06-.06-.06-.09-.01-.26.05-.17.04-.22-.02-.39-.09-.24-.09-.33,0-.43.1-.11.14-.1.2.05Zm-2.08.08c.1.11.08.24-.05.25-.13.02-.23-.06-.23-.19,0-.17.16-.21.29-.07Zm1.16-.06c.09.03.09.27,0,.31-.04.01-.1,0-.14-.04-.06-.06-.06-.09-.02-.18.06-.12.06-.12.16-.08Zm6.48.14c.04.11,0,.2-.13.26-.21.11-.34-.14-.15-.28.13-.09.25-.09.28.01Zm-4,.08c-.02.09-.16.13-.22.06-.07-.06,0-.14.13-.14.08,0,.11.02.1.07Zm3.3.06c.18.16.11.38-.12.38-.06,0-.14-.02-.17-.05-.06-.06-.08-.34-.02-.39.06-.06.21-.03.31.06Zm-1.89.2c.19.2.11.52-.12.47-.08-.02-.13-.07-.17-.19-.09-.28.1-.47.29-.27Zm-1.51.61c.26.06.27.28.02.37-.19.06-.33,0-.46-.21-.09-.16-.11-.21-.06-.25.04-.05.08-.05.21,0,.09.04.22.08.29.1Zm2.88-.1c.12.14-.06.56-.24.53-.12-.02-.13-.19-.02-.44.08-.17.16-.2.25-.1Zm.83.51c.06.23-.17.49-.31.35-.09-.08-.09-.11,0-.3.08-.19.28-.22.32-.05Zm-4.87.14c.1.04.09.13-.05.42-.13.27-.22.32-.47.27-.15-.03-.7-.35-.7-.41,0-.02.03-.07.06-.11.06-.08.07-.07.25.01.27.13.42.12.59-.06.14-.15.2-.17.33-.12Zm5.43.22c0,.17-.24.38-.38.33-.11-.04-.08-.17.06-.31.17-.17.32-.18.32-.01Zm-4.24.21c.05.06.03.09-.12.22-.2.17-.39.19-.41.03,0-.07.03-.13.16-.2.19-.13.29-.14.38-.04Zm.84.35c.05.09-.03.28-.23.5-.19.21-.53.32-.69.22-.22-.14-.04-.41.31-.47.08-.02.21-.09.29-.17.16-.16.26-.19.32-.07Zm-1.82.38s-.02.05-.05.06c-.03,0-.05-.02-.05-.06s.02-.06.05-.06c.03,0,.05.03.05.06Zm4.49.1c.04.06.02.13-.04.28-.07.15-.08.21-.04.24.03.02.04.09.04.18,0,.13-.03.15-.13.16-.1.01-.13,0-.17-.1-.08-.19-.05-.37.09-.61.15-.25.19-.28.26-.15Zm-2.33.15c.02.14-.15.37-.27.37-.13,0-.11-.28.03-.41.14-.13.22-.12.24.04Zm1.41.04c.03.08-.01.16-.08.16-.08,0-.13-.07-.09-.15.03-.08.15-.09.17-.01Zm-3.9.4c0,.14-.25.13-.3-.01,0-.03.04-.05.14-.05.12,0,.16.02.16.06Zm1.58.03c.01.06.03.16.03.22,0,.18.11.35.33.53.25.19.25.3.04.4-.15.07-.16.06-.24,0-.05-.04-.09-.14-.1-.21-.02-.2-.14-.25-.29-.1-.07.06-.15.12-.17.12-.06,0-.11-.12-.08-.18.04-.06-.07-.17-.18-.17-.05,0-.17-.05-.27-.12-.3-.19-.36-.32-.2-.41.08-.04.11-.03.21.06.07.06.15.11.19.11.07,0,.3-.23.3-.31,0-.02.09-.04.2-.04.17,0,.2.02.22.09Zm1.05.25s.04.12.04.17c0,.05.03.15.07.22.06.12.08.13.24.1s.19-.01.38.16c.21.18.25.29.15.38-.09.07-.3.01-.3-.08,0-.05-.03-.08-.09-.08-.05,0-.13-.06-.19-.15-.09-.14-.12-.15-.26-.13-.13.02-.19,0-.29-.07-.12-.09-.13-.11-.1-.31.04-.31.22-.41.34-.19Zm-3.12.04c.18.1.06.32-.17.29-.15-.02-.2-.19-.08-.28.1-.07.13-.07.25-.01Zm4.39.34c0,.14,0,.15-.13.15-.11,0-.14-.02-.15-.1-.01-.07.01-.13.06-.16.13-.09.22-.05.22.12Zm-3.64.39c.15.16.19.18.29.15.3-.07.38-.08.44-.03.09.07.13.37.07.47-.04.08-.08.09-.29.06-.21-.03-.25-.02-.33.06-.12.11-.17.3-.11.39.03.04.1.06.19.06.45-.03.42-.04.5.12.04.08.12.19.17.23.11.1.12.23.02.36-.08.12-.25.12-.35,0-.04-.05-.22-.13-.38-.18-.27-.08-.31-.11-.38-.25-.13-.26-.16-.44-.1-.67.04-.17.04-.22,0-.3-.13-.19-.27-.47-.27-.52,0-.09.1-.16.24-.16.1,0,.18.05.3.18Zm5.45,0c.08.13-.05.31-.21.29-.16-.02-.18-.17-.06-.29.12-.12.21-.12.27,0Zm-2.75.48c.11.14.09.22-.09.43-.13.15-.16.21-.13.31.01.07.08.17.14.22.06.05.11.13.11.16,0,.07-.03.07-.2.05-.18-.02-.21-.01-.29.07-.07.09-.1.09-.17.06-.06-.03-.08-.11-.09-.32-.01-.29.03-.43.21-.71.25-.38.38-.45.51-.27Zm-1.33.12c0,.12-.02.15-.09.15-.06,0-.09-.03-.1-.1-.02-.15.02-.23.11-.22.06,0,.08.06.08.16Zm2.96.02c.1.1.18.22.18.25,0,.1-.18.29-.28.29-.17,0-.26-.12-.26-.37,0-.42.08-.46.35-.17Zm-.85-.01c.08.07.07.27,0,.33-.11.09-.29-.05-.29-.21,0-.06.13-.17.2-.17.03,0,.08.02.11.05Zm1.6.22c.11.2.28.41.36.44.04.01.13,0,.2-.04.19-.09.31-.08.33.03,0,.06.04.2.07.33.08.36.06.67-.03.78-.1.12-.17.09-.21-.07-.05-.23-.25-.57-.35-.62-.05-.03-.16-.06-.22-.08-.11-.02-.14-.06-.21-.26-.09-.25-.12-.65-.04-.65.02,0,.08.07.12.14Zm-3.56.32c0,.11-.04.17-.08.18-.1.02-.14-.1-.08-.23.08-.17.18-.14.16.05Zm3.49.59c0,.13-.14.22-.21.14-.06-.06-.07-.18-.02-.22.01-.02.08-.03.13-.03.08,0,.1.02.1.11Zm-1.65.22c.18.16.23.3.13.4-.08.08-.12.06-.33-.14-.36-.36-.18-.59.21-.25Zm.67-.05s-.02.07-.05.09c-.07.04-.13-.08-.08-.14.05-.06.13-.03.13.05Zm-1.58.24c.18.07.24.12.32.28.05.1.12.19.14.19.02,0,.04.03.04.06s.04.08.09.1c.18.11.15.57-.04.69-.06.04-.12.04-.2.01-.12-.04-.13-.12-.07-.32.05-.19,0-.26-.29-.41-.42-.21-.56-.43-.39-.61.09-.1.13-.1.4.01Zm-2.47.22c.15.15.33.31.39.34.07.04.13.15.17.27.05.17.04.22-.02.41-.04.11-.12.26-.17.34-.11.18-.1.46.02.48.22.04.48-.43.48-.87,0-.5.19-.65.37-.29l.1.21h.38c.21,0,.39.03.42.06.02.02.06.12.07.2.02.13.06.18.2.25.24.12.61.15.75.06.06-.04.15-.06.19-.04.07.03.07.07.05.31-.05.6-.16.89-.35.94-.06.02-.08.06-.08.16,0,.12-.03.15-.22.25-.23.12-.34.12-.38-.01-.03-.09.09-.34.16-.34.03,0,.14-.09.25-.19.19-.19.2-.2.2-.47s0-.28-.11-.28c-.06,0-.19.03-.28.06-.08.03-.25.06-.35.06-.28,0-.41.06-.51.25-.07.14-.08.22-.06.41.03.25,0,.31-.29.5-.1.07-.2.35-.27.82-.03.16-.06.34-.07.42-.03.17.04.27.19.27.14,0,.19-.13.25-.58.04-.32.09-.46.18-.46.07,0,.18.21.19.37.02.22.08.26.25.19.13-.06.15-.05.25.06.1.11.11.15.08.32-.02.11-.03.25-.03.31s-.03.26-.06.44c-.11.52,0,.7.26.47.12-.1.15-.17.21-.5.04-.22.08-.44.09-.5.03-.16-.13-.48-.35-.69-.1-.09-.17-.2-.16-.24,0-.04.09-.11.18-.16.09-.05.24-.16.33-.23.12-.1.19-.13.26-.12.06.01.16-.02.27-.09.11-.08.23-.12.36-.12.17,0,.19,0,.2.1.01.06-.03.14-.11.22-.12.12-.12.13-.06.27.1.23.08.47-.06.65-.07.09-.12.19-.12.24,0,.19.42.15.75-.08.1-.07.2-.13.22-.13.01,0,.07-.03.11-.07.06-.05.08-.13.08-.34,0-.28,0-.28.24-.52.13-.13.26-.3.29-.37.06-.13.19-.16.27-.06.04.05.04.09-.01.22-.08.19-.05.28.08.28.12,0,.18-.06.22-.23.02-.09.05-.12.16-.12.17,0,.22.12.22.46,0,.18.02.25.09.32.2.19.32.07.29-.28-.02-.23-.01-.27.11-.46.08-.11.14-.22.14-.24,0-.01-.07-.14-.16-.28-.24-.38-.17-.58.12-.34.1.09.24.15.42.18.28.06.28.05.4.45.11.33.09.38-.11.51-.17.1-.17.11-.15.29.02.16.01.2-.09.29-.3.27-.3.26-.25.32.04.04.11.05.26.04.12-.01.26,0,.33.02.11.04.12.06.12.25,0,.13-.04.3-.09.42-.1.22-.13.55-.06.95.03.19.02.25-.06.4-.06.11-.09.25-.09.39,0,.23-.09.37-.28.41-.06.02-.38.02-.71,0-.82-.03-.76-.03-1.74.02-.48.02-1.64.06-2.59.08-.95.03-1.8.06-1.91.09-.1.02-.61.04-1.13.04-1.06,0-1.16-.02-1.28-.28-.04-.08-.06-.28-.06-.44s-.02-.36-.05-.44c-.08-.28.16-.66.5-.76.06-.02.18-.06.26-.1.13-.06.16-.06.17,0,.01.03.08.13.17.19.08.07.17.21.2.29.04.11.08.16.14.16.17,0,.22-.26.13-.61-.04-.16-.04-.21.04-.37.12-.22.12-.2-.01-.32-.25-.23-.14-.53.26-.72.2-.09.24-.1.42-.05.11.03.21.04.24.03.02-.02.05-.1.07-.2.05-.29.19-.27.24.03.02.11.05.17.11.18.11.02.15-.03.19-.23.02-.16.01-.19-.12-.33-.11-.12-.14-.19-.13-.3.01-.13.03-.14.19-.16.19-.02.28-.12.24-.23-.05-.12-.21-.08-.3.07-.08.12-.11.14-.22.13-.11-.01-.15,0-.25.16-.14.22-.25.22-.3,0-.02-.08-.05-.21-.07-.29-.03-.1-.02-.18.04-.31.09-.2.11-.41.04-.45-.09-.06-.22.03-.31.21-.07.15-.09.25-.08.48.01.28,0,.3-.09.31-.17.03-.23-.06-.23-.31,0-.15-.03-.26-.09-.34-.08-.12-.08-.14-.01-.25.04-.06.17-.16.3-.22.55-.24.79-.53.72-.87-.02-.08-.04-.23-.06-.34-.06-.34-.22-.52-.46-.52-.13,0-.21-.1-.21-.28,0-.11.14-.24.26-.24.04,0,.19.12.34.27Zm4.3.02c.11.07.13.25.03.29-.18.06-.41-.16-.29-.3.07-.08.13-.08.26,0Zm1.38.46c.07.15,0,.31-.19.5-.14.13-.16.16-.16.37,0,.13-.03.28-.07.34-.08.13-.08.33-.02.51.07.2-.05.49-.26.64-.09.06-.21.16-.27.22-.13.12-.3.13-.37.02-.08-.14-.06-.16.25-.4l.29-.22-.03-.3c-.01-.17-.04-.39-.04-.49-.03-.31.16-.72.46-1.03.14-.15.28-.26.3-.26.03,0,.07.06.1.12Zm-1.69.01c.07.08.02.22-.09.26-.05.02-.12,0-.15-.02-.07-.06-.09-.22-.04-.27.05-.05.22-.03.28.03Zm-1.96.04s-.02.03-.04.05c-.02.01-.04,0-.04-.02,0-.03.02-.05.04-.05.03,0,.04,0,.04.02Zm-2.6.12c.14.16.28.42.28.54,0,.19-.29.57-.43.57-.03,0-.08-.04-.1-.09-.04-.07-.03-.14.04-.33l.09-.25-.13-.12c-.17-.15-.17-.22-.02-.33.15-.11.16-.11.27,0Zm4.92.42s-.02.09-.04.11c-.06.04-.16-.05-.13-.12.04-.1.17-.09.17.01Zm1.93.32c.16.14.25.26.25.32,0,.1-.15.26-.24.26-.08,0-.24.17-.28.3-.04.15-.15.26-.25.26-.13,0-.14-.11-.04-.27.13-.2.16-.43.1-.67-.06-.24,0-.44.12-.44.04,0,.2.1.34.23Zm-2.11.44c.07.08.02.44-.08.55-.12.13-.19.09-.29-.12-.09-.19-.08-.27.06-.44.06-.07.23-.06.3.01Zm-5.64.04c.04.08-.06.31-.17.44-.12.13-.1.26.06.34.17.09.16.19-.04.28-.19.09-.23.19-.1.32.09.09.09.12.04.26-.06.18,0,.25.13.21.22-.08.29-.27.16-.47-.06-.09-.06-.12-.02-.17.12-.14.49-.03.49.15,0,.05-.02.13-.05.19-.07.14,0,.24.19.24.19,0,.17.15-.01.24-.08.04-.22.14-.32.22-.09.08-.19.15-.22.15s-.13.07-.21.15c-.17.17-.21.18-.41.08-.13-.06-.14-.06-.23.02-.25.23-.34.01-.3-.72,0-.05.07-.16.14-.24.15-.17.17-.25.07-.33-.12-.09-.1-.17.2-.97.06-.15.15-.3.22-.35.14-.11.36-.13.39-.04Zm5.66.93c0,.09-.13.08-.15-.01-.01-.06,0-.08.07-.06.05,0,.08.04.08.08Zm4.4,1.27c.18.32.25.4.49.46.19.05.63.46.62.56,0,.05-.08.08-.21.09-.18.02-.2.03-.21.14,0,.09.02.13.12.19.18.1.28.28.28.5,0,.29.09.41.36.47.3.07.36.06.45-.02.12-.1.23-.05.21.1,0,.09-.05.13-.25.19-.13.04-.29.11-.33.16-.15.13-.25.17-.66.23-.21.04-.5.13-.69.21l-.31.14v.26c-.03.24-.01.27.1.38.14.13.38.2,1.11.33.5.09,1.24.3,1.48.42.15.07.29.25.34.44.02.06.09.22.16.37.12.23.13.31.13.69,0,.45.02.38-.44,1.59-.25.68-.43.91-.85,1.12-.31.15-.5.32-.67.59-.07.12-.15.18-.27.21-.25.07-.38.03-.48-.16-.07-.14-.1-.16-.25-.18-.09,0-.27.03-.4.07-.13.05-.42.11-.66.14-.23.03-.54.08-.67.11-.35.09-.65.11-1.34.13-.43,0-.66.03-.8.08-.34.13-.54.08-.54-.12,0-.11-.12-.28-.2-.28-.04,0-.11.08-.16.17-.13.25-.22.28-.67.24-.21-.02-.52-.03-.7-.04-.17,0-.43-.03-.58-.06-.16-.03-.47-.05-.76-.04-.57.01-1.75-.04-2.15-.09-.15-.02-.63-.05-1.06-.06l-.79-.03-.16.15c-.17.17-.34.2-.47.09-.04-.04-.2-.09-.35-.11-.23-.04-.3-.07-.41-.19-.17-.19-.17-.29,0-.45.23-.22.72-.23,1.7-.02.51.11.54.11.65.04.14-.09.13-.12-.1-.43-.17-.22-.36-.61-.45-.94-.02-.08-.09-.27-.16-.42-.13-.29-.19-.76-.25-1.89-.01-.36-.04-.67-.06-.69-.02-.03-.04-.19-.04-.35-.01-.41.05-.48.44-.48.19,0,.34.03.45.08.15.07.43.13,1.04.2.11.01.71.04,1.34.06,3.35.11,4.83,0,7.36-.54.17-.04.21-.21.08-.46-.11-.2-.11-.24-.09-.63.02-.23.06-.54.09-.7.04-.16.07-.5.08-.78,0-.27.05-.65.09-.84.04-.19.07-.41.07-.48,0-.14.08-.24.17-.22.03,0,.14.15.23.31Zm-10.41.85c.1.1.06.2-.13.29-.36.18-.48.09-.24-.17.17-.18.27-.21.37-.12Zm.63.16s-.02.04-.04.04c-.02,0-.04-.02-.04-.04,0-.03.02-.04.04-.04.03,0,.04.02.04.04Zm12.22,2c.06.15.06.19,0,.37-.05.15-.09.21-.19.24-.19.06-.27-.04-.27-.35,0-.33.07-.45.25-.43.11,0,.15.04.21.18Zm.48.76c.16.3.14.52-.04.52-.16,0-.58-.15-.6-.21-.02-.07.15-.39.25-.47.15-.11.27-.07.39.16Zm1.73,3.98c.21.08.27.17.45.61.34.86.38,1.14.19,1.49-.22.41-.25.47-.32.49-.15.06-.23-.06-.37-.51-.14-.45-.27-.67-.39-.67-.11,0-.61-.22-.76-.33-.38-.28-.12-.93.43-1.07.32-.08.59-.09.77,0Zm-12.04,2.88c.21.1.39.11.69.02.24-.07.35-.08.58-.06.16.02.51.03.78.03.27,0,.56,0,.65,0,.08,0,.62.01,1.18.02,1,.02,1.27.04,1.3.13.02.07-.21.16-.46.17-.12,0-.39.03-.6.06-.21.03-.68.06-1.05.07-.54.01-.71,0-.84-.05-.15-.06-.18-.06-.3,0-.08.03-.16.09-.17.11-.03.05-1.82.02-2.67-.05-1.32-.09-1.75-.21-1.59-.41.05-.07.08-.07.31-.03.24.05.26.05.38-.04.12-.09.15-.09.93-.06.44.02.84.05.89.07Zm15.47,10.6c.08.08.08.09.02.18-.29.38-.29.45-.06.63.44.34.56.53.42.64-.08.06-.71,0-.94-.09-.13-.06-.19-.12-.26-.27-.12-.25-.09-.36.18-.62.14-.14.24-.28.27-.39.04-.14.07-.17.16-.17.06,0,.15.04.2.09Zm-.8,1.87c.19.09.3.11.63.11.35,0,.4,0,.53.11.29.23.35.46.4,1.31.04.66.04.67-.08.85-.06.1-.18.22-.26.28-.08.05-.21.16-.27.25-.07.09-.19.24-.28.33s-.25.36-.36.58c-.23.48-.27.53-.4.5-.16-.05-.14-.27.02-.48.07-.09.13-.24.15-.37.02-.13.06-.31.09-.43.08-.26.02-.34-.25-.34s-.36.13-.31.4c.04.25.04.47-.01.81-.05.33-.1.47-.25.68-.12.17-.1.25.09.29.08.02.11.06.11.13,0,.14-.11.22-.26.19-.16-.03-.29.05-.36.24-.06.16-.14.33-.42.9-.11.22-.21.46-.23.52-.02.06-.22.29-.45.52-.29.28-.43.46-.46.57-.06.22-.28.47-1.02,1.17-.79.75-1,.88-1.4.88-.33,0-.42.06-.55.35-.09.21-.13.23-.68.42-.51.18-1.17.31-1.37.28-.12-.02-.3-.16-.3-.23,0-.02.11-.09.24-.16.13-.06.32-.19.43-.27.28-.22.94-.63,1.07-.67.09-.03.33-.25,1.29-1.19.13-.13.31-.29.39-.35.08-.07.16-.15.16-.19,0-.03.13-.19.28-.35.16-.16.35-.4.42-.53.15-.26.29-.42.58-.64.12-.09.23-.23.29-.37.06-.13.17-.32.27-.44.09-.12.16-.24.16-.27,0-.03.08-.14.19-.25.1-.11.22-.28.26-.36.04-.09.2-.3.34-.47.35-.42.58-.83.62-1.11.02-.16.07-.27.15-.36.24-.27.26-.41.1-.6-.09-.1-.18-.09-.38.03-.09.06-.27.13-.4.15-.13.02-.28.08-.34.12-.07.04-.16.1-.21.13s-.17.16-.27.31c-.1.15-.25.31-.34.36-.23.14-.41.36-.39.5,0,.08.05.12.17.16.2.06.22.16.07.33-.06.07-.12.15-.12.17s-.12.16-.26.31c-.15.15-.29.33-.33.4-.15.27-1.38,1.36-2.13,1.88-.16.11-.34.24-.41.29-.13.1-.34.12-.38.03-.03-.07.29-.7.54-1.06.22-.32.77-1.38.89-1.72.06-.16.18-.51.27-.8.09-.28.22-.64.3-.8.07-.16.23-.55.34-.88.19-.55.47-1.19.73-1.69.14-.29.35-.44.58-.44.11,0,.28.03.38.06s.25.06.32.06c.08,0,.25.03.38.07.33.09.74.06.87-.06.09-.09.39-.22.51-.22.03,0,.16.04.29.1Z"/>
    <path class="cls-2" d="m56.38,48.13c-.15.06-.21.16-.28.42-.04.17-.09.25-.18.31-.13.09-.17.24-.06.28.04.02.1,0,.14-.03.04-.03.15-.09.25-.13.14-.05.2-.1.27-.25.05-.1.13-.22.19-.28.14-.15.13-.25-.06-.32-.08-.03-.16-.06-.17-.06,0,0-.06.02-.12.04Z"/>
    <path class="cls-2" d="m58.18,50.46c-.09.13-.09.35,0,.42.17.13.38-.14.33-.42-.02-.12-.23-.12-.32,0Z"/>
    <path class="cls-2" d="m61.08,51.18c-.22.2-.26.21-.42.09-.1-.08-.13-.08-.21-.03-.09.06-.09.1-.1.89,0,.61,0,.9.05,1.09.04.15.08.34.09.42.02.13.05.17.14.19.15.04.2-.04.17-.28-.01-.11-.04-.45-.05-.77-.02-.48-.01-.59.05-.68.05-.08.09-.1.18-.08.17.04.26-.05.22-.23-.03-.17.04-.31.15-.31.12,0,.19-.09.19-.24,0-.28-.19-.31-.46-.06Z"/>
    <path class="cls-2" d="m55.07,51.34s-.08.13-.1.19c-.02.06-.09.22-.16.35-.16.3-.16.34-.04.45.23.2.2.39-.09.51-.15.06-.19.11-.23.25-.03.1-.08.26-.12.36-.06.16-.06.19,0,.29.04.06.11.11.16.11.12,0,.27-.24.27-.43,0-.19.07-.29.27-.47.17-.15.33-.47.29-.63-.01-.05-.05-.16-.08-.24-.05-.13-.05-.16.02-.27.18-.31.01-.72-.2-.48Z"/>
    <path class="cls-2" d="m59.52,51.68c-.09.09-.09.22,0,.25.1.04.26-.09.24-.2-.02-.12-.13-.14-.23-.05Z"/>
    <path class="cls-2" d="m56.74,51.75c-.08.07-.07.19.02.25.05.05.08.04.14-.01.06-.06.06-.09.02-.18-.06-.12-.1-.13-.18-.06Z"/>
    <path class="cls-2" d="m56.03,52.2c-.04.09.06.19.14.16.04-.01.06-.07.06-.13,0-.07-.03-.1-.09-.1-.05,0-.1.03-.12.06Z"/>
    <path class="cls-2" d="m55.63,52.7s-.08.2-.13.38-.12.37-.17.43c-.1.13-.1.23,0,.31.13.1.29,0,.38-.24.18-.46.12-1.12-.08-.87Z"/>
    <path class="cls-2" d="m61.26,52.74c-.1.13-.09.44,0,.52.14.13.26.09.37-.1.09-.18.09-.34-.01-.46-.08-.09-.29-.07-.37.04Z"/>
    <path class="cls-2" d="m53.06,52.85s-.03.06-.03.11c0,.06.03.08.1.07.13-.02.17-.21.04-.21-.04,0-.1.01-.11.03Z"/>
    <path class="cls-2" d="m58.51,53.17c-.07.13-.02.3.09.3.12,0,.21-.19.15-.29-.07-.11-.18-.11-.24,0Z"/>
    <path class="cls-2" d="m57.32,53.39c0,.05.04.1.08.1.1,0,.08-.17-.01-.19-.07-.01-.08,0-.07.09Z"/>
    <path class="cls-2" d="m59.45,53.57c0,.11.06.16.19.12s.08-.2-.07-.22c-.11-.01-.13,0-.13.1Z"/>
    <path class="cls-2" d="m62.76,55.81s-.06.13-.08.21c-.02.08-.12.27-.23.42-.27.37-.34.74-.17.81.09.03.12.02.35-.31.29-.39.38-.59.38-.85,0-.28-.13-.41-.26-.27Z"/>
    <path class="cls-2" d="m64.69,55.97c-.11.04-.17.18-.13.3.02.06.07.09.16.09.11,0,.15-.03.21-.16.08-.15.08-.16,0-.22-.09-.07-.1-.07-.23-.02Z"/>
    <path class="cls-2" d="m65.12,56.43s-.15.09-.24.17c-.19.16-.31.18-.45.08-.15-.11-.46-.08-.71.07-.38.22-.52.38-.52.57s-.07.3-.34.57c-.14.14-.21.26-.32.59-.12.34-.17.43-.31.53-.23.18-.46.59-.46.84,0,.3.03.32.48.33l.39.02.47-.24c.26-.13.53-.31.6-.39.08-.08.21-.19.29-.25.11-.08.18-.17.22-.3l.06-.19h.2c.76.07.97.02,1.17-.25.13-.16.07-.31-.17-.47-.3-.2-.35-.4-.23-.81.08-.25.18-.33.4-.29.49.09.47.09.5-.04.04-.14-.08-.39-.24-.49-.11-.07-.69-.12-.81-.06Zm-1.29,2.38s-.02.04-.04.04c-.02,0-.04-.02-.04-.04,0-.03.02-.04.04-.04.03,0,.04.02.04.04Z"/>
    <path class="cls-2" d="m65.85,57.45s0,.09.02.13c.04.03.06.03.1,0,.04-.04.04-.07-.02-.13-.07-.06-.08-.06-.1,0Z"/>
    <path class="cls-2" d="m60.23,60.28c-.11.04-.16.14-.1.22.04.07.69.11.96.06.17-.03.29-.18.21-.25-.06-.06-.92-.08-1.06-.03Z"/>
    <path class="cls-2" d="m67.41,24.25c-.04.06.05.14.11.11.07-.04.06-.16-.01-.16-.04,0-.08.02-.1.05Z"/>
    <path class="cls-2" d="m64.99,25.91s.02.05.04.04c.03-.01.04-.04.04-.07,0-.02-.02-.04-.04-.04-.02,0-.04.03-.04.07Z"/>
    <path class="cls-2" d="m70.53,26.07c-.39.34-1.33.71-2.37.93-.54.11-.8.24-1.17.57-.08.07-.12.14-.1.18.04.11.14.08.31-.07.24-.22.58-.3,1.47-.33.87-.03,1.2-.11,1.45-.32.08-.08.26-.21.39-.28.2-.12.26-.19.35-.38.14-.29.13-.41-.04-.43-.08,0-.17.03-.29.14Z"/>
    <path class="cls-2" d="m56.46,26.21c-.11.03-.31.08-.44.1-.13.02-.26.06-.3.09-.1.08-.08.41.03.51.13.13.22.11.4-.08.17-.17.39-.31.52-.31.04,0,.17.04.29.09l.22.09.1-.09c.05-.05.13-.09.16-.09.1,0,.3.17.36.3.04.1.08.13.18.13.07,0,.15-.03.18-.06.03-.03.1-.07.15-.09.05-.02.19-.09.29-.17.22-.16.34-.18.55-.08.18.09.21.14.16.24-.05.1-.05.12.05.17.07.04.11.02.23-.09.25-.23.4-.18.73.26.18.25.3.27.42.07.15-.25.25-.19.25.15,0,.19,0,.2.18.28.1.05.23.12.29.16.06.04.17.08.23.08.06,0,.17.02.23.04.13.05.51.42.55.53.03.09.19.14.25.08.04-.04.04-.07,0-.13-.03-.05-.05-.15-.05-.22,0-.1-.04-.17-.18-.29-.1-.09-.18-.19-.18-.23,0-.12-.13-.38-.23-.49-.1-.1-.78-.33-1.12-.38-.12-.02-.22-.05-.23-.06-.01-.02-.1-.06-.19-.09-.09-.03-.27-.09-.41-.16-.13-.06-.3-.12-.38-.13-.08-.01-.27-.06-.42-.11-.24-.08-.34-.08-.65-.06-.37.04-.71.04-1.54,0-.34-.02-.52,0-.67.04Z"/>
    <path class="cls-2" d="m70.99,26.81c-.07.06-.07.08-.01.16.08.11.16.12.23.01.04-.05.04-.09,0-.15-.07-.1-.13-.11-.21-.03Z"/>
    <path class="cls-2" d="m45.36,27.03s-.06.07-.06.14c0,.18.25.36.67.5.3.09.53.14,1.16.22.18.03.83-.09.92-.16.08-.07.07-.2-.03-.25-.05-.02-.29-.04-.53-.04-.26,0-.52-.03-.62-.06-.1-.03-.29-.07-.44-.09-.14-.02-.4-.09-.58-.16-.31-.12-.4-.14-.5-.09Z"/>
    <path class="cls-2" d="m55.03,27.06c-.1.12-.03.25.17.36.1.06.22.09.26.08.07-.03.07-.03,0-.13-.04-.05-.1-.16-.14-.24-.07-.15-.2-.18-.29-.08Z"/>
    <path class="cls-2" d="m54.27,27.26c-.11.1-.13.14-.09.21.07.12.2.15.35.07.19-.09.24-.23.12-.34-.1-.1-.23-.08-.38.06Z"/>
    <path class="cls-2" d="m57.21,27.48c-.1.06-.1.25,0,.28.12.04.22-.05.22-.19,0-.13-.08-.17-.21-.1Z"/>
    <path class="cls-2" d="m70.13,27.54c-.19.16-.43.23-.93.28-.66.07-1.37.21-1.48.28-.12.07-.14.25-.03.29.22.08,1.46-.03,1.95-.17.3-.09.37-.13.57-.34.23-.25.28-.38.16-.42-.09-.04-.09-.04-.23.08Z"/>
    <path class="cls-2" d="m56.18,27.56c-.14.15.01.35.21.28.1-.04.09-.26-.01-.32q-.11-.06-.2.04Z"/>
    <path class="cls-2" d="m54.89,27.83c-.11.06-.1.16.01.21.07.04.11.03.16,0,.08-.06.08-.19,0-.23-.08-.03-.07-.03-.16.02Z"/>
    <path class="cls-2" d="m60.17,27.84c-.07.08-.02.15.09.15.05,0,.08-.03.08-.08,0-.1-.11-.15-.18-.07Z"/>
    <path class="cls-2" d="m66.01,27.87c-.33.22-.1.39.27.21.14-.07.18-.11.17-.19-.02-.14-.24-.15-.44-.02Z"/>
    <path class="cls-2" d="m57.93,27.9c-.14.05-.18.26-.07.35.15.12.35-.12.25-.3-.05-.09-.07-.09-.18-.06Z"/>
    <path class="cls-2" d="m60.69,27.9c-.12.11.09.53.26.53.16,0,.16-.13,0-.36-.13-.19-.2-.24-.27-.17Z"/>
    <path class="cls-2" d="m49.16,28.06c-.04.1.02.15.18.15s.25-.06.22-.16c-.03-.08-.37-.08-.4,0Z"/>
    <path class="cls-2" d="m59.52,28.22c.02.16,0,.22-.13.4-.1.15-.19.23-.3.26-.17.05-.43.34-.39.44.02.05.07.06.23.03.19-.03.21-.02.36.12.18.17.19.24.05.47-.08.13-.09.18-.05.22.04.04.12.03.35-.06.35-.14.39-.14.5-.03.08.09.08.09,0,.15-.05.03-.21.1-.36.14-.15.05-.35.11-.44.15-.24.09-.32.06-.4-.19-.07-.2-.07-.22.03-.41.05-.11.08-.22.07-.26-.09-.22-.48.15-.48.45,0,.26-.08.43-.2.43-.13,0-.16-.04-.19-.31-.02-.15,0-.29.05-.43.04-.13.06-.27.04-.39-.02-.14,0-.22.07-.35.18-.33.09-.61-.17-.5-.07.03-.28.06-.48.06l-.36.02-.18.19c-.14.16-.22.2-.37.22-.25.03-.33-.01-.46-.25-.1-.2-.28-.37-.38-.37-.08,0-.16.16-.13.26.02.05.08.15.14.22.14.16.13.27-.06.32-.08.03-.15.06-.17.09,0,.03.02.16.07.28.15.41.15.44-.03.62l-.16.16h-.46c-.75-.01-1.29.03-1.49.12-.1.04-.27.09-.37.11-.29.04-.52.17-.63.35-.12.2-.44.34-.67.31-.21-.03-.3.04-.2.19.1.14.05.2-.2.28-.17.06-.28.13-.43.31-.12.13-.24.23-.27.23-.03,0-.14-.08-.24-.17-.13-.13-.21-.17-.3-.17-.18,0-.22.06-.25.38-.03.24-.02.27.06.31.05.03.13.05.18.05s.15.06.22.14l.14.14.17-.09c.4-.2.71-.39.84-.5.08-.06.24-.17.36-.23.13-.06.42-.27.67-.45.56-.42.92-.59,1.38-.65.2-.03.43-.06.52-.07.13-.02.23,0,.48.13.4.19.5.19.74,0,.19-.15.19-.16.19-.45,0-.31.08-.47.25-.47.22,0,.35.34.18.49-.21.18-.14.43.16.63.11.07.22.21.31.37.16.29.29.37.49.29.16-.07.15-.25-.02-.33-.09-.05-.13-.1-.13-.17,0-.09.02-.11.15-.11.08,0,.21.04.29.09.17.1.21.1.29.04.22-.18.42-.31.5-.33.11-.03.2,0,.2.06,0,.08-.29.38-.43.45-.1.05-.15.1-.14.15.01.06.07.07.33.08h.31s.41-.37.41-.37c.56-.53.72-.64,1.23-.85.43-.18.46-.19.88-.19.46,0,.8.08.97.22.05.04.21.13.36.19.31.13.45.1.41-.08-.04-.21.05-.25.52-.24.4.01.43,0,.5-.09.09-.13.09-.5,0-.63-.05-.06-.11-.09-.22-.09-.13,0-.17.03-.27.17-.12.18-.23.26-.37.26-.05,0-.17.07-.28.15s-.21.15-.23.15c-.03,0-.09-.05-.16-.11-.1-.1-.11-.13-.08-.34.03-.22.03-.23-.11-.28-.11-.04-.13-.08-.13-.17.02-.15.17-.15.25,0,.08.14.3.29.43.29.05,0,.14-.05.2-.1.05-.06.16-.12.23-.13.18-.04.25-.14.16-.23-.06-.06-.18-.08-.58-.09-.48-.01-.51-.02-.58-.12-.04-.06-.07-.18-.06-.3.01-.26-.11-.38-.38-.36-.21.02-.28.14-.11.2.25.09.28.37.04.42-.48.1-.68.16-.83.26-.1.06-.2.1-.24.09-.08-.03-.08-.22,0-.28.04-.03.07-.1.06-.15-.01-.08-.04-.09-.21-.09-.11,0-.21-.03-.21-.05,0-.03-.04-.08-.08-.13-.05-.07-.08-.07-.24-.03-.25.07-.32.06-.37-.03-.04-.07-.03-.11.04-.2.1-.13.09-.28-.03-.41-.13-.14-.19-.09-.16.11Zm-1.64.71c.08.02.1.06.1.23,0,.16-.02.22-.1.27-.18.12-.16.72.03.72.05,0,.07.05.07.17,0,.09-.02.17-.04.17-.03,0-.08.07-.12.15-.12.25-.25.17-.21-.12.02-.12,0-.18-.13-.32-.09-.11-.17-.25-.18-.35-.04-.21-.09-.22-.42-.07-.33.16-.48.15-.58-.04-.07-.14-.07-.16,0-.26.08-.13.33-.16.43-.05.08.1.16.08.27-.06.07-.09.13-.13.23-.13s.18-.05.31-.17c.19-.19.19-.19.35-.15Zm3.82.78s.07.05.07.09c0,.1-.17.15-.53.14-.28,0-.34-.03-.36-.08,0-.05.03-.09.11-.12.14-.05.59-.07.7-.03Zm-4.55.68c.07.05.08.09.05.26-.02.11-.07.24-.12.3-.08.09-.08.09-.15.02-.11-.13-.02-.63.1-.63.02,0,.07.03.11.06Z"/>
    <path class="cls-2" d="m50.57,28.15c-.15.06-.15.19,0,.28.11.06.26-.02.26-.13,0-.07-.13-.18-.19-.17,0,0-.04.01-.08.03Z"/>
    <path class="cls-2" d="m56.77,28.25s.02.04.04.04c.03,0,.04-.02.04-.04,0-.03-.02-.04-.04-.04-.02,0-.04.02-.04.04Z"/>
    <path class="cls-2" d="m60.12,28.28c-.07.08-.04.21.04.22.12.02.19-.06.16-.18-.03-.12-.12-.15-.21-.05Z"/>
    <path class="cls-2" d="m54.8,28.5c-.06.06-.03.14.06.14.06,0,.09-.03.09-.09,0-.08-.09-.12-.15-.06Z"/>
    <path class="cls-2" d="m69.4,28.62c-.06.03-.29.1-.51.15-.56.13-.6.15-.6.28,0,.06.02.12.04.13.07.04.05.18-.03.21-.04.02-.24.04-.44.06-.39.03-.99.16-1.19.25-.14.07-.17.19-.06.28.05.04.11.04.27,0,.17-.05.22-.04.39.02.11.04.24.12.3.17.14.13.32.19.51.19.14,0,.16-.01.21-.18.04-.1.1-.2.17-.25.25-.15.41-.32.41-.46,0-.18.09-.25.47-.37.58-.18.68-.27.49-.46-.12-.12-.26-.13-.42-.04Z"/>
    <path class="cls-2" d="m55.29,28.69s-.12.12-.17.2c-.06.09-.17.16-.26.19-.23.07-.23.22-.03.45.09.09.16.19.16.21,0,.14.34.24.55.16.18-.06.03-.32-.18-.32-.05,0-.12-.03-.17-.06-.11-.08-.06-.27.1-.34.16-.07.26-.27.21-.41-.05-.13-.11-.16-.21-.09Z"/>
    <path class="cls-2" d="m53.44,28.8c-.04.09.04.21.15.21.13,0,.12-.25-.02-.27-.06,0-.11.01-.13.06Z"/>
    <path class="cls-2" d="m47.31,29.07c-.19.1-.31.11-.44.02-.13-.09-.34-.06-.36.04-.02.12.26.35.56.45.21.07.41.1.95.12.66.03.71.02,1.04-.08.19-.06.39-.14.44-.19.19-.17.04-.41-.21-.32-.21.08-1.08.05-1.41-.04-.35-.1-.38-.1-.58,0Z"/>
    <path class="cls-2" d="m66.53,29.22c-.32.13-.4.19-.38.3.02.13.21.14.41,0,.09-.06.19-.11.21-.11.08,0,.22-.17.2-.24-.04-.09-.13-.08-.43.04Z"/>
    <path class="cls-2" d="m53.43,29.42c-.06.04-.04.06.07.15q.2.16.29.31c.14.23.45.24.48.02.02-.11-.12-.2-.36-.24-.12-.02-.18-.06-.22-.15-.06-.13-.16-.16-.26-.1Z"/>
    <path class="cls-2" d="m70.04,29.56c-.07.08,0,.17.13.16.07,0,.11-.04.11-.1,0-.1-.16-.14-.24-.06Z"/>
    <path class="cls-2" d="m64.42,29.62s0,.13.03.21c.11.25.1.31-.04.52-.08.12-.14.24-.14.28,0,.12-.13.25-.28.28-.19.04-.25.09-.25.22s.13.19.32.16c.23-.04.29.05.21.35-.05.19-.05.25,0,.3.09.1.22.08.41-.09.19-.16.31-.19.4-.09.04.05.05.1.01.21-.13.41.38.62,1.09.44.31-.08.41-.16.33-.26-.04-.05-.11-.06-.34-.04-.32.03-.53-.03-.6-.16-.04-.06-.03-.1.02-.16.14-.15.06-.47-.15-.64-.04-.03-.13-.06-.19-.06-.15,0-.3-.07-.3-.13,0-.03-.04-.1-.09-.18-.08-.1-.09-.15-.04-.23.08-.18.24-.14.4.12.13.2.15.22.31.2.16-.01.17-.02.17-.16s-.02-.16-.24-.27c-.13-.07-.26-.17-.29-.24-.04-.06-.21-.24-.38-.39-.26-.23-.32-.26-.35-.2Z"/>
    <path class="cls-2" d="m50.8,29.88c-.17.17-.43.39-.59.49-.31.2-.36.21-1.36.28-.41.03-.73-.06-1.08-.28-.25-.16-.27-.16-.41-.02-.06.07-.14.1-.21.09-.08,0-.1-.04-.1-.19,0-.09-.02-.2-.04-.23-.06-.1-.21-.05-.32.11-.06.09-.14.21-.18.26-.09.12-.06.16.16.27.1.05.21.14.24.21.08.16.24.29.42.35.21.06.31.06.52-.04.46-.21.67,0,.38.38-.11.13-.18.18-.31.2-.2.03-.23.1-.2.37.04.31.12.39.31.32.05-.02.07-.08.07-.21,0-.1.03-.22.07-.28.07-.09.1-.1.27-.07.19.02.21.02.41-.18.15-.14.33-.25.59-.35.28-.11.44-.22.67-.42.17-.15.39-.31.5-.37.1-.05.22-.16.26-.22.04-.07.13-.22.19-.33.13-.21.15-.36.07-.41-.03-.01-.18.1-.34.27Zm-3.1.8c.13.13,0,.29-.17.21-.08-.04-.12-.17-.05-.23.04-.05.17-.03.23.02Z"/>
    <path class="cls-2" d="m49.87,29.74s0,.09.02.12c.07.07.21.02.21-.07,0-.11-.19-.15-.23-.04Z"/>
    <path class="cls-2" d="m69.19,29.83c-.11.05-.14.08-.13.16.01.09.04.1.25.11.19,0,.24,0,.26-.06.07-.17-.16-.3-.38-.21Z"/>
    <path class="cls-2" d="m52.78,29.87s-.17.09-.28.11c-.1.02-.21.06-.23.09-.05.06-.08.55-.04.62.02.03.1.06.17.06.1,0,.15-.03.22-.15.05-.09.21-.22.36-.31.2-.12.26-.18.26-.25,0-.2-.29-.3-.47-.17Z"/>
    <path class="cls-2" d="m48.96,30.19s.03.04.07.04.07-.02.07-.04c0-.03-.03-.04-.07-.04-.04,0-.07.02-.07.04Z"/>
    <path class="cls-2" d="m51.67,30.43c-.13.12-.16.4-.05.44.03,0,.11-.03.19-.07.15-.09.18-.2.1-.35-.06-.1-.15-.1-.24-.01Z"/>
    <path class="cls-2" d="m66.97,30.62s-.17.04-.25.04c-.19,0-.57.15-.65.25-.03.04-.06.11-.06.15,0,.09.5.48.73.57.15.06.16.08.16.25,0,.11.03.21.06.24.08.06.28.02.4-.07.1-.09.1-.32-.01-.42-.11-.09-.12-.25-.02-.32.04-.03.23-.06.48-.06.45,0,.52-.03.64-.25.06-.11.06-.13,0-.22-.05-.08-.12-.1-.33-.13-.56-.05-1.07-.06-1.15-.03Z"/>
    <path class="cls-2" d="m50.89,31.21c-.12.08-.13.27-.03.31.09.03.38-.1.38-.18s-.12-.2-.19-.2c-.03,0-.1.03-.16.07Z"/>
    <path class="cls-2" d="m69.2,31.33s-.02.11,0,.16c0,.08.04.1.14.1.16,0,.25-.12.18-.23-.06-.1-.28-.12-.31-.03Z"/>
    <path class="cls-2" d="m63.79,31.44c-.1.06-.04.2.08.2.07,0,.12-.03.13-.08.01-.07-.05-.16-.13-.16-.01,0-.05.02-.08.04Z"/>
    <path class="cls-2" d="m55.83,31.55c-.04.1-.04.13.11.27.3.3.17.51-.22.36-.61-.25-1.34-.29-1.9-.12-.83.26-1.53.52-1.95.72-.26.12-.5.22-.54.22-.1,0-.3.17-.3.25,0,.12.15.22.34.25.13.02.26-.02.57-.14.22-.09.52-.18.67-.22.15-.03.32-.08.37-.1.16-.08.42-.06.53.05.08.08.12.09.2.04.06-.03.18-.07.27-.09.15-.04.17-.06.18-.21.01-.13.03-.16.13-.17.06,0,.21-.03.34-.05.18-.04.29-.03.55.03.42.09.59.06.91-.13s.36-.28.33-.58c-.02-.2-.05-.26-.17-.36-.17-.15-.34-.15-.41,0Z"/>
    <path class="cls-2" d="m60.08,31.55c-.42.11-.58.18-.9.4-.28.19-.31.3-.16.44.17.14.29.13.72-.08l.38-.18.63.03c.65.03.68.03,1.73.36.75.23,1.02.28,1.5.31.41.02.46.02.57-.07.25-.19.12-.34-.29-.34-.13,0-.35-.03-.48-.06s-.29-.06-.35-.06c-.08,0-.56-.2-.99-.41-.13-.06-.96-.3-1.29-.36-.35-.07-.66-.06-1.08.06Z"/>
    <path class="cls-2" d="m67.99,31.8c-.14.06-.18.25-.08.32.13.09.41.07.51-.03.12-.11.11-.19,0-.28-.12-.08-.28-.09-.43-.02Z"/>
    <path class="cls-2" d="m48.41,32.37c-.18.17-.04.34.26.31.34-.04.42-.19.15-.31-.17-.08-.33-.08-.42,0Z"/>
    <path class="cls-2" d="m49.62,32.9s-.08.1-.08.13c0,.09.14.18.29.18.21,0,.33-.07.33-.19,0-.06-.04-.13-.08-.15-.14-.07-.38-.05-.46.03Z"/>
    <path class="cls-2" d="m66.59,32.93s.03.07.07.07.06-.02.05-.05c-.03-.08-.12-.09-.12-.02Z"/>
    <path class="cls-2" d="m48.88,33s-.05.09-.05.13-.04.14-.09.21c-.11.15-.1.35.02.38.09.02.57-.36.57-.45,0-.03-.04-.12-.09-.19-.09-.13-.25-.16-.34-.07Z"/>
    <path class="cls-2" d="m59.64,33.02c-.22.08-.33.23-.32.42.02.19.14.2.33,0,.14-.14.17-.16.3-.13.08.02.23.03.33.04.16,0,.18-.01.19-.11.02-.14-.04-.19-.31-.25-.25-.06-.28-.06-.51.02Z"/>
    <path class="cls-2" d="m61.21,33.32c-.04.09,0,.18.13.26.14.09.25.05.25-.09,0-.18-.33-.33-.38-.18Z"/>
    <path class="cls-2" d="m58.75,33.35c-.08.07-.07.2.02.24.1.04.23-.1.17-.19-.06-.09-.12-.11-.19-.05Z"/>
    <path class="cls-2" d="m49.82,33.52c-.17.21-.18.31-.04.41.1.06.13.06.35,0,.23-.06.3-.13.3-.26,0-.06-.34-.32-.42-.32-.03,0-.12.08-.19.18Z"/>
    <path class="cls-2" d="m64.56,33.38s-.14.08-.28.12c-.24.06-.42.19-.42.28,0,.08.23.1.38.03.08-.04.22-.08.32-.09.25-.04.38-.14.37-.25,0-.07-.05-.1-.18-.11-.09,0-.17,0-.19.03Z"/>
    <path class="cls-2" d="m54.65,33.7l-.28.28-.17-.05c-.14-.04-.17-.04-.22.03-.07.09-.04.18.1.34.15.16.25.15.38-.02.06-.07.23-.25.39-.4.19-.18.28-.29.26-.35-.03-.17-.17-.12-.46.17Z"/>
    <path class="cls-2" d="m60.58,33.71c-.03.09.5.57.63.58.05,0,.16.04.24.09.08.05.16.09.17.09.06,0,.01-.14-.07-.22-.05-.05-.11-.14-.13-.2-.03-.09-.13-.16-.35-.26-.34-.15-.44-.17-.48-.07Z"/>
    <path class="cls-2" d="m55.37,33.76c-.19.12-.26.21-.22.31.04.12.21.11.42-.03.17-.11.25-.24.2-.32-.04-.07-.25-.05-.4.03Z"/>
    <path class="cls-2" d="m56.25,33.88s0,.09.02.11c.06.06.19,0,.19-.09,0-.1-.17-.11-.21-.01Z"/>
    <path class="cls-2" d="m68.36,33.89c-.07.07-.03.27.08.34.19.12.34-.04.25-.26-.03-.08-.08-.1-.17-.1-.07,0-.14.01-.16.03Z"/>
    <path class="cls-2" d="m53.17,33.96c-.14.06-.19.16-.1.22.07.04.34-.06.38-.13.06-.15-.05-.18-.27-.08Z"/>
    <path class="cls-2" d="m48.1,34.02c-.11.1.18.31.34.26.08-.03.09-.16.02-.24-.06-.06-.31-.07-.36-.02Z"/>
    <path class="cls-2" d="m49.77,34.37c-.08.02-.13.08-.17.24l-.06.2-.25-.03-.25-.03.02.13c.02.14.15.22.44.26.18.03.22.01.47-.17.38-.27.48-.29.64-.12.15.16.19.16.31.05.07-.07.08-.11.04-.17-.03-.05-.09-.09-.15-.09s-.18-.06-.27-.13c-.09-.07-.22-.13-.29-.13s-.18,0-.25-.02c-.07-.01-.18,0-.24.01Z"/>
    <path class="cls-2" d="m47.36,34.61c-.09.11-.04.22.11.22.12,0,.13-.01.13-.13,0-.1-.02-.13-.09-.14-.05,0-.12.02-.15.05Z"/>
    <path class="cls-2" d="m48.35,35.05c-.13.08-.13.26,0,.32.11.06.3-.02.38-.14.04-.06.03-.09-.06-.16-.13-.1-.18-.1-.31-.01Z"/>
    <path class="cls-2" d="m47.52,35.31c-.09.08-.09.12,0,.19.1.09.29.02.29-.1,0-.16-.16-.2-.29-.09Z"/>
    <path class="cls-2" d="m48.94,35.37s.04.04.05.04c0,0,.02-.02.02-.04,0-.03-.02-.04-.05-.04-.02,0-.03.02-.02.04Z"/>
    <path class="cls-2" d="m48.03,35.62s.03.04.07.04c.04,0,.05-.02.04-.04-.01-.03-.04-.04-.07-.04-.02,0-.04.02-.04.04Z"/>
    <path class="cls-2" d="m50.71,50.41c-.33.37-.28.56.09.29.35-.26.48-.55.24-.55-.07,0-.17.09-.33.26Z"/>
    <path class="cls-2" d="m50.91,51.24c-.03.06-.08.18-.09.27-.02.09-.06.22-.09.29-.09.17-.09.93,0,.97.12.04.25-.13.31-.42.13-.58.2-1,.17-1.1-.03-.13-.22-.13-.31,0Z"/>
    <path class="cls-2" d="m49.86,51.71c-.19.29-.23.47-.11.57.14.14.25.06.42-.29.06-.11.1-.28.11-.37,0-.14,0-.16-.12-.17-.1-.01-.14.02-.3.25Z"/>
    <path class="cls-2" d="m48.08,55.9c-.07.06-.17.17-.21.26l-.08.15.13.13c.16.16.14.3-.05.41-.18.11-.42.52-.42.72,0,.25.29.47.83.66.25.08.63.22.84.31.37.14.42.16.71.13.6-.05.69-.15.5-.56-.09-.19-.14-.26-.27-.31-.14-.06-.18-.06-.38.02-.28.11-.41.11-.5,0-.17-.17-.02-.4.33-.53.1-.03.2-.09.23-.13.07-.11,0-.29-.14-.34-.1-.04-.16-.03-.34.06-.13.06-.25.11-.29.11-.13,0-.21-.15-.26-.47-.06-.45-.24-.74-.44-.74-.02,0-.1.05-.17.1Zm.18,1.38c.1.07.08.3-.03.32-.1.02-.25-.11-.25-.21,0-.08.08-.17.16-.17.03,0,.09.03.13.06Z"/>
    <path class="cls-2" d="m46.91,56.31c-.13.13-.11.35.04.35.11,0,.18-.09.18-.22,0-.18-.11-.24-.22-.13Z"/>
    <path class="cls-2" d="m46.23,57.06c-.23.24-.55.77-.67,1.12-.08.22.43-.09.67-.39.16-.22.22-.25.71-.41.03,0,.07-.06.1-.1.04-.07.02-.12-.08-.25-.08-.09-.13-.18-.13-.2,0-.02-.07-.04-.16-.04-.14,0-.2.03-.43.27Z"/>
    <path class="cls-2" d="m48.29,69.23c-.05.06-.04.08.03.13.07.05.09.05.15,0,.05-.05.05-.08,0-.13-.07-.09-.11-.09-.18,0Z"/>
    <path class="cls-2" d="m45.3,69.94c-.11.05-.33.13-.49.17-.42.13-.71.25-.73.32-.06.16.01.18.54.2.29,0,.58,0,.64-.01s.25-.04.41-.06c.26-.03.3-.02.38.06.16.16.13.34-.11.55-.32.28-.25.41.31.56.19.05.3.11.43.24.09.09.2.17.24.17.1,0,.3.17.3.26,0,.04-.03.1-.07.13-.17.14-.16.2.06.43s.33.26.42.12c.04-.05.02-.15-.05-.38-.06-.17-.09-.33-.08-.36,0-.03,0-.22-.04-.41-.07-.44-.22-.72-.46-.82-.31-.13-.41-.22-.41-.36,0-.1.03-.14.16-.2.13-.06.19-.06.41-.02.38.08.47.13.6.36.06.11.2.29.29.39.21.21.38.51.46.82.08.29.17.46.54.93l.32.41-.02.25c-.02.21,0,.27.06.34.14.14.25.05.28-.25.1-.96.09-.98-.07-1.29-.24-.45-.26-.75-.06-.75.06,0,.44.29.85.65.33.29.57.47.93.7.15.09.38.25.5.35.13.1.35.25.51.32.16.07.4.24.54.37s.32.27.41.33c.09.06.3.22.48.35.17.13.43.29.58.35.16.06.35.17.44.24.25.22.46.26.52.11.03-.08-.08-.19-.29-.26-.1-.04-.22-.14-.31-.26-.08-.1-.16-.19-.18-.19s-.27-.2-.55-.44c-.52-.45-.87-.73-1.24-.97-.49-.33-1.68-1.28-1.71-1.37-.01-.04-.03-.11-.03-.16,0-.24-.41-.59-.69-.59-.21,0-.44-.13-.74-.43-.31-.32-.29-.31-1.18-.52-.22-.05-.51-.15-.65-.22-.19-.09-.31-.13-.5-.13-.14,0-.33-.03-.42-.06-.23-.09-.31-.09-.46.04-.08.06-.19.11-.25.11-.07,0-.2-.05-.29-.11-.19-.13-.28-.13-.54-.01Z"/>
    <path class="cls-2" d="m67.31,70.79c-.36.01-.45.05-.45.2,0,.16.13.23.54.26.37.03.39.03.48-.07.11-.11.12-.21.04-.31-.07-.09-.2-.1-.62-.09Z"/>
    <path class="cls-2" d="m40.64,71.85c-.09.14-.07.26.05.28.11.02.25-.16.23-.28-.02-.13-.2-.12-.28,0Z"/>
    <path class="cls-2" d="m44.78,71.99c-.13.09-.11.19.08.51.17.28.63.72.74.7.13-.02.13-.15-.03-.6-.11-.33-.17-.44-.28-.53-.2-.14-.38-.17-.51-.09Z"/>
    <path class="cls-2" d="m49.92,74.37c-.06.18.19.3.29.14.06-.11-.02-.23-.15-.23-.07,0-.12.03-.13.09Z"/>
    <path class="cls-2" d="m39.77,74.39s-.04.07.02.11c.08.07.18,0,.14-.1-.04-.09-.09-.09-.16,0Z"/>
    <path class="cls-2" d="m41.74,75.2c.02.13.19.14.19.01,0-.06-.04-.09-.1-.1-.09-.01-.1,0-.09.09Z"/>
    <path class="cls-2" d="m50.48,75.28c-.06.11.06.51.19.63.07.07.09.07.15.01.06-.06.06-.09,0-.3-.08-.26-.17-.43-.24-.43-.02,0-.06.04-.09.09Z"/>
    <path class="cls-2" d="m56.35,75.93c-.04.12,0,.17.14.17.08,0,.11-.02.11-.1,0-.09-.07-.16-.18-.16-.02,0-.05.04-.07.09Z"/>
    <path class="cls-2" d="m62.51,76.44c-.28.05-.44.11-.74.3-.13.08-.33.17-.42.2-.1.03-.31.11-.47.18-.17.07-.41.14-.57.16-.16.02-.38.08-.51.14-.24.12-.7.2-1.13.2-.2,0-.26-.02-.41-.13l-.18-.14h-.6c-.59,0-.6,0-.69.11-.11.13-.12.19-.04.29.07.09.42.13,1.24.13.62,0,.79.04.93.22.03.03.12.08.19.09.21.04.75-.06,1.02-.2.13-.07.4-.15.59-.19.28-.04.39-.09.55-.22.16-.12.25-.16.39-.16.14,0,.21-.03.34-.16.09-.09.2-.2.23-.25.08-.12.31-.23.46-.23.06,0,.17-.05.24-.1.1-.09.12-.12.08-.19-.06-.09-.18-.1-.48-.06Z"/>
    <path class="cls-2" d="m46.57,77.5s-.02.12,0,.19c0,.09.04.12.12.12.16,0,.21-.12.13-.25-.09-.12-.2-.15-.24-.05Z"/>
    <path class="cls-2" d="m57.94,80.37c-.28.1-.58.28-.62.37-.04.11.03.26.14.32.11.06.14.05.32-.04.11-.06.2-.12.2-.14,0-.02.03-.03.07-.03.09,0,.35-.13.39-.19.02-.03.04-.1.04-.17,0-.09-.03-.13-.12-.16-.14-.06-.13-.06-.42.04Z"/>
  </g>
  <g>
    <path d="m32.31,27.05c-.75.36-1.44.5-2.08.41-.65-.08-1.22-.32-1.73-.71-.5-.4-.91-.86-1.21-1.42-.39-.71-.66-1.5-.8-2.36-.13-.86-.14-1.74,0-2.64.13-.9.38-1.77.75-2.59.37-.82.86-1.55,1.45-2.19.6-.63,1.27-1.1,2.01-1.4.53-.22,1.02-.3,1.46-.24.44.06.75.33.93.81.11.29.17.64.18,1.04.01.4-.02.81-.1,1.22-.07.41-.2.77-.36,1.08-.17.31-.38.52-.64.63-.11.05-.25.06-.4.05-.15-.01-.31-.08-.48-.2.1-.23.21-.51.33-.84.12-.32.23-.66.32-1,.09-.34.15-.67.18-.97.03-.31,0-.55-.07-.75-.07-.17-.18-.29-.34-.34-.16-.05-.39-.02-.69.1-.53.21-1.01.6-1.42,1.15-.41.55-.75,1.2-1.01,1.95-.25.75-.42,1.54-.49,2.36s-.04,1.62.08,2.4c.13.78.35,1.46.65,2.05.23.44.52.82.87,1.14s.75.53,1.19.63c.45.1.92.02,1.44-.22.54-.25,1.01-.63,1.44-1.15s.77-1.1,1.05-1.76c.28-.66.46-1.31.55-1.96.21.03.31.05.51.09-.14.79-.36,1.55-.66,2.28-.3.73-.69,1.39-1.17,1.97-.48.58-1.07,1.04-1.77,1.37Z"/>
    <path d="m37.75,24.13c-.34.12-.67.12-1,0-.33-.12-.58-.39-.74-.81-.13-.34-.18-.74-.16-1.19.02-.46.11-.94.28-1.44.16-.5.39-.98.69-1.43.29-.45.64-.86,1.04-1.2.4-.34.84-.59,1.31-.73.49-.15.94-.15,1.35-.03.4.12.65.37.75.73.07.27.02.49-.16.67-.18.18-.42.28-.72.31,0-.1,0-.19-.02-.28,0-.09-.03-.19-.05-.29-.06-.2-.15-.36-.29-.5-.14-.13-.35-.16-.65-.07-.32.09-.61.29-.88.57-.27.29-.5.63-.7,1.03s-.35.81-.45,1.24c-.11.43-.16.84-.17,1.23,0,.39.04.71.13.99.11.31.28.42.53.34.24-.08.47-.28.69-.6.22-.32.43-.69.63-1.12.2-.43.39-.86.57-1.3.18-.44.34-.81.48-1.12.02-.06.06-.1.11-.11.04,0,.14,0,.28,0,.14,0,.27.02.4.06.13.04.21.11.24.22.03.1.01.24-.04.42-.05.18-.11.38-.19.6-.07.22-.13.43-.17.64-.04.21-.03.4.01.57.04.13.11.24.22.33.11.09.24.11.41.07.26-.07.56-.35.94-.82.38-.48.7-1.2,1.01-2.17.15.08.23.13.38.21-.14.6-.34,1.16-.6,1.66-.26.5-.55.92-.88,1.26-.33.34-.69.56-1.09.68-.43.12-.79.09-1.07-.1-.29-.19-.49-.43-.6-.72,0-.02-.01-.03-.01-.04,0,0,0-.02,0-.03-.28.61-.54,1.1-.8,1.49-.26.39-.58.65-.97.79Z"/>
    <path d="m45.25,21.99c-.47.1-.87.06-1.22-.14-.35-.19-.59-.55-.72-1.08-.1-.41-.14-.94-.12-1.59.02-.65.1-1.34.22-2.05-.08,0-.18,0-.3.01-.11.01-.22,0-.34,0-.04-.19-.07-.28-.11-.47.19-.02.35-.04.47-.06.12-.02.25-.04.38-.05.12-.59.28-1.16.46-1.72.18-.56.39-1.07.61-1.52.22-.45.44-.82.67-1.1.23-.28.45-.44.66-.47.12-.02.25,0,.37.05.12.06.2.16.22.3.03.2-.04.51-.23.93s-.41.91-.68,1.48c-.26.57-.5,1.17-.71,1.8.09-.02.19-.04.28-.06.09-.02.18-.04.26-.05.51-.1.97-.19,1.38-.28.41-.09.83-.18,1.25-.29.03.2.05.3.08.5-.63.15-1.21.29-1.73.41-.52.13-1.03.24-1.51.35-.03,0-.07.01-.1.02-.03,0-.07.01-.1.02-.14.54-.24,1.1-.3,1.65-.06.56-.03,1.08.08,1.57.09.41.23.69.4.83.18.14.42.18.72.12.54-.11,1.04-.45,1.53-1.01.49-.56.89-1.27,1.21-2.14.1.05.16.07.26.12-.2.64-.47,1.25-.81,1.8-.34.56-.72,1.02-1.15,1.39-.43.37-.89.61-1.4.72Z"/>
    <path d="m53.76,21.41c.04-.37.08-.76.14-1.14.06-.39.13-.81.23-1.29.1-.47.23-1.01.39-1.62.17-.61.37-1.32.63-2.12-.17.02-.37.04-.57.07-.2.03-.39.06-.57.08-.02-.33.11-.59.38-.78.27-.19.64-.34,1.1-.44.04-.15.08-.26.11-.34.03-.08.07-.19.12-.31.04-.13.11-.3.2-.52.09-.22.21-.55.37-.96.16-.42.36-.96.63-1.64.02-.05.07-.16.13-.31s.09-.3.09-.43c0-.08-.02-.14-.05-.17-.03-.03-.1-.05-.2-.04-.25,0-.51.1-.77.29-.25.19-.48.44-.69.73-.2.29-.36.59-.47.9-.11.31-.16.58-.15.82,0,.08.02.18.05.28.03.1.08.24.16.41-.51.02-.88-.05-1.12-.23-.24-.18-.37-.41-.39-.71-.02-.35.08-.71.32-1.07.23-.37.55-.71.95-1.02.4-.31.83-.57,1.29-.76.46-.19.9-.29,1.29-.29.41,0,.7.08.85.26.15.18.23.37.23.59,0,.11-.02.23-.05.34-.03.11-.07.22-.11.32-.56,1.48-.82,2.23-1.32,3.72.14-.01.29-.02.44-.02.15,0,.3,0,.46,0,.58,0,1.13.01,1.65.05.51.03,1.01.08,1.48.14.34-.85.63-1.55.88-2.09.24-.54.47-.99.66-1.35.19-.35.37-.67.53-.93.06-.08.14-.18.24-.32.11-.13.26-.24.45-.34.19-.09.45-.13.75-.1-.2.34-.44.8-.72,1.37-.28.57-.56,1.2-.84,1.87-.28.68-.54,1.35-.79,2.02.17.01.4.03.7.07.3.04.58.07.84.09-.39.29-.73.46-1.02.52-.29.06-.55.08-.78.07-.16.47-.3.91-.42,1.34-.13.43-.23.83-.32,1.19-.16.65-.29,1.22-.37,1.71-.08.49-.13.88-.14,1.19,0,.16,0,.31,0,.44.01.13.02.26.04.38-.54-.08-.91-.21-1.1-.42-.19-.21-.29-.56-.28-1.07,0-.24.03-.5.07-.79.04-.29.13-.63.23-1.01.1-.37.24-.81.41-1.3.18-.49.39-1.06.65-1.71-.72-.03-1.31-.04-1.78-.03-.47,0-.88.01-1.23.03-.35.01-.7.04-1.06.08-.01.04-.04.13-.08.27-.04.13-.12.37-.23.72-.11.34-.27.85-.47,1.51-.2.67-.47,1.56-.78,2.69-.1.39-.29.67-.57.84-.28.18-.52.27-.72.29Z"/>
    <path d="m64.33,20.73c-.48-.05-.8-.23-.95-.55s-.22-.66-.19-1.02c.03-.33.11-.66.25-1,.14-.33.33-.64.55-.92.23-.28.47-.5.74-.65.27-.15.53-.22.78-.19.08,0,.17.03.28.07.11.04.18.09.22.14-.16.14-.32.31-.49.52-.17.21-.33.43-.47.67-.15.24-.27.48-.36.73-.09.25-.15.48-.17.7-.02.21,0,.38.07.52.07.14.2.22.41.25.21.02.47-.06.78-.24.32-.18.63-.4.93-.65-.31-.35-.53-.7-.64-1.08-.11-.37-.14-.81-.08-1.31.03-.21.12-.45.27-.71.16-.26.39-.48.69-.64.3-.17.69-.22,1.16-.15.51.08.84.26,1,.54.16.28.21.59.15.92-.07.38-.25.78-.55,1.21-.3.43-.63.83-.99,1.2.12.08.27.14.45.17.17.03.37.02.61,0,.24-.03.49-.11.74-.24.25-.13.47-.32.66-.58.11.1.16.15.26.26-.35.47-.74.78-1.19.95-.44.17-.85.22-1.24.16-.14-.02-.28-.06-.42-.11-.14-.05-.27-.1-.38-.16-.43.35-.91.65-1.42.9-.52.25-1.01.34-1.49.29Zm2.89-2.04c.32-.32.61-.66.86-1.04.26-.38.42-.74.47-1.08.04-.23.03-.41-.04-.53-.06-.12-.18-.19-.34-.22-.22-.03-.47.07-.74.31-.27.24-.43.57-.49.99-.03.21-.02.48.02.8.04.32.13.58.26.77Z"/>
    <path d="m70.46,21.65c-.36-.08-.62-.29-.79-.66-.17-.36-.22-.75-.14-1.17.05-.28.16-.61.34-.97s.38-.72.61-1.05c.24-.33.47-.6.69-.81.23-.21.42-.29.57-.26.08.02.2.08.35.19.15.11.27.24.38.38-.16.13-.37.35-.62.64-.25.29-.48.62-.69.97-.21.36-.35.69-.42,1,0,.04-.02.14-.03.29-.01.15,0,.3.03.45.04.15.14.23.3.27.18.04.4-.01.65-.15.25-.14.52-.33.82-.57.29-.24.59-.51.89-.79.3-.29.58-.57.83-.84.26-.27.47-.51.64-.69.1.04.23.1.38.18.15.08.28.18.39.27.11.1.14.21.11.33,0,.03-.1.14-.26.32-.17.18-.36.41-.58.67-.22.26-.42.53-.61.82-.19.29-.31.55-.37.79-.04.14-.04.27,0,.39.03.12.13.2.3.25.22.06.51.04.88-.06s.76-.28,1.2-.53c.44-.25.87-.58,1.29-.99.08.1.11.15.19.26-.41.45-.87.83-1.37,1.14-.5.31-1,.52-1.49.65-.49.12-.93.13-1.33.03-.31-.08-.52-.21-.64-.38-.12-.17-.18-.37-.18-.6,0-.23.02-.46.06-.68.01-.05.02-.1.04-.16.01-.06.03-.1.03-.14-.25.23-.51.44-.79.65-.27.21-.55.37-.83.49-.28.12-.55.15-.81.09Z"/>
    <path d="m77.94,24.06c-.51-.18-.9-.42-1.15-.72-.25-.3-.4-.63-.44-.98-.04-.35-.01-.69.09-1.02.09-.29.2-.49.33-.63.14-.13.28-.21.43-.24.15-.03.29-.05.42-.05.13,0,.23-.02.3-.05.36-.17.74-.37,1.14-.6.41-.24.79-.52,1.15-.85.02-.06.03-.09.05-.15.14-.39.31-.64.52-.74.21-.1.42-.12.63-.04.14.05.23.12.27.2.04.08.06.17.03.24-.02.05-.06.12-.12.19-.06.07-.11.17-.16.3-.11.29-.15.65-.13,1.08.02.43.03.88.02,1.36,0,.47-.09.93-.26,1.36-.05.12-.09.22-.14.31-.05.09-.1.18-.15.25.35.05.74.01,1.16-.11.42-.12.88-.37,1.37-.74.05.08.08.13.14.21-.44.45-.91.76-1.42.93-.51.17-1.3,0-1.56.08-.23.07-.7.52-1.15.57-.45.05-.9,0-1.38-.17Zm.11-.68c.21.07.42.09.63.06.21-.03.4-.12.57-.27-.4-.24-.73-.54-1-.88-.27-.34-.47-.66-.59-.96-.16-.02-.28.09-.35.32-.1.32-.1.66,0,1.01.11.35.35.59.74.72Zm1.49-.6c.05-.06.09-.13.13-.22.04-.09.07-.16.09-.21.15-.43.24-.89.28-1.36.04-.47.07-.95.11-1.44-.31.23-.65.47-1.04.73-.38.26-.72.46-1.02.6.09.32.26.66.51,1,.25.35.57.65.95.9Z"/>
    <path d="m83.31,26.1c-.64-.29-1.06-.67-1.28-1.15-.21-.48-.22-.96-.02-1.46.17-.42.48-.82.91-1.18.44-.37.95-.67,1.55-.9.59-.23,1.2-.35,1.82-.37.62-.02,1.19.1,1.69.35.28.14.52.34.71.6.19.25.19.57,0,.93-.18.35-.47.61-.86.79-.39.18-.83.3-1.34.34-.5.05-1.02.04-1.56-.02-.54-.06-1.05-.17-1.54-.33-.03.03-.05.07-.08.11-.02.04-.06.11-.1.2-.02.05-.05.13-.09.26-.04.12-.05.27-.03.43.01.16.08.33.2.5.12.17.32.32.6.45.42.2.9.29,1.43.28.54,0,1.08-.09,1.65-.25.57-.16,1.1-.38,1.59-.68.08.15.11.23.19.39-.57.39-1.18.68-1.83.86-.64.19-1.27.27-1.9.25-.63-.02-1.21-.15-1.75-.4Zm.5-2.84c.29.09.63.15,1.03.16.4.01.81,0,1.22-.07.41-.06.79-.17,1.11-.32.33-.15.56-.36.69-.61.05-.1.06-.18.04-.24-.02-.06-.08-.11-.18-.16-.25-.12-.55-.18-.89-.15-.34.02-.7.1-1.08.22-.37.13-.73.29-1.07.5-.34.21-.63.43-.87.68Z"/>
  </g>
  <g>
    <path d="m45.51,100.74c-.96,0-1.74-.17-2.35-.52-.61-.35-1.06-.8-1.34-1.35-.28-.55-.43-1.13-.43-1.72,0-.77.15-1.54.45-2.31.3-.77.72-1.51,1.26-2.21.54-.7,1.14-1.32,1.82-1.86.68-.54,1.41-.97,2.18-1.29s1.55-.47,2.32-.47c.55,0,1.02.1,1.4.3s.57.54.57,1.03c0,.29-.07.62-.2.98-.13.36-.31.71-.53,1.04-.22.34-.47.61-.75.82-.28.21-.56.32-.85.32-.13,0-.26-.03-.4-.1-.14-.07-.26-.18-.38-.35.19-.17.4-.37.64-.6.24-.24.47-.49.68-.76.21-.27.39-.53.53-.79.14-.26.21-.48.21-.68,0-.17-.06-.31-.19-.41-.13-.1-.35-.15-.66-.15-.55,0-1.12.16-1.71.48-.59.32-1.15.75-1.69,1.29-.54.54-1.03,1.14-1.46,1.81-.44.67-.78,1.35-1.03,2.05-.25.7-.38,1.37-.38,2,0,.47.09.91.27,1.33.18.42.48.77.88,1.03.4.27.93.4,1.59.4.68,0,1.36-.14,2.03-.44.67-.29,1.29-.67,1.85-1.15.56-.48,1.01-.98,1.35-1.53.2.1.29.15.49.25-.44.65-.97,1.24-1.59,1.78-.62.54-1.31.97-2.09,1.3-.77.32-1.61.49-2.5.49Z"/>
    <path d="m52.62,100.16c-.42,0-.78-.11-1.09-.32-.31-.21-.46-.53-.46-.96,0-.34.1-.71.3-1.11.2-.4.48-.79.83-1.18.35-.39.76-.74,1.21-1.06.45-.32.94-.57,1.46-.76.52-.19,1.03-.29,1.55-.29s1,.11,1.38.32c.38.21.57.5.57.84,0,.26-.12.45-.36.57s-.52.15-.85.1c.03-.09.05-.17.07-.26.02-.09.03-.18.03-.28,0-.19-.05-.37-.15-.52-.1-.16-.31-.23-.64-.23-.35,0-.71.09-1.08.28-.36.18-.72.43-1.05.72-.33.3-.63.62-.9.98-.26.35-.47.7-.62,1.04-.15.34-.23.65-.23.92,0,.31.14.47.44.47s.61-.11.96-.33c.35-.22.71-.49,1.07-.82.36-.33.7-.67,1.03-1.01.33-.34.61-.64.85-.88.04-.05.09-.08.15-.07.05,0,.15.03.29.07.14.03.28.09.41.15.13.07.19.16.19.26,0,.1-.05.22-.16.37-.11.15-.23.32-.38.49-.14.18-.27.36-.38.54-.11.18-.16.35-.16.52,0,.13.04.25.13.36.09.11.23.17.44.17.3,0,.73-.17,1.28-.52.55-.34,1.11-.93,1.67-1.75.14.11.22.17.36.28-.3.52-.67.99-1.09,1.39-.42.4-.87.72-1.33.95s-.94.34-1.42.34c-.52,0-.9-.13-1.15-.38-.25-.25-.39-.52-.42-.82v-.07c-.5.47-.97.83-1.39,1.11-.42.27-.87.41-1.35.41Z"/>
    <path d="m59.93,103.55c-.14,0-.3-.03-.5-.1s-.36-.2-.51-.4c-.14-.2-.22-.5-.22-.89,0-.42.09-.96.27-1.64.18-.68.44-1.42.76-2.24.32-.82.7-1.66,1.13-2.53.44-.86.9-1.7,1.4-2.5.5-.8,1.01-1.52,1.55-2.16.54-.64,1.07-1.15,1.6-1.53.53-.38,1.04-.57,1.53-.57.33,0,.54.07.64.23.1.15.15.32.15.52,0,.42-.15.87-.45,1.37-.3.49-.69.99-1.18,1.49-.49.5-1.04.97-1.65,1.42-.61.45-1.24.83-1.88,1.15-.05.1-.1.19-.15.29-.05.1-.1.19-.15.29.14.04.25.11.33.2.08.1.13.2.14.31.1.42.2.79.3,1.11.1.32.25.58.46.76s.51.28.9.28c.44,0,.83-.13,1.17-.38.34-.25.69-.61,1.04-1.06.17.09.25.14.42.23-.4.62-.86,1.07-1.36,1.36-.5.29-.96.43-1.36.43-.21,0-.44-.03-.67-.1-.23-.07-.46-.17-.67-.29-.01.6-.1,1.2-.27,1.78-.17.59-.4,1.12-.69,1.59-.29.47-.62.86-.97,1.14-.36.29-.73.43-1.11.43Zm.53-.9c.14,0,.29-.09.44-.28.16-.18.31-.43.46-.73.15-.3.29-.63.42-1,.13-.36.23-.72.3-1.08.07-.35.11-.68.11-.97,0-.28-.04-.53-.12-.75-.08-.22-.22-.46-.43-.74-.29.67-.55,1.32-.78,1.94-.23.62-.4,1.19-.53,1.7-.13.51-.19.93-.19,1.27,0,.42.1.63.3.63Zm2.66-8.5c.77-.55,1.42-1.09,1.96-1.62.54-.52.95-.99,1.24-1.39.28-.4.43-.69.43-.85,0-.08-.05-.12-.15-.12-.3,0-.65.18-1.04.53-.39.35-.79.83-1.21,1.43-.42.6-.83,1.27-1.23,2.01Z"/>
    <path d="m68.38,100.11c-.81,0-1.43-.17-1.86-.5-.43-.33-.65-.75-.65-1.26,0-.43.14-.88.43-1.36.28-.48.67-.93,1.14-1.35s1.01-.76,1.59-1.03c.58-.26,1.16-.39,1.74-.39.33,0,.64.07.94.2.3.13.44.39.44.78s-.14.71-.42,1.03c-.28.32-.65.61-1.11.86-.47.25-.98.46-1.54.62-.56.16-1.12.26-1.69.31-.01.04-.02.08-.03.12,0,.04-.01.11-.01.21,0,.05.01.13.03.25.02.12.07.25.16.39.09.14.23.25.44.35.2.1.48.15.83.15.53,0,1.06-.11,1.6-.34.54-.23,1.04-.53,1.51-.91.47-.38.87-.8,1.18-1.27.15.09.23.14.38.23-.34.58-.78,1.09-1.31,1.53-.54.44-1.13.78-1.78,1.02-.65.24-1.31.36-1.99.36Zm-.79-2.63c.33-.03.69-.12,1.1-.26.4-.15.79-.33,1.16-.55.37-.22.68-.47.92-.74.24-.27.36-.54.36-.81,0-.11-.03-.18-.08-.22-.05-.04-.13-.06-.25-.06-.29,0-.59.08-.91.24-.31.16-.62.37-.93.63-.3.26-.57.54-.81.85s-.43.62-.57.92Zm4.04-4.11c-.16-.05-.28-.13-.35-.24-.07-.11-.1-.19-.1-.24,0-.08.06-.21.19-.39.13-.18.29-.37.49-.57.2-.2.41-.37.63-.51.22-.14.43-.21.63-.21.14,0,.26.04.37.11.11.07.17.21.2.4-.44.33-.83.62-1.16.87-.33.25-.63.51-.9.78Z"/>
  </g>
</svg>